<svg xmlns="http://www.w3.org/2000/svg" width="775" height="440.3" viewBox="0 0 775 440.3">
  <title>cloud9</title>
  <g id="Layer_2" data-name="Layer 2">
    <g id="Layer_1-2" data-name="Layer 1">
      <path d="M688.5,158.5A123,123,0,0,0,587.3,55.1a125.1,125.1,0,0,0-32.8-1.2A119.6,119.6,0,0,0,376.2,29.4a183.2,183.2,0,0,0-53.7-8.1c-51.2,0-97.6,21.3-131.2,55.8A102.5,102.5,0,0,0,41,167.8,95,95,0,0,0,42,182,117.5,117.5,0,0,0,0,271.8H0c0,61.1,47.2,111.6,106.9,117a102.6,102.6,0,0,0,141.7,21.1,102.6,102.6,0,0,0,136.6,8.2,102.7,102.7,0,0,0,112.7-7.9A102.6,102.6,0,0,0,645,389.3h12.5c64.6,0,117.5-52.9,117.5-117.5h0C775,217.9,738.2,172.2,688.5,158.5Z"/>
    </g>
  </g>
</svg>
