<svg xmlns="http://www.w3.org/2000/svg" width="314.6" height="215.1" viewBox="0 0 314.6 215.1">
  <title>cloud5</title>
  <g id="Layer_2" data-name="Layer 2">
    <g id="Layer_1-2" data-name="Layer 1">
      <path d="M279.5,74.4a50.1,50.1,0,0,0-66.7-39.7C199.3,13.8,176.2,0,150,0S99,14.8,85.8,36.9A48.5,48.5,0,0,0,31,75.7,48,48,0,0,0,0,120.4H0a47.9,47.9,0,0,0,33.3,45.4c7,15.1,21.1,25.4,37.5,25.4a38.4,38.4,0,0,0,21.9-6.9,56.8,56.8,0,0,0,89.9,14.9A66.7,66.7,0,0,0,219,209.9a67.6,67.6,0,0,0,63.5-44.5,47.9,47.9,0,0,0,32.1-45h0A47.9,47.9,0,0,0,279.5,74.4Z"/>
    </g>
  </g>
</svg>
