<svg xmlns="http://www.w3.org/2000/svg" width="454" height="273.8" viewBox="0 0 454 273.8">
  <title>cloud3</title>
  <g id="Layer_2" data-name="Layer 2">
    <g id="Layer_1-2" data-name="Layer 1">
      <path d="M405.7,91.1a46.8,46.8,0,0,0-42.3-26.8,44.2,44.2,0,0,0-11,1.4,60.8,60.8,0,0,0-50.6-26.9,68.1,68.1,0,0,0-7.8.5,72.6,72.6,0,0,0-126.1-5.1h-1.4A73.1,73.1,0,0,0,110,61,52,52,0,0,0,51.3,90.9,53.7,53.7,0,0,0,0,144.4H0a53.7,53.7,0,0,0,48,53.3,85.5,85.5,0,0,0,112.3,45,106.3,106.3,0,0,0,157.9-8.5,73.2,73.2,0,0,0,22.6,3.5,75.3,75.3,0,0,0,66.6-40.1A53.9,53.9,0,0,0,454,144.4h0A53.8,53.8,0,0,0,405.7,91.1Z"/>
    </g>
  </g>
</svg>
