<svg xmlns="http://www.w3.org/2000/svg" width="344.6" height="214" viewBox="0 0 344.6 214">
  <title>cloud8</title>
  <g id="Layer_2" data-name="Layer 2">
    <g id="Layer_1-2" data-name="Layer 1">
      <path d="M344.6,119.1a42.8,42.8,0,0,0-16.7-33.9c.2-2,.4-4.1.4-6.1a42.7,42.7,0,0,0-42.8-42.8,41.8,41.8,0,0,0-20.2,5.1A51,51,0,0,0,245,33.3a48.6,48.6,0,0,0-13.7-.5,49.8,49.8,0,0,0-51.5-21.5A75.6,75.6,0,0,0,140,0C110,0,84.1,17.5,71.2,43H69.5A42.7,42.7,0,0,0,27.1,79.9,49.2,49.2,0,0,0,0,123.7H0a49.2,49.2,0,0,0,44.6,48.8,42.5,42.5,0,0,0,34,16.9,43.6,43.6,0,0,0,17.7-3.8,42.8,42.8,0,0,0,78.9,4.1,34.9,34.9,0,0,0,6.5.5,42.7,42.7,0,0,0,26-8.8,42.9,42.9,0,0,0,61.4-8.7h5.2a48.8,48.8,0,0,0,30.9-11A42.8,42.8,0,0,0,344.6,119.1Z"/>
    </g>
  </g>
</svg>
