<svg xmlns="http://www.w3.org/2000/svg" width="379.8" height="206.5" viewBox="0 0 379.8 206.5">
  <title>cloud11</title>
  <g id="Layer_2" data-name="Layer 2">
    <g id="Layer_1-2" data-name="Layer 1">
      <path d="M379.8,125.4a81,81,0,0,0-81-81c-3.3,0-6.6.2-9.8.5a42.2,42.2,0,0,0-33.3-16.3A41.5,41.5,0,0,0,241.5,31a81.7,81.7,0,0,0-133.7,8,55.3,55.3,0,0,0-14.2-1.8A57.9,57.9,0,0,0,35.8,91.8,60.1,60.1,0,0,0,0,146.6H0a60.1,60.1,0,0,0,59.9,59.9H300.6a58,58,0,0,0,10.3-.9A81.1,81.1,0,0,0,379.8,125.4Z"/>
    </g>
  </g>
</svg>
