<svg xmlns="http://www.w3.org/2000/svg" width="323" height="195.7" viewBox="0 0 323 195.7">
  <title>cloud4</title>
  <g id="Layer_2" data-name="Layer 2">
    <g id="Layer_1-2" data-name="Layer 1">
      <path d="M285.2,65.6a53.5,53.5,0,0,0-52.6-44.2,55,55,0,0,0-19.9,3.8,65.6,65.6,0,0,0-104.1,1A51.8,51.8,0,0,0,44,65.6H38.1A38.2,38.2,0,0,0,0,103.7H0a38.2,38.2,0,0,0,34.1,37.9,60.9,60.9,0,0,0,56,36.9,60.2,60.2,0,0,0,24-4.9,75.7,75.7,0,0,0,112.3-6,53.5,53.5,0,0,0,63.5-26.1A38.3,38.3,0,0,0,323,103.7h0A38.3,38.3,0,0,0,285.2,65.6Z"/>
    </g>
  </g>
</svg>
