<svg xmlns="http://www.w3.org/2000/svg" width="580" height="295.5" viewBox="0 0 580 295.5">
  <title>cloud7</title>
  <g id="Layer_2" data-name="Layer 2">
    <g id="Layer_1-2" data-name="Layer 1">
      <path d="M521,115.8a58.1,58.1,0,0,0-17.8,2.7,59,59,0,0,0-86.3-61.3,70.4,70.4,0,0,0-64.2-7.9C333.6,19.6,300.8,0,263.5,0a104.8,104.8,0,0,0-76.8,33.5A68.7,68.7,0,0,0,75.5,104.4a61.6,61.6,0,0,0,4.2,10.9,68.4,68.4,0,0,0-25.1,32.9,59,59,0,1,0,54.8,89.7l2.8.3a59.1,59.1,0,0,0,71.5,18A59.1,59.1,0,0,0,292.6,262a65.4,65.4,0,0,0,8.9.6,58.8,58.8,0,0,0,35.9-12.1,59.3,59.3,0,0,0,84.8-12h7.2a67.6,67.6,0,0,0,49.8-22A59,59,0,1,0,521,115.8Z"/>
    </g>
  </g>
</svg>
