<svg xmlns="http://www.w3.org/2000/svg" width="379.8" height="263.1" viewBox="0 0 379.8 263.1">
  <title>cloud1</title>
  <g id="Layer_2" data-name="Layer 2">
    <g id="Layer_1-2" data-name="Layer 1">
      <path d="M379.8,121.9a81.1,81.1,0,0,0-81-81.1,78.3,78.3,0,0,0-20.7,2.7,42,42,0,0,0-51-15.9,81.1,81.1,0,0,0-134,18.3A58.1,58.1,0,0,0,49.5,84,60.2,60.2,0,0,0,0,143H0a60.2,60.2,0,0,0,52.7,59.5A81.6,81.6,0,0,0,188.4,240a81.6,81.6,0,0,0,109-37.1h3.2a58,58,0,0,0,10.3-.9A81.1,81.1,0,0,0,379.8,121.9Z"/>
    </g>
  </g>
</svg>
