<svg xmlns="http://www.w3.org/2000/svg" width="511.3" height="223" viewBox="0 0 511.3 223">
  <title>cloud2</title>
  <g id="Layer_2" data-name="Layer 2">
    <g id="Layer_1-2" data-name="Layer 1">
      <path d="M456.9,102.5a52.9,52.9,0,0,0-47.6-30.1,57,57,0,0,0-12.5,1.5,68.6,68.6,0,0,0-56.9-30.2,84.9,84.9,0,0,0-8.8.5,81.7,81.7,0,0,0-142-5.6h-1.6a81.8,81.8,0,0,0-62,28.4,57,57,0,0,0-23-4.7,58.3,58.3,0,0,0-55.9,41.6A60.8,60.8,0,0,0,0,162.6H0A60.6,60.6,0,0,0,60.4,223H450.9a60.6,60.6,0,0,0,60.4-60.4h0A60.7,60.7,0,0,0,456.9,102.5Z"/>
    </g>
  </g>
</svg>
