<svg viewBox="0 0 64 80">
<g>
	<path className="st0" d="M3,62h16c0.6,0,1-0.4,1-1v-6c0-0.6-0.4-1-1-1H3c-0.6,0-1,0.4-1,1v6C2,61.6,2.4,62,3,62z M4,56h14v4H4V56z"/>
	<path className="st0" d="M3,35h1v3.8C4,40,5,41,6.2,41c0.8,0,1.6-0.5,2-1.2L8.6,39H15c2.8,0,5-2.2,5-5v-2h8v7c0,0.6,0.4,1,1,1h4.8
		c1.2,0,2.2-1,2.2-2.2c0-0.8-0.5-1.6-1.2-2l0,0L34,35.4V31c0-2.8-2.2-5-5-5h-3v-8h3c2.8,0,5-2.2,5-5V5c0-0.6-0.4-1-1-1h-4
		c-0.6,0-1,0.4-1,1v7h-4c0.7-0.9,1-1.9,1-3V7c0-2.8-2.2-5-5-5s-5,2.2-5,5v2c0,1.1,0.4,2.1,1,3h-5c-2.8,0-5,2.2-5,5v7H3
		c-0.6,0-1,0.4-1,1v9C2,34.6,2.4,35,3,35z M29,28c1.7,0,3,1.3,3,3v5c0,0.4,0.2,0.7,0.6,0.9l1.3,0.7c0.1,0.1,0.2,0.2,0.1,0.3
		c0,0.1-0.1,0.1-0.2,0.1H30v-7c0-0.6-0.4-1-1-1H19c-0.6,0-1,0.4-1,1v3c0,1.7-1.3,3-3,3H8c-0.4,0-0.7,0.2-0.9,0.6l-0.7,1.3
		C6.4,39,6.2,39,6.1,38.9C6,38.9,6,38.8,6,38.8V35h9c0.6,0,1-0.4,1-1v-6H29z M14,24h-2v-6h2V24z M30,6h2v2h-2V6z M17,7
		c0-1.7,1.3-3,3-3s3,1.3,3,3v2c0,1.7-1.3,3-3,3s-3-1.3-3-3V7z M8,17c0-1.7,1.3-3,3-3h8v10h2V14h8c0.6,0,1-0.4,1-1v-3h2v3
		c0,1.7-1.3,3-3,3h-4c-0.6,0-1,0.4-1,1v9h-8v-9c0-0.6-0.4-1-1-1h-4c-0.6,0-1,0.4-1,1v3H8V17z M8,22h2v2H8V22z M4,26h10v2.2L9,29
		l-5-0.8V26z M4,30.2L8.8,31c0.1,0,0.2,0,0.3,0l4.8-0.8V33H4V30.2z"/>
	<path className="st0" d="M61.4,7.9c0.5-0.2,0.7-0.8,0.4-1.3c-0.1-0.2-0.3-0.4-0.4-0.4l-8-4c-0.5-0.2-1.1,0-1.3,0.4C52,2.7,52,2.8,52,3v27h-7
		c-0.6,0-1,0.4-1,1v30c0,0.6,0.4,1,1,1h16c0.6,0,1-0.4,1-1V31c0-0.6-0.4-1-1-1h-7V11.6L61.4,7.9z M54,4.6L58.8,7L54,9.4V4.6z M60,60
		H46v-4h14V60z M60,54H46v-4h14V54z M60,48H46v-4h14V48z M60,42H46v-4h14V42z M60,32v4H46v-4H60z"/>
	<path className="st0" d="M24,42c-0.6,0-1,0.4-1,1v18c0,0.6,0.4,1,1,1h16c0.6,0,1-0.4,1-1V43c0-0.6-0.4-1-1-1H24z M39,60H25v-4h14V60z M39,54H25v-4
		h14V54z M39,48H25v-4h14V48z"/>
</g>
</svg>
