<svg viewBox="0 0 512 640">
<path className="st0" d="M24,208h8.6L48,424.6c0.3,4.2,3.8,7.4,8,7.4h88v40c0,13.2,10.8,24,24,24h136c3,0,5.8-1.7,7.2-4.4l8.8-17.7l8.8,17.7
	c1.4,2.7,4.1,4.4,7.2,4.4h136c13.2,0,24-10.8,24-24v-96c0-13.2-10.8-24-24-24H356.7l9.3-144h10c4.4,0,8-3.6,8-8v-16
	c0-10.2-6.4-19.2-16-22.6v-12.2c11.7-13.3,10.4-33.5-2.8-45.2c-3.8-3.3-8.3-5.7-13.2-7c0-0.3,0-0.7,0-1c0-22.1-17.9-40-40-40
	c-12.8,0-24.8,6.1-32.3,16.5C269,61.8,254.4,55.9,239.3,56c-4.4-26.1-29.2-43.8-55.4-39.3c-14.9,2.5-27.7,11.9-34.7,25.3
	c-21-16.2-51.1-12.3-67.3,8.7c-5,6.5-8.3,14.1-9.5,22.3c-21.6-4.7-42.9,9-47.6,30.5c-3.3,15.3,2.6,31.1,15.1,40.5v16
	c-13.2,0-24,10.8-24,24v16C16,204.4,19.6,208,24,208z M48.6,208H96v208H63.4L48.6,208z M112,416V208h48v145.4
	c-9.6,3.4-16,12.5-16,22.6v40H112z M240,352V208h48v144H240z M224,352h-48V208h48V352z M480,376v96c0,4.4-3.6,8-8,8H340.9
	l-13.8-27.6c-2-4-6.8-5.6-10.7-3.6c-1.5,0.8-2.8,2-3.6,3.6L299.1,480H168c-4.4,0-8-3.6-8-8v-96c0-4.4,3.6-8,8-8h131.1l13.8,27.6
	c2,4,6.8,5.6,10.7,3.6c1.5-0.8,2.8-2,3.6-3.6l13.8-27.6H472C476.4,368,480,371.6,480,376z M340.6,352H336c-3,0-5.8,1.7-7.2,4.4
	l-8.8,17.7l-8.8-17.7c-1.4-2.7-4.1-4.4-7.2-4.4V208h45.9L340.6,352z M52,132.8c-11.6-6.5-15.7-21.1-9.2-32.7S64,84.4,75.5,90.9
	c0.2,0.1,0.4,0.2,0.7,0.4c3.8,2.2,8.7,1,11-2.8c0.9-1.5,1.3-3.2,1.1-4.9C88.1,82.4,88,81.2,88,80c0-17.7,14.3-32,32-32
	c10.4,0,20.1,5,26.1,13.5c2.6,3.6,7.5,4.5,11.2,1.9c1.7-1.2,2.9-3,3.2-5.1c3.2-17.4,19.8-28.9,37.2-25.8c15.2,2.8,26.3,16,26.3,31.5
	c0,0.1,0,0.2,0,0.3c-0.2,4.4,3.2,8.2,7.6,8.3c0.6,0,1.1,0,1.7-0.1c2.2-0.4,4.4-0.6,6.7-0.5c14.1-0.1,27.1,7.3,34.3,19.5
	c2.3,3.8,7.2,5,11,2.7c1.8-1.1,3-2.7,3.6-4.7c3.6-12.8,16.9-20.2,29.6-16.6C328.8,75.8,336,85.2,336,96c0,2-0.3,4-0.8,6
	c-1.1,4.3,1.4,8.6,5.7,9.8c0.7,0.2,1.5,0.3,2.3,0.3c0.3,0,0.5,0,0.8,0c8.8,0,16,7.2,16,16c0,4.6-1.9,8.9-5.3,11.9
	c-1.7,1.5-2.7,3.7-2.7,6V160H56v-20.3C56,136.9,54.5,134.2,52,132.8z M32,184c0-4.4,3.6-8,8-8h320c4.4,0,8,3.6,8,8v8H32V184z"/>
<path className="st0" d="M280,384h-96c-4.4,0-8,3.6-8,8v64c0,4.4,3.6,8,8,8h96c4.4,0,8-3.6,8-8v-64C288,387.6,284.4,384,280,384z M272,448h-80v-48
	h80V448z"/>
<path className="st0" d="M360,464h96c4.4,0,8-3.6,8-8v-64c0-4.4-3.6-8-8-8h-96c-4.4,0-8,3.6-8,8v64C352,460.4,355.6,464,360,464z M368,400h80v48h-80
	V400z"/>
<path className="st0" d="M224,136c17.7,0,32-14.3,32-32c0-4.4-3.6-8-8-8s-8,3.6-8,8c0,8.8-7.2,16-16,16s-16-7.2-16-16c0-4.4-3.6-8-8-8s-8,3.6-8,8
	C192,121.7,206.3,136,224,136z"/>
<path className="st0" d="M128,128c-4.4,0-8,3.6-8,8s3.6,8,8,8c17.7,0,32-14.3,32-32s-14.3-32-32-32c-4.4,0-8,3.6-8,8s3.6,8,8,8c8.8,0,16,7.2,16,16
	S136.8,128,128,128z"/>
</svg>
