<?xml version="1.0" encoding="utf-8"?>
<!-- Generator: Adobe Illustrator 23.0.6, SVG Export Plug-In . SVG Version: 6.00 Build 0)  -->
<svg version="1.1" id="Layer_1" xmlns="http://www.w3.org/2000/svg" xmlns:xlink="http://www.w3.org/1999/xlink" x="0px" y="0px"
	 viewBox="0 0 18 22.5" style="enable-background:new 0 0 18 22.5;" xml:space="preserve">
<g>
	<path d="M15.7,6.5C16.7,3.9,14.9,1,12,1c-2,0-3.6,1.4-3.9,3.2C6.5,3.6,4.7,4.4,4.1,6H4C2.3,6,1,7.3,1,9c0,1.6,1.3,3,3,3h10
		c1.7,0,3-1.4,3-3C17,7.9,16.5,7,15.7,6.5z"/>
	<path d="M16.1,15c0-0.6-1-2-1-2s-1,1.4-1,2s0.4,1,1,1S16.1,15.6,16.1,15z"/>
	<path d="M12,16c0-0.6-1-2-1-2s-1,1.4-1,2s0.4,1,1,1C11.5,17,12,16.5,12,16z"/>
	<path d="M8,15c0-0.6-1-2-1-2s-1,1.4-1,2s0.4,1,1,1C7.5,16,8,15.6,8,15z"/>
	<path d="M4,16c0-0.6-1-2-1-2s-1,1.4-1,2s0.4,1,1,1C3.5,17,4,16.5,4,16z"/>
</g>
</svg>
