<?xml version="1.0" encoding="utf-8"?>
<!-- Generator: Adobe Illustrator 23.0.6, SVG Export Plug-In . SVG Version: 6.00 Build 0)  -->
<svg viewBox="0 0 66 82.5">
<g>
	<path d="M8.2,40h7.5c0.1,0,0.3-0.1,0.5-0.1c1.5-4.3,5.5-7.2,10.1-7.2c0.2,0,0.7,0,0.8,0c1.6-5.1,6.5-8.7,12.2-8.7
		c5.6,0,10.4,3.7,12,9c1.6,0.4,3,1.1,4.3,2.1c0.6-1.1,1-2.3,1-3.6c0-4.7-3.6-8.5-8.2-8.8c-0.8-3.8-3.9-6.6-7.7-7
		c-1-4.9-5.3-8.7-10.5-8.7c-5.3,0-9.9,3.7-10.6,8.8c-0.8-0.3-1.5-0.2-2.3-0.2c-4.2,0-7.8,3-8.6,7c-4.6,0.3-8.2,4.1-8.2,8.8
		C0.5,36.3,3.4,40,8.2,40z"/>
	<path d="M57.3,41.7c-0.4-2-1.5-3.8-3-5c-1.3-1.1-2.9-1.8-4.8-2c-0.8-5-5.1-8.7-10.3-8.7c-5.3,0-9.9,3.7-10.6,8.8
		c-0.8-0.3-1.5-0.2-2.3-0.2c-3.6,0-6.7,2.2-8,5.3c-0.2,0.5-0.4,1.1-0.5,1.7c-4.6,0.3-8.2,4.1-8.2,8.8c0,4.8,2.9,8.5,7.7,8.5h38.5
		c4.8,0,9.7-3.7,9.7-8.5C65.5,45.8,61.9,42,57.3,41.7z"/>
</g>
</svg>
