<?xml version="1.0" encoding="utf-8"?>
<!-- Generator: Adobe Illustrator 23.0.6, SVG Export Plug-In . SVG Version: 6.00 Build 0)  -->
<svg viewBox="0 0 96 120">
<g>
	<path d="M27.1,77c8.3,6.6,18.6,9.5,29.1,8.3c11.1-1.3,21-7.1,27.5-16.1c-3.2,1.3-6.7,2.1-10.2,2.5c-10.8,1.2-21.4-1.8-29.9-8.5
		S29.9,46.8,28.7,36c-1-8.9,1-17.9,5.6-25.6c-15,7.4-23.8,23.3-21.8,40.1C13.6,61,18.9,70.4,27.1,77z"/>
	<path d="M49.5,27.9l-2-2.3l-0.5,3c0,0.3-0.2,0.5-0.5,0.6l-2.8,1.2l2.7,1.5c0.2,0.1,0.4,0.4,0.4,0.7l0.3,3l2.2-2.1
		c0.2-0.2,0.5-0.3,0.8-0.2l3,0.6l-1.3-2.7c-0.1-0.2-0.1-0.5,0-0.8l1.5-2.6l-3,0.4C49.9,28.2,49.7,28.1,49.5,27.9z"/>
	<path d="M69.3,27.9l3,0.6L71,25.7c-0.1-0.3-0.1-0.5,0-0.8l1.5-2.6l-3,0.4c-0.3,0-0.6-0.1-0.8-0.3l-2-2.3l-0.6,3
		c-0.1,0.3-0.2,0.5-0.5,0.6L62.9,25l2.7,1.5c0.2,0.1,0.4,0.4,0.4,0.7l0.3,3l2.2-2.1C68.8,27.9,69.1,27.8,69.3,27.9z"/>
	<path d="M55.2,48.2l-2-2.3l-0.5,3c0,0.3-0.2,0.5-0.5,0.6l-2.8,1.2l2.7,1.5c0.2,0.1,0.4,0.4,0.4,0.7l0.3,3l2.2-2.1
		c0.2-0.2,0.5-0.3,0.8-0.2l3,0.6l-1.3-2.7c-0.1-0.2-0.1-0.5,0-0.8l1.5-2.6l-3,0.4C55.7,48.6,55.4,48.5,55.2,48.2z"/>
	<path d="M61.7,35.6l-2-2.3l-0.5,3c0,0.3-0.2,0.5-0.5,0.6l-2.8,1.2l2.7,1.5c0.2,0.1,0.4,0.4,0.4,0.7l0.3,3l2.2-2.1
		c0.2-0.2,0.5-0.3,0.8-0.2l3,0.6l-1.3-2.7c-0.1-0.2-0.1-0.5,0-0.8l1.5-2.6l-3,0.4C62.1,35.9,61.9,35.8,61.7,35.6z"/>
	<path d="M74.6,42.8l-2-2.3l-0.6,3c-0.1,0.3-0.2,0.5-0.5,0.6l-2.8,1.2l2.7,1.5c0.2,0.1,0.4,0.4,0.4,0.7l0.3,3l2.2-2.1
		c0.2-0.2,0.5-0.3,0.8-0.2l3,0.6l-1.3-2.7c-0.1-0.3-0.1-0.5,0-0.8l1.5-2.6l-3,0.4C75,43.1,74.7,43,74.6,42.8z"/>
</g>
</svg>
