 <svg viewBox="0 0 2500 1789">
<g>
	<path  className="st0" d="M555,1510.8h104.7V995.3H555V1510.8L555,1510.8z M732.2,1510.8h104.7V995.3H732.2L732.2,1510.8L732.2,1510.8z
		 M406.8,995.3l-113,0L0,1510.8h113.1L216,1330.2h118.9l44.4-77.8v258.5h107.9V995.3L406.8,995.3L406.8,995.3z M261.2,1250.8
		l118.1-207.2v207.2H261.2z M1210.8,1439.8c0,1,9.7,83.2-156,83.2S901,1439.8,901,1439.8v-73.1h104.7v38.6c0,14.3-1.7,26.1,8.6,33.5
		c13.5,9.7,68.5,11.3,82.2,0c8.7-7.2,8.6-31.5,8.6-31.5v-27.4c0-21.3-19.7-28-21.4-28.9c-0.7-0.5-134.6-28.9-160.3-51.2
		c-25.7-22.3-22.4-51.8-22.4-51.8v-92.4c10.7-88.3,159.2-79.7,159.2-79.7s145.3-8.6,150.6,79.7v66h-104.7v-30.5
		c0-34.6-17.7-41.5-46.5-41.1c-32.1,0.4-51.5,6-51.5,42.6c0,0-5.6,41.1,21.1,49.2c26.7,8.1,117.5,26.9,126,30.5
		c0,0,55.6,12.2,55.6,74.1L1210.8,1439.8L1210.8,1439.8L1210.8,1439.8z M1464.4,1155.6v-71.1h-65.9v-89.3h-104.7v89.3h-30.7
		l-40.6,71.1h71.3v355.2h104.7v-355.2H1464.4z M1793,1160.7c0-88.3-150.9-84.7-150.9-84.7s-148.5-8.6-159.2,79.7v65h105.4l-0.1-27.1
		c0-36.6,12.8-44,49.1-44.4c33.1-0.4,50.8,7.6,50.8,42.1v57.8h-94.5c0,0-116-5.6-110.7,91.4v87.3c0,0-1,83.2,80.1,83.2h81.3
		l41.8-73.1h-62.6c0,0-32,8.1-32-54.8s20.2-59.9,28.8-59.9h65.2v187.8h107.9L1793,1160.7L1793,1160.7z M2052.8,1155.6v-71.1h-67.1
		v-89.3H1881v89.3h-31.4l-40.5,71.1h72v355.2h104.7v-355.2H2052.8L2052.8,1155.6z M2173.9,1249.1l98.7-0.1v-57.8
		c0-34.6-17.7-42.5-50.7-42.1c-36.3,0.4-47.9,3.8-47.9,40.3L2173.9,1249.1L2173.9,1249.1z M2173.9,1322.4v87c0,0-3.2,33.5,51.3,33.5
		c51.3,0,47.5-33.5,47.5-33.5v-40.7h105.8v56.9c0,107.6-156,95.4-156,95.4c-167.7,0-155-93.4-155-93.4v-272
		c10.7-88.3,159.2-79.7,159.2-79.7s151-3.6,151,84.7v161.5L2173.9,1322.4z M2415.6,1465.6c0-23.9,19.4-41.5,42.3-41.5
		c22.7,0,42,17.6,42,41.5c0,24.2-19.3,41.8-42,41.8C2435,1507.4,2415.6,1489.8,2415.6,1465.6z M2458,1500.4
		c18.8,0,33.7-14.8,33.7-34.8c0-19.7-14.9-34.6-33.7-34.6c-19.1,0-33.9,14.9-33.9,34.6C2424,1485.7,2438.9,1500.4,2458,1500.4z
		 M2449.2,1489.8h-7.3v-48.1h18.3c11.4,0,16.9,4.2,16.9,13.7c0,8.6-5.4,12.3-12.4,13.2l13.6,21.2h-8.1l-12.7-20.8h-8.3
		L2449.2,1489.8L2449.2,1489.8L2449.2,1489.8z M2457.9,1462.7c6.2,0,11.6-0.4,11.6-7.8c0-6-5.5-7.1-10.5-7.1h-9.9v14.9H2457.9
		L2457.9,1462.7z M443.2,1749.2h-18.5v-49.6l-53.3-86H394l35.5,59.9c2.6,4.2,3.2,5.1,5.6,9.8c3.2-5.2,3.8-6.5,5.6-9.6l33-60.1h19.4
		l-50,86V1749.2z M523.4,1751.1c-40.5,0-43.7-30.9-43.7-48.8c0-14.2,1-51.3,45.1-51.3c41.1,0,42.9,30.7,43.4,46.3
		C568.6,1713.8,568.2,1751.1,523.4,1751.1z M524.8,1661.6c-26.4,0-27,29.4-27,40.1c0,14,1.4,38.9,26.6,38.9
		c19.3,0,25.9-15.9,25.6-42.4C549.8,1676.6,543.6,1661.6,524.8,1661.6z M670.1,1749.2H653v-11.3c-4.9,4-15.7,13.2-33.2,13.2
		c-5.3,0.2-10.6-0.9-15.4-3.1c-14.7-6.9-15.1-21.1-15.3-32.1v-62.8h17.2v55.3c0,10.4,0.4,16.7,2.6,21.5c3.2,6.7,9.7,10.4,18.1,10.4
		c7.1,0,15.9-2.9,20.3-7.3c5.1-4.8,5.5-10.2,5.7-15v-64.9h17.1V1749.2z M704,1653.6h-11.7l11.1-21.3h-9.7v-18.6h21.2v17.6
		L704,1653.6z M744.2,1749.2h-17.4V1653h17.4v12.6c3.6-4.4,11.1-14.2,24.6-14.2c6.3,0,9.3,1.9,12.1,3.5v15.2
		c-4.8-3.6-10.6-5.6-16.5-5.6c-3.4-0.1-6.8,0.6-9.9,1.9c-10.1,4.4-10.1,13-10.3,18.2L744.2,1749.2L744.2,1749.2z M871.5,1719.8
		c-1.4,24.4-23.8,31.3-41.1,31.3c-6,0-21.7-0.6-32.4-11.5c-4.8-5.2-11.5-15.7-11.5-35.7c0-31.7,13.5-52.8,45-52.8
		c31.6,0,41.5,20.7,40.4,49.8h-67c-0.2,11.9,0.1,39.5,26.2,39.5c6,0,22.1-2.1,23.4-20.6L871.5,1719.8L871.5,1719.8L871.5,1719.8z
		 M854.8,1690.8c-0.2-5.9-0.8-29-23-29c-14.5,0-25.2,9.8-26.4,29H854.8L854.8,1690.8z M946.3,1653.2h17.4v96h-17.4V1653.2z
		 M946.3,1615.8h17.1v16.7h-17.1V1615.8z M1071.4,1749.2h-17.1v-56.5c0-4.4,0-8.9-0.6-13.4c-0.4-3.9-2.2-17.5-19.7-17.5
		c-4.5,0-8.3,0.8-11.7,2.1c-13.1,5.2-13.5,14.6-13.7,20.5v64.7h-17.2v-96h17.2v10.8c8.9-8.4,20.6-13,32.8-12.9
		c9.3,0,18.6,2.9,24.2,9.8c5.7,7.1,5.9,15.9,5.9,23.2V1749.2L1071.4,1749.2z M1233.5,1653.2v81.2c0.1,12.7,0.4,29.6-9.3,40.7
		c-8.9,10.2-23,13.8-36.9,13.8c-24.6,0-32.7-10.2-34.3-12.1c-5.6-7.1-5.5-16.5-5.5-19.7h16.5c0.4,5.3,1,14,11.5,18.8
		c2.6,1.1,6.5,2.3,12.9,2.3c3.2,0,14.1,0,21.6-9.2c6.2-7.3,6.2-15.9,6.4-23.4l0.2-9c-4.4,4.5-13.1,12.7-31.6,12.7
		c-6.4,0.1-12.7-1.4-18.4-4.2c-14.3-7.7-19.7-23.7-19.7-43.2c0-12.9,2.4-25.4,8.9-34.6c7.1-9.8,18.3-16.1,32.5-16.1
		c15.9,0,23.6,7.5,28.4,12.1v-10L1233.5,1653.2L1233.5,1653.2z M1216.7,1687.6c0-7.3-1-12.7-4.8-17.5c-4-5-11.1-8.3-18.9-8.3
		c-5,0-9.9,1.4-13.9,3.6c-11.9,7.3-13.9,22.3-13.9,34.2c0,4.8,0.4,9.6,1,14.4c1,5.7,3.9,24.3,25.2,24.3c6.8,0,13.7-2.3,18.4-6.4
		c6.4-5.7,6.6-11.9,7-18V1687.6L1216.7,1687.6z M1298.9,1751.1c-40.4,0-43.7-30.9-43.7-48.8c0-14.2,1-51.3,45.1-51.3
		c41.1,0,42.9,30.7,43.3,46.3C1344.1,1713.8,1343.7,1751.1,1298.9,1751.1z M1300.4,1661.6c-26.4,0-27,29.4-27,40.1
		c0,14,1.5,38.9,26.6,38.9c19.4,0,26-15.9,25.6-42.4C1325.4,1676.6,1319.1,1661.6,1300.4,1661.6L1300.4,1661.6z M1403,1751.1
		c-40.5,0-43.8-30.9-43.8-48.8c0-14.2,1-51.3,45.2-51.3c41.1,0,42.9,30.7,43.3,46.3C1448.1,1713.8,1447.7,1751.1,1403,1751.1z
		 M1404.4,1661.6c-26.4,0-27,29.4-27,40.1c0,14,1.4,38.9,26.6,38.9c19.4,0,26-15.9,25.6-42.4
		C1429.4,1676.6,1423.1,1661.6,1404.4,1661.6z M1549.5,1749.2h-16.7v-11.9c-4.7,4.8-13.3,13.8-31.4,13.8
		c-38.1,0-38.1-39.4-38.1-48.4c0-9.2,1.2-25.3,8.9-36.1c8.4-11.9,21.4-15.6,33.2-15.6c16.5,0,23.4,7.9,27.4,12.1v-49.5h16.7V1749.2
		L1549.5,1749.2z M1532.8,1685.2c0-19-14.9-23.4-23.8-23.4c-27.4,0-27.6,28.8-27.6,39c0,17.2,3.4,39.5,25.4,39.5
		c7.7,0,16.3-3.2,20.6-8.6c5.1-5.9,5.2-14.2,5.5-20.6L1532.8,1685.2L1532.8,1685.2L1532.8,1685.2z M1711.4,1749.2H1694v-56.5
		c0-4.6,0.2-9-0.5-13.4c-0.4-3.7-2.1-17.5-19.7-17.5c-4.5,0-8.3,0.8-11.7,2.1c-13.1,5.2-13.5,14.6-13.7,20.5v64.7h-17.1v-135.7h17.1
		v50.5c8.9-8.4,20.7-13,32.9-12.9c9.2,0,18.5,2.9,24.2,9.8c5.6,7.1,5.6,15.9,5.9,23.2L1711.4,1749.2L1711.4,1749.2L1711.4,1749.2z
		 M1815.9,1749.2h-13.1c-7.7,0-8.9-2.5-8.4-10.8c-2.8,2.5-6.1,5.4-12.1,8.1c-6.9,3.1-14.1,4.6-20.8,4.6c-22.5,0-28.4-16.7-28.4-27.6
		c0-4,0.8-7.9,2.5-11.4c6.8-15.2,23.6-17.1,41.9-19.2l16.9-1.7v-8.6c-0.2-8.5-0.4-20.7-18.7-20.7c-3.4,0-11.5,0-17.1,5.6
		c-5.5,5.1-5.6,12.1-5.6,16.3h-16.4c0-4-0.2-10,2.8-15.7c5.3-10.4,19.2-16.9,37.8-16.9c7.1,0,20.2,1.3,27,7.7
		c7.1,6.7,7.1,16.1,7.1,23v52.8c0,4,0,6.7,1,9c0.9,2.5,2,2.9,3.6,3.3L1815.9,1749.2L1815.9,1749.2L1815.9,1749.2z M1794.4,1700.2
		l-5.1,0.6c-15.7,1.7-24.5,3.6-29,6.1c-5.8,2.9-9.3,8.9-9.1,15.3c0,10.8,7.4,17.8,18.3,17.8c5.5,0,11.5-1.9,15.5-4.4
		c8.9-5.4,9.1-13,9.3-19L1794.4,1700.2L1794.4,1700.2L1794.4,1700.2z M1919.3,1749.2h-17.1v-56.5c0-4.4,0-8.9-0.6-13.4
		c-0.4-3.9-2.2-17.5-19.8-17.5c-4.4,0-8.2,0.8-11.6,2.1c-13.1,5.2-13.5,14.6-13.7,20.5v64.7h-17.1v-96h17.1v10.8
		c8.9-8.4,20.7-13,32.9-12.9c9.3,0,18.5,2.9,24.2,9.8c5.6,7.1,5.8,15.9,5.8,23.2L1919.3,1749.2L1919.3,1749.2L1919.3,1749.2z
		 M2027.6,1749.2h-16.7v-11.9c-4.7,4.8-13.3,13.8-31.4,13.8c-38.1,0-38.1-39.4-38.1-48.4c0-9.2,1.2-25.3,8.9-36.1
		c8.4-11.9,21.3-15.6,33.2-15.6c16.5,0,23.3,7.9,27.4,12.1v-49.5h16.7V1749.2L2027.6,1749.2z M2010.9,1685.2
		c0-19-14.9-23.4-23.8-23.4c-27.4,0-27.7,28.8-27.7,39c0,17.2,3.5,39.5,25.4,39.5c7.6,0,16.3-3.2,20.6-8.6c5-5.9,5.2-14.2,5.5-20.6
		L2010.9,1685.2L2010.9,1685.2L2010.9,1685.2z M2074.9,1704.5c-9-2.7-24.5-7.3-24.5-25c0-18.8,14.9-28.4,35.9-28.4
		c9.7,0,19.2,2.5,25.1,6.9c9.7,7.5,9.5,18.4,9.5,22.5h-16.5c0.1-2.3,0.6-5-0.7-8.4c-2.6-7.3-9.2-10.8-18.3-10.8
		c-11.7,0-19.1,6.3-19.1,14c0,10,10.5,13,20.9,16.3l6.9,1.9c7,2.1,14.1,4.3,19.6,8.6c1.6,1.2,9.3,7.5,9.3,20c0,6.5-2.6,29-37.5,29
		c-16.1,0-38.9-3.9-37.7-31.7h17.1c-0.4,7.5,0.4,20.9,22,20.9c2.6,0,19.1,0,19.1-15.2c0-11.9-10.1-14.8-19.9-17.5L2074.9,1704.5
		L2074.9,1704.5z M2139.2,1749.2h20.3v-18.6h-20.3V1749.2z M1140,454.6c-0.1,2.3-1.9,6.5-4.1,11.7c-0.8,1.8-1.1,2.4-1.4,3.3
		c0,0,5.6,9.1,7.9,12.2c2.3,3,4.4,6.1,6.3,9.3c4.6,7.7,9.8,14.8,14,20.5c1.9,2.7,3.7,5,4.8,6.8c4.5,6.6,13.9,19.7,13.9,19.7
		c0.1,0,9.7,3.8,14.8,5.9c7.8,3.4,15.7,7.9,24,12.8l7.5,4.3c3.8,2.2,18.3,11.8,18.3,11.8c1,0,24.1-0.9,33.3-0.2
		c10,0.8,25,4.2,34.5,9.7c10.4,6,17.4,14.5,18.9,22.7c1,5.9-2.1,12.7-5.9,16.6l-4.7,3.4l0.8-4.7c1.7-9-7-16.6-14.5-20
		c-12.4-5.6-27.2-8.4-42.8-8.1c-5.2,0.1-28.3-0.1-29.3-0.1h-0.5l-0.4-0.2c-0.1-0.1-15.8-8.8-20.6-11.3c-3.4-1.7-7.7-4.3-12.3-7.1
		c-6.2-3.9-12.6-7.4-19.2-10.6c-4.3-2-16.9-9.5-17.5-9.8l-0.1-0.1l-0.1-0.1c-2.9-2.6-5.6-5.4-8.1-8.4l-19.2-25.3
		c-14.3-18.8-37.7-50-37.7-50l2.4-0.6c10.9-2.9,30.7-12.2,33.9-15.5l3.2-3.4L1140,454.6L1140,454.6z"/>
	<path  className="st0" d="M1194.1,419.5c1,6.1-0.9,14-0.9,14c4,6.8,10.1,14.7,16.6,23.1c8.4,10.8,17.9,23.2,24.8,35.7
		c2.4,4.6,5.6,9.8,5.6,9.8c0.7,0.2,17,5.6,20.4,7c9.3,3.6,20,9.9,26.3,13.7l2.8,1.6l16.1,9.6c1,0.1,24.8,2.5,33.8,4.9
		c12.9,3.5,23,7.7,32.2,17.1c12.3,12.5,10.1,23.6,8.4,29.6c-2.5,9.3-8.9,17.1-17.7,21.2c9.9-11.3,5.7-26.4,2.5-30.4
		c-8.7-10.5-19.5-16-40.3-20.3l0.2,0l-30.5-3.1l-0.3,0l-0.3-0.2c-0.1-0.1-13.7-8.1-18.8-11.3c-7-4.4-22.5-11.3-33.5-15.9l-16.6-6.8
		l-0.4-0.2l-0.3-0.4c-0.1-0.1-5.9-8.3-7.8-10.7c-15.9-21.3-49.7-68.5-49.7-68.5l1.7-0.9c7.5-4,18.6-13.1,22.3-19.3l2.4-4.1
		L1194.1,419.5L1194.1,419.5z M1240.7,365.1l2,7.8c1.1,7.4,0.9,13.7-0.5,18.7c0,0,26.6,42,31,50c3.4,6.2,8.9,15.3,8.9,15.4
		c0,0,10,3.7,14.9,6.5l4.9,2.9c7.5,4.4,13.9,8.2,18.2,11.3c4.3,3.1,14.8,10.1,14.8,10.1c0.7,0.2,17.9,3,20.9,3.7
		c9,2,16.1,5.2,23.2,9c10.8,5.9,20.3,18.6,20.2,30.7c-0.2,18.5-10.8,23.9-11.3,24.2c7-16.5-3.7-28.9-10.2-33.4
		c-6.8-4.7-16.7-8.3-31-11.5c-8.9-2.1-20.3-3.5-20.5-3.5l-0.4,0l-0.3-0.2c-0.1,0-13.6-9.2-16.7-11.3c-7.3-4.7-14.4-8.7-20.7-12.4
		l-4-2.3l-16.1-9.2l-0.3-0.2l-0.2-0.3c-2.7-3.5-5.4-7.1-7.9-10.8l-2.5-3.8c-9.6-14.5-39.8-58.7-39.8-58.7l1.6-1
		c11.1-6.9,19.2-19.5,20.4-24.2L1240.7,365.1L1240.7,365.1z"/>
	<path  className="st0" d="M1327.8,0.1c33.6,6.3,65.7,15.1,96,25.9l-2.4,2c-9.6,8.4-22.5,22.6-36.3,37.6c-20.6,22.4-43.9,47.8-55,52.4
		c-25.8,10.6-52.1,35.9-62.6,60.2c-3.7,8.7-6.5,16.1-8.7,22.8c-7.5-23.5-17.5-43.6-32.8-62.1c-14.5-17.7-32.2-30.7-54.5-40
		c-0.5-0.5-53.3-49.8-77-69.1c-2.2-1.8-4.5-3.5-6.7-5.1c29.9-10.5,60.5-18.7,91.7-24.5C941.2,24.1,760.6,187.8,760.6,380.2
		c0,212.3,221.1,384.3,493.8,384.3c272.7,0,493.8-172.1,493.8-384.3C1748.2,187.3,1564.7,23.6,1327.8,0.1z M1079.1,44
		c8.9,8.8,15.5,14.6,20.8,19.3c4.6,4.1,8.2,7.5,12,11.2c7.7,7.4,11.7,13.3,10.7,16.9c-0.3,1.4-1.7,1.2-4.3,2.2l-3.1,1.1l-0.8,6.5
		l2.9-0.1c28.3-0.7,54.5,18.5,71.4,34.7c29.4,28.2,51.6,73.9,56.5,116.6c2.9,25.2,5.6,36.9,7.8,46.3c1.4,5.8,2.5,10.8,3.5,17.6
		c3.3,25,6.2,42.1,11.2,54.9c1.7,4.6,5.3,11.8,8.4,18.2c2.2,4.6,4.4,8.9,5.4,11.4c3.4,7.9,8.2,14.6,8.3,14.9l0.2,0.2l0.2,0.1
		c0.1,0.1,7.5,5.8,11.3,9c4.2,3.6,11.3,11.4,16.6,17.1l4.8,5.2l7.2,7.5l0.3,0.3l18,4.4c17,4,38.2,13,39.1,27.6v3.8l3-4.7
		c3.3-6.7,3.7-12.9,0.8-19.3c-5-11.1-17.3-20.1-37-25.5l-14.5-4.1c0,0-4.6-6.8-7.3-9.8c-0.6-0.6-1.3-1.5-2.2-2.5
		c-3.6-4.2-9.7-11.2-17.2-17.2c-3-2.3-5.7-5-8.1-7.9c-1.9-6.7-4.4-13.2-7.2-19.6c-3.9-8.1-7.3-16.4-10.2-24.8
		c-2.6-7.9-4.4-20.4-6.7-37.6l-1.6-11.4c-2.3-16.7-4.9-33.3-7.7-49.9c0.6-3.2,1.2-6.6,1.8-10.4c3.4-19.1,10.4-40,20.7-62.1
		c12.7-27.2,39.2-45,39.5-45.1c19.8-12.4,48.4-19.1,63.6-21.9c4.5-0.5,6.3-2.6,7.5-6.5c0,0-18.5-3.2-20.3-7.3c-1-2.3,0.1-5.7,3.1-10
		c5.6-5.3,12.5-12.2,19.7-19.5c12.9-12.9,27.6-27.6,38.9-37.6l0,0l0.1-0.1c0.3-0.3,0.6-0.6,0.8-0.9
		c63.9,26.2,118.9,62.4,161.5,106.4c-9.2,6.4-17.4,12.1-20.1,14.1c-16.1,11.1-32.3,15.4-42.6,11.3l-1.1-0.4
		c-4.9-1.8-9.5-4.5-13.5-7.8l-0.5-0.4l-2.3-1l-3.9-0.4l-4.2,0.9l2.5,3c9.3,11,14.1,20.5,20.7,33.6l3.6,7.1c1.9,3.6,3.3,7.5,4.6,10.9
		c0.6,1.6,1.2,3.1,1.8,4.5c1,2.4,2,5.3,3.1,8.3c1.1,3.3,2.4,6.7,3.6,9.9c3.4,9.2,6.3,19.5,10.3,36.7c8.7,37,13.1,67.6,13.5,93.9v0.2
		c0.1,1.2-0.1,2.4-0.5,3.5l-9.2,26.1c-12.9,36.3-30.6,86.1-34.3,105.7c-0.4,2-1.1,2.9-1,2.8c-33.1,34.8-56.8,76-66.9,100.6
		c-1.4,3-2.9,4.6-4.3,4.8c-2.4,0.4-5.8-2.7-9-5.7c-8.7-7.9-13.9-24.2-13.3-41.4c0.8-20.9,9.8-39.7,24.8-51.5
		c1.5-1.1,0.8-3.4,0.4-5.4c-0.1-0.3-0.1-0.7-0.2-0.8c-4.2-23.7,2.6-59.6,17.6-70.2l1.8-1.3l-1.8-1.4
		c-41.2-32.5-61.4-91.9-63.2-136.4l-0.1-3.2l-4,1.8l-2.5,3.6c-5,29.1,1,61,4.1,73.9c10,42.4,36.6,67.9,36.2,68.2
		c-10.4,11.1-13.1,49.7-10.4,66c0,0,0,0.2,0.4-0.1c0,0-0.1,0-0.2,0.1c-19.5,16.5-24.7,37.6-25.5,52.4c-0.4,5.2-0.1,10.5,0.5,15.7
		c-4.1,5.6-7.9,10.8-11.4,15.7c-18.1,25.4-30,42.1-61.6,56.8c-40.9,19-120.6,27.3-139.3,22.9c-8-1.8-13.7-5.9-15.2-10.9
		c-0.9-3-0.2-6.2,1.9-9.2c1.8-1.7,3.3-3.3,4.8-4.9c40.7,4.7,82.8,1,97.3-6.7l4.7-9c-34.9,8.9-107.7-3.5-141.1-17.8
		c-39.5-17-51.6-33-83.7-75.8l-8.8-11.7c-0.5-12.1-3.7-23.9-9.3-34.5c-6.1-11-15-17.4-15-17.4c6.3-16.5,5.2-53.1-3.8-65.5
		c32.4-25.3,42.1-51.1,31.6-83.5l-0.9-1l-3.5-1.6l-2.8-1.4l0.3,3.1c3.7,38.3-31.3,63-54.5,79.3l-4.5,3.3l2.1,1.4
		c18.7,11.7,19.1,49.6,14.9,72.2l-0.2,1.2l1,0.7c4.3,2.4,8.1,5.7,9.3,7.6c18.4,24.9,16.8,63.6-3.5,86.4c-2.4,2.7-5.9,5.8-8.9,5.2
		c-3.8-0.8-6.3-7.9-7.3-11l-0.1-0.1l0-0.1l-5.4-11.3c-15.2-32-28.3-59.6-58.7-96.5c-0.7-1.2-1.1-2.5-1.2-3.9
		c-5.9-48.8-13.5-84.6-20.8-119.2l-3.5-16.8c-0.5-2.4-0.6-5.1-0.6-5.1c2.2-36.8,13.5-65.5,26.6-98.8l7.9-20.6c0.9-2.3,6.5-16,6.5-16
		l1.4-2.4c8.5-12.2,18.9-23,30.9-31.9l3.2-2.4l-4.5-1.8l-6-1.4c-6.9,0.9-16,5.8-23.5,9.2c-11.4,5.3-23.3,10.8-32.8,7
		c0,0-12.2-7.5-20-12c-3.9-2.3-7.9-4.7-11.7-7c43.3-43.5,99-79.2,163.4-104.6C1071,35.9,1074.6,39.6,1079.1,44L1079.1,44z
		 M1181.1,640.9l-0.3,1.2c-3.8,2.6-8,4.5-12.6,5.3c-16.9,2.8-26.8,2.9-33.3-4.6c-3.7-4.2-4.2-10.3-1.7-18.3c0.3-0.1,0.5-0.3,0.8-0.4
		c3.8,2.2,7.6,4.2,11.4,5.9C1155.9,634.7,1168.2,638.3,1181.1,640.9L1181.1,640.9z M1117.9,612.9c-2.8,0.9-5.8,1.5-8.7,1.8
		c-9.3,0.4-16.6-5.2-18.7-9.7c-2.3-4.8-1.5-10.5-0.4-17.1C1099.5,597.7,1108.8,605.9,1117.9,612.9z M1254.5,748.6
		c-249,0-450.9-168.4-450.9-376.2c0-82.1,30.3-155.9,82.9-216.4c7.1,5.4,12.5,9,12.9,9.2l36.6,30.6c-4.3,13.1-9,26.1-14,39
		c-11.4,29.1-23.3,59.1-23.9,82.7c-0.1,1.4,0,2.7,0.2,4.1c2.4,15.7,6.5,35.7,10.8,56.9c6,29.6,12.3,60.2,14.7,82.8
		c0.8,7.4,2.8,9.7,4,10.5c15.8,16.6,41,49.4,71.2,111.9c1.5,3,1.7,3.5,1.7,3.4c2.3,8.4,5.6,13.6,10.4,16.3c5.2,2.9,12,2.8,21.5-0.1
		l0.2-0.1l0.2-0.1c15.4-10.3,27-25.4,33-43c4.6,5.8,9.2,11.3,13.6,16.5c-4,10.4-7.1,25.7-1.6,37.6c3.9,8.3,11.4,13.7,21.9,15.5
		c5.5,0.9,10.9,0.9,16.4,0.1c-2.7,7.9-1.8,16.8,2.6,23.9c3.6,5.8,11.2,13.2,26.7,15.2c10.4,1.3,20.1-0.5,28.7-4
		c3.3,18.1,16.6,22.7,30.1,25.7c15,3.4,31.4,3.5,60.5,0.8c41.2-4,85.8-18.1,99.2-24.9c37.3-18.8,46.6-31.7,63.5-55.4
		c1.6-2.1,3.3-4.5,5-6.8c3.5,7,7.8,13.6,12.9,19.1c10.5,10.4,20.1,15.1,28,13.7c5.4-0.9,9.6-4.6,12.6-11
		c15.3-37.3,48.7-83.1,74.9-113.5c1-1.3,1.7-2.8,2.2-4.3c5.5-21.5,25-73.7,36.7-104.8l7.8-20.9c1.1-3.2,1.6-5.1,1.6-5.3
		c2.8-45.1-2.5-90.2-14.8-127c-4-12.1-9.3-23.7-15.5-34.8c-1.4-2.5-4.6-8.4-4.7-8.6c0-0.1-0.2-0.3-0.2-0.4v-0.1
		c7.7-12.6,28.7-26.8,47.2-39.4l6.2-4.2c49.4,59.2,77.8,130.6,77.8,209.8C1705.4,580.2,1503.6,748.6,1254.5,748.6L1254.5,748.6z"/>
</g>
</svg>
