 <svg viewBox="0 0 2500 1307">
<path  className="st0" d="M2423.5,309.1v553h-336.3c0,0-416.9-5.4-416.9-423.4c0,0-7.6-153.5,135-296.1C1947.8,0,2094.8,14.2,2094.8,14.2
	s106.7-7.6,203.6,39.2c0,0,116.5,57.7,116.5,155.7c0,0-2.2,93.6-91.4,93.6c-89.3,0-92.5-89.3-92.5-89.3s1.1-93.6,92.5-93.6
	c0,0,14.1,0,19.6,2.2c0,0-16.3-26.1-80.6-26.1c-49,0-145.9,41.4-145.9,162.2c0,0,3.3,151.3,164.4,151.3
	C2280.9,409.3,2378.9,416.9,2423.5,309.1 M2476.9,961.9c0-21.9-17.8-39.7-39.7-39.7c-21.9,0-39.7,17.8-39.7,39.7
	c0,21.9,17.8,39.7,39.7,39.7C2459.1,1001.6,2476.9,983.8,2476.9,961.9 M2485.1,961.9c0,26.4-21.4,47.9-47.9,47.9
	c-26.5,0-47.9-21.4-47.9-47.9c0-26.4,21.4-47.9,47.9-47.9C2463.7,914,2485.1,935.4,2485.1,961.9 M261.2,1305H105.7
	c0,2-90.8-7.9-90.8-135c0-127.1,90.6-123.1,90.6-123.1l154.8-0.8c0,0,18.5,1.1,18.5,26c0,28.6-18.6,28.5-18.6,28.5H117.7
	c0,0-42.9-2.4-42.4,62.6c0.3,40.1,0,20.5,0,20.5s5.1,63.3,45.9,66h139.9c0,0,17.7,0.6,17.7,28.1C278.9,1305,261.2,1305,261.2,1305
	 M361.9,1100.1h198.6c14.5,0.3,11,13,11,13v119.6c0,17.9-22.3,17.6-22.3,17.6H402c-32.6,0-33-30-33-30c0-32.8,33-30.1,33-30.1h136.4
	c0,0,16.8,0,16.8-26.4c0-27.9-16.8-28.5-16.8-28.5s-108.7-0.2-165.8,0.1c-76.7,0.4-76.7,83.8-76.7,83.8c0,84.7,76,86,76,86
	s200.7-0.2,235.2-0.2c33,0,31-32.5,31-32.5v-180.2c0-48.3-41.8-45.3-41.8-45.3l-234.8-0.1c0,0-20.4,0.6-20.6,26.7
	C340.6,1100.8,361.9,1100.1,361.9,1100.1 M685.2,1068.3c0,0,2-22.3,32.5-22.3c30.5,0,32.5,21.3,32.5,21.3v211.1
	c0,0-0.1,25.6-31.6,25.6c-32.8,0-33.4-25.6-33.4-25.6V1068.3z M765.4,1060c-0.1-1.7,1.2-2.1,1.2-2.1s27.9-11.8,74.2-11.8
	s101.4,14.8,102.4,85.7c0,0-1.7,37-11.9,50.2c0,0-0.6,1.6-1.7,1.4c-4.5-0.6-38.3-11.2-51.5-17.7c-1.6-0.8-0.9-1.9-0.9-2.5
	c0,0,13.8-32.5-4.9-56.1c-17.9-22.7-81.7-17.5-94.9-9.9c0,0-1.5,0.7-2.3-1.2C773.5,1091.9,765.6,1065.1,765.4,1060 M985.2,1010.5
	c0,0,0.3-22,33.6-21.9c32,0,32.8,21.9,32.8,21.9v271.4c0,0-0.5,23.1-32.8,23.1c-33.2,0-33.7-22.6-33.7-22.6V1010.5z M1062.3,1064.4
	c0,0-0.4-0.9,4.2-3.7c0,0,14.3-10.7,76.8-13.3c63.6,0.1,125,21.4,125,120.3c0,0-4.7,72.7-28.1,127.9c0,0-1.6,7.8-10.9,7.8h-53.1
	c0,0-13,2.6-7.8-8.9c5.2-11.4,34.4-80,34.4-118.5c0-37.2-10.4-79.7-84.4-79.7c0,0-25.1-0.1-42.7,8.9c0,0-7.8,4.2-9.4-2.6
	C1064.6,1095.9,1060.7,1073.8,1062.3,1064.4 M2018.7,1013.7c0,0,0.1-24.9,28.9-25.1c28.2-0.2,29.2,25.1,29.2,25.1v33.2h75
	c0,0,17.1,0.4,17.1,26.7c0,26-16.6,26.5-16.6,26.5h-75.5v178.7c0,0-1,26.3-29.2,26.3c-28.8,0-29.2-26.3-29.2-26.3v-178.5h-32.4
	c0,0-16.3-0.3-16.3-26.7c0-26.4,15.9-27.3,15.9-27.3l33.1,0.6V1013.7z M2258.3,1013.7c0,0,0.1-24.9,28.9-25.1
	c28.1-0.2,29.2,25.1,29.2,25.1v32.8h82.3c0,0,22.5-0.4,22.5,26.7c0,26.3-22,26.9-22,26.9h-82.9v178.7c0,0-1,26.3-29.2,26.3
	c-28.8,0-29.2-26.3-29.2-26.3v-178.4h-32.4c0,0-16.4-0.4-16.4-27.3c0-26,15.9-26.8,15.9-26.8l33.1,0.6L2258.3,1013.7z
	 M1680.6,1068.3c0,0,2-22.3,32.5-22.3c30.5,0,32.5,21.3,32.5,21.3v211.1c0,0-0.1,25.6-31.6,25.6c-32.8,0-33.4-25.6-33.4-25.6V1068.3
	z M1760.8,1060c-0.1-1.7,1.2-2.1,1.2-2.1s27.9-11.8,74.2-11.8c46.3,0,101.5,14.8,102.4,85.7c0,0-1.7,37-11.9,50.2
	c0,0-0.6,1.6-1.7,1.4c-4.5-0.6-38.2-11.2-51.5-17.7c-1.6-0.8-0.9-1.9-0.9-2.5c0,0,13.8-32.5-4.9-56.1c-17.9-22.7-81.7-17.5-94.9-9.9
	c0,0-1.5,0.7-2.3-1.2C1768.9,1091.9,1761,1065.1,1760.8,1060 M1356.8,1100.1h198.7c14.5,0.3,11,13,11,13v119.6
	c0,17.9-22.3,17.6-22.3,17.6h-147.3c-32.6,0-33-30-33-30c0-32.8,33-30.1,33-30.1h136.4c0,0,16.8,0,16.8-26.4
	c0-27.9-16.8-28.5-16.8-28.5s-108.7-0.2-165.8,0.1c-76.7,0.4-76.7,83.8-76.7,83.8c0,83.6,76.1,85.9,76.1,85.9s200.6-0.1,235.1-0.1
	c33.1,0,31-32.5,31-32.5v-180.2c0-48.3-41.8-45.3-41.8-45.3l-234.8-0.1c0,0-20.4,0.6-20.6,26.7
	C1335.4,1100.8,1356.8,1100.1,1356.8,1100.1"/>
<path  className="st0" d="M2423.5,940.2h16.9c4,0,6.9,0.8,8.7,2.5c1.8,1.6,2.8,3.7,2.8,6.2c0,1.7-0.5,3.4-1.4,4.8c-1,1.5-2.3,2.5-4.2,3.2
	c-1.8,0.7-4.4,1-7.6,1h-15.2L2423.5,940.2z M2423.5,987.9v-23.8h8.2c1.8,0,3.1,0.1,3.9,0.3c1.2,0.3,2.2,0.8,3.2,1.4
	c1.1,0.7,2.3,1.9,3.6,3.6c1.4,1.7,3,4.2,5.1,7.4l7.1,11.1h8.9l-9.3-14.6c-1.9-2.9-3.8-5.2-5.9-7.1c-1-0.9-2.4-1.8-4.3-2.7
	c5.1-0.7,8.9-2.4,11.4-5c2.5-2.6,3.7-5.8,3.7-9.6c0-2.9-0.7-5.6-2.2-8.1c-1.5-2.4-3.5-4.1-5.9-5.1c-2.5-1-6.1-1.4-10.9-1.4h-23.7
	v53.5L2423.5,987.9z"/>
</svg>
