 <svg viewBox="0 0 2500 2500" style="enable-background:new 0 0 2500 2500;"  >
<style type="text/css">
	.st0{fill-rule:evenodd;clip-rule:evenodd;fill:#FFFFFF;}
	.st1{fill-rule:evenodd;clip-rule:evenodd;fill:#898989;}
	.st2{fill:none;stroke:#FFFEF9;stroke-width:0.858;stroke-linecap:round;stroke-linejoin:round;stroke-miterlimit:2.613;}
	.st3{fill:none;stroke:#FFFFFF;stroke-width:1.286;stroke-linecap:round;stroke-linejoin:round;stroke-miterlimit:2.613;}
	.st4{fill:none;stroke:#FFFFFF;stroke-width:0.858;stroke-linecap:round;stroke-linejoin:round;stroke-miterlimit:2.613;}
</style>
<path  className="st0" d="M0,0h2500v2500H0V0z"/>
<path  className="st1" d="M143.3,1250c0,609.2,496.4,1104.8,1106.7,1104.8c610.2,0,1106.6-495.6,1106.6-1104.8S1860.2,145.2,1250,145.2
	S143.3,640.8,143.3,1250L143.3,1250z"/>
<path  className="st0" d="M160,1250c0,600,489,1088.1,1090,1088.1c601,0,1090-488.1,1090-1088.1c0-600-489-1088.1-1090-1088.1
	C649,161.9,160,650,160,1250L160,1250z"/>
<path  className="st1" d="M182.3,1250c0,587.7,479,1065.9,1067.7,1065.9S2317.7,1837.7,2317.7,1250S1838.7,184.1,1250,184.1
	C661.3,184.1,182.3,662.3,182.3,1250L182.3,1250z"/>
<path  className="st0" d="M471.5,1250c0,428.3,349.3,776.7,778.5,776.7s778.5-348.4,778.5-776.7S1679.3,473.3,1250,473.3
	C820.7,473.3,471.5,821.7,471.5,1250L471.5,1250z"/>
<path  className="st1" d="M2006.3,1250c0,416.6-338.6,754.4-756.3,754.4c-417.7,0-756.3-337.8-756.3-754.4
	c0-416.7,338.6-754.5,756.3-754.5C1667.7,495.5,2006.3,833.3,2006.3,1250L2006.3,1250z"/>
<path  className="st2" d="M1105.6,803.5c11.9,8.5,26,14.8,24.6,59.5c-0.6,20.6,3.5,72,5.9,114.9c1,18.9,13.5,40.6,13.5,40.6"/>
<path  className="st3" d="M1470.8,1711l-2.6-195.3l20.8-15.6c0,0,46.5,132.3,112.4,188.6c19.8,16.9,42.5,22.3,72.6-8.9
	c14.1-14.7,35.8-81.4,36.9-184.4c0-4.2,72.2,63.7,90.8,82.9c4.7,4.8,23.5-28.7,26.1-46.9c2.6-18.2,8.5-159.2,9.6-185.8
	c0.1-3.1,25.5,23.4,51,36.1c3.7,1.9,38.2-264.5-189.1-464.2c0,0,2.1-138.1-93.5-252.8c-68.4-82.1-185.9-115.8-252.8-119
	c-45.7-2.2-115.7,3.6-144.5,4.3c-179.5,4.3-251.2,55.9-287.1,80.2c-79.3,53.7-41.1,106.8-44.3,109.4
	c-27.4,22.4-82.9,89.8-101.6,122.4c-10.4,18.2-22.2,31.8-24.8,120.4c-1,33.8-29.9,64.6-45.5,82.8c-15.6,18.2-83.9,98.7-76.4,198.6
	c1.2,16.4,25.6,24.5,52.2,32.8c23.9,7.5,43.3,40.3,29.9,56.7c-8.7,10.6-22.1,23.7-11.9,31.3c17.9,13.4,3,38.8,13.4,53.7
	s25.4,14.9,17.9,38.8s-13.4,76.1-4.5,97c8.9,20.9,26.9,28.4,61.2,35.8s137.3,13.4,250.7-32.8 M913.4,1606.8l0.7,248.6
	c0,0,159.3-2.1,203.9-22.3l1.1-20.5"/>
<path  className="st0" d="M1171.7,1475.1c-10.1,18.2-85.8,78-154.4,101.5l6.1,14.5C1077.1,1572.1,1137.4,1536.9,1171.7,1475.1
	L1171.7,1475.1z"/>
<path  className="st2" d="M712.4,1354.3c42.5,13.9,101.7,41,103.7,53.9c2.5,16.3-39.1,33.6-46.5,39.2c-7.4,5.6-38.4,9-38.4,9"/>
<path  className="st4" d="M711.5,1407.4c5.7-1.6,102.9,0,102.9,0 M727.9,1218.8c107.8,4.1,54.7,84.9,33.5,95.5 M881.4,1457.2
	c-6.5-130.6-93.1-179.6-93.1-179.6 M672.3,1269.4c26.9-32.7,39.1,8.8,37.6,4.1 M694.4,1204.9c-21.2-83.3,52.3-131.4,51.4-129
	 M987.5,1360.9c-38.4-49.8-27.8-152.7,4.9-174.7 M918.1,1371.5c39.2,34.3-1.6,83.3-0.8,80 M727.9,1499.7
	c66.9-0.8,76.8-25.1,75.1-23.7 M817.7,807.3c26.1-7.4,65.3,1.6,65.3,1.6 M867.5,854.7c-29.4-12.2-84.1-1.6-84.1-1.6 M965.5,912.6
	c-80.8-35.9-176.4-18.8-204.9-13.1"/>
<path  className="st0" d="M802.2,960.8c-13.1,12.2-10.6,45.7,8.2,31.8c51.2-37.9,173.1,10.6,164.9,3.3C891.2,920.8,805.2,958,802.2,960.8
	z M857.7,1029.4c32.7,5.7,57.1,13.9,62,18.8s12.2,18-0.8,28.6c-13.1,10.6-62.1,21.2-62.1,21.2
	C870.8,1069.4,857.7,1029.4,857.7,1029.4z M833.2,1022.9c1.7,4-35.1,9.8-37.6,35.1c-3.6,37.6,49,50.6,46.5,44.1
	C823.2,1051.4,846.3,1053.9,833.2,1022.9z"/>
<path  className="st3" d="M872.8,737.9c29.2,0,105.5,3.3,125.1,8.4c43.1,11.1,66.1,34.9,69.5,73.7c9.7,111.2,4.2,114.4,11.1,387.9
	c32,146,146,257.2,146,257.2"/>
<path  className="st4" d="M874.2,729.6c59.8-9.7,133.3,4.6,148.8,5.6c43.1,2.8,87.6,58.4,86.2,97.3s0.1,324.2,5.6,347.6
	c37.5,161.3,108.4,233.6,126.5,253 M1303.8,1376.1c0-19.5-10.3-68.5-13.9-75.1c-37.5-68.1-41.7-108.4-23.6-134.9 M1302.4,846.4
	c-22.2,25-28,45.7-25,59c12,52.2,4.5,94,5.5,102.2c1.7,13.6-13.9,36.1-13.9,36.1 M1392.7,853.3c19.5,27.8,19.4,41.4,16.7,59.8
	c-5.6,37.5-30.2,72.6-34.4,85.1c-3.2,9.5-8.1,28.2-5.3,45.5c1.4,8.3-9,12.6-9,12.6 M1135.1,716.1c72.3,22.2,98.2,87.1,98.2,87.1
	 M1194.4,699.5c57.5,16.7,76,81.6,76,81.6 M1264.8,690.2c57.5,16.7,64.9,72.3,64.9,72.3 M1331.6,675.4
	c74.1,46.3,64.9,85.3,64.9,85.3 M1001.6,675.4c14.8,51.9,96.4,13,96.4,13 M1090.6,642c15.8,0.7,17.4-4.4,24.8-6.3
	c7.4-1.9,21.5-0.9,47.3,0c40.3,1.4,69.5-18.8,69.5-18.8 M1214.8,662.8c6.3-9,24.3-22.2,34.1-22.9c9.7-0.7,20.9-3.5,50.8-2.1
	c19.5,0.9,44.5-17.4,44.5-17.4 M1329.5,661.5c4.2-10.4,27.8-16,31.3-17.4c10.4-4.2,48.7,1.6,54.9,0c10.4-2.8,14.6-12.5,14.6-12.5"/>
<path  className="st3" d="M1136.7,1827.3c-15.1-8.2-23.4-17.9-17.9-31.6c5.5-13.7,22-26.1,28.9-33c15.7-15.7-27.3-34.2,4.1-63.2
	c17.9-16.5-2.7-48.1,12.4-70.1c9.4-13.6,23.4-20.5,23.4-27.5c0-33,24-31.4,23.4-35.7c-2.7-19.2-9.6-49.5,19.2-67.3
	c5-3.1-33-57.7,39.9-70.1c12.5-2.1,70.1,24.7,79.7,33c8,6.8,59.7,10.3,86.6,19.2c4.1,1.4,33,15.1,16.5,50.9c0,0-14.6,13.6-27.5,17.9
	c-4.1,1.4,15.1,44-17.9,67.3c0,0,6.9,23.4-24.7,67.4c-8.2,11.4,4.6,47.8-1.4,66c-4.1,12.4-45,28-66,38.5
	c-27.5,13.7-85.2,16.5-85.2,16.5C1198.6,1819,1136.7,1827.3,1136.7,1827.3L1136.7,1827.3z"/>
<path  className="st4" d="M1219.2,1507c34.4-23.4,81.1,12.4,85.2,15.1c10.8,7.2,38.5,13.7,48.1,13.7c47.4,0,74.2,26.1,74.2,26.1
	 M1198.6,1573c24.7-13.7,68.4,3.2,78.4,9.6c19.2,12.4,82.9,30.3,82.9,30.3 M1408.9,1611.5c-118.2-11-133.1,68.5-129.2,68.7
	c92.1,5.5,105.8-67.3,105.8-67.3 M1232.6,1569.4c72.6,17.8,58.8,111.4,52.3,108.4C1211.1,1643.6,1232.6,1569.4,1232.6,1569.4z
	 M1364.7,1675.4c-99.5-7.8-106.2,66.7-102.3,66.9C1354.4,1747.8,1364.7,1675.4,1364.7,1675.4z M1211,1625
	c72.6,17.8,58.8,111.4,52.3,108.4C1189.6,1699.2,1211,1625,1211,1625z M1198.8,1688.9c82.7,39.6,47.3,113.9,41,110.5
	C1163.3,1758.4,1198.8,1688.9,1198.8,1688.9z M1340.3,1735.9c-99.5-7.8-106.2,66.7-102.3,66.9
	C1330.1,1808.3,1340.3,1735.9,1340.3,1735.9z M1468.5,1193.8c-23,2.3-19.2,12.1-31,28.7c-11.5,16.1-17.2,101-40.2,98.7
	 M1403.1,1370.5c10.3-3.4,13.8-2.3,20.7-13.8s18.3-14.9,27.5-53.9c0,0,51.6-99.8,81.5-93 M1530.5,945.9c21.8,34.4,0,80.3-4.6,88.4
	c-4.6,8-3.4,33.3-5.7,26.4 M1440.9,1445.1c6.9-4.6,17-9.4,23-18.4c2.3-3.4,29.5-47.9,36.7-55.1c11.5-11.5,33.3-28.7,33.3-28.7
	 M894.7,732.4c0-23,14.3-47.6,21.8-55.1c94.1-94.1,297.2-88.8,319-88.4c321.3,5.7,414.3,197.4,414.3,197.4 M1681.9,910.9
	c0-24.4-21-44.2-47-44.2c-26,0-47.1,19.8-47.1,44.2c0,24.4,21.1,44.2,47.1,44.2C1660.9,955.1,1681.9,935.3,1681.9,910.9z
	 M1641.8,842.2c0-21.3-16.7-38.6-37.3-38.6c-20.6,0-37.3,17.3-37.3,38.6s16.7,38.6,37.3,38.6
	C1625.1,880.8,1641.8,863.5,1641.8,842.2z M1574.2,818.9c-10.2,9.1-39.2-11.2-57.8-30.7c-18.1-19-18.1-54.6-18.1-54.6
	c2.2,0.8,18.6-7.1,39.8,7.6c5.2,3.6,10.7,8.6,16.4,15.4C1583.1,790.8,1600.4,795.6,1574.2,818.9L1574.2,818.9z M1541.9,695.7
	c67.7,17.2,72.3,110.2,66.6,111.3c-15.9,3.2-70.3-65.9-70.3-65.9C1533.9,723.3,1541.9,695.7,1541.9,695.7L1541.9,695.7z
	 M1603.9,943.6c-9.2,17.2-33.3,152.6-2.3,308.7c2.8,13.9,36.7,166.4,198.5,286.9c3.9,2.9,33.3-254.8-24.1-358
	c-4.6-8.3-40.2-121.6-103.3-242.1 M1631.4,956.2c-1.1,31,9.2,50.5,9.2,50.5c2.3,9.2,21.8,49.3,25.2,82.6c0,0,6.5,41.3,8,76.9
	c1.2,26.4,40.2,96.4,41.3,97.5c6.9,6.9,21.8,24,20.7,63.1c-2.3,80.3-24.1,127.4-24.1,127.4 M1616.5,1115.7
	c-1.1-53.9,12.6-82.6,28.7-88.4 M1664.7,1080.2c17.2-3.4,36.7,13.8,36.7,13.8l33.3,34.4c0,0,2.5,9.4,24.1,6.9 M1630.3,1337.2
	c6.9-5.7,13.8-3.4,12.6-21.8c-1.1-18.4-10.3-62-4.6-97.5c2.3-14,14.9-40.2,32.1-47.1c8.6-3.4-0.5-20,8.1-9.2
	c34.4,43.6,81.3,77.7,92.9,87.2c25.3,20.7,26.7-2.1,26.7-2.1 M1679.6,929.8c180.2,154.9,199.7,346.6,187,407.4l-57.4-35.6
	 M1809.3,1331.5c-45.9-19.5-80.3-47.1-80.3-47.1 M1809.7,1421c-60.8-58.5-76.1-52.8-76.1-52.8 M1725.5,1415.2
	c6.9,10.3,59.7,62,79.2,63.1 M1721.2,1272.4c-2.3,5.7-32.4,44.1-32.4,51c0,6.9-6.9,55.1-6.9,63.1s-6.9,18.4-6.9,18.4 M1647.5,1375.1
	c-80.3,58.5-123.3,76.1-125.1,81.5c-2.3,6.9-14.9,31-6.9,51.6c36.4,93.7,88.1,151.5,94.1,157.2c21.8,20.7,37.2,8.3,41.3,2.3
	c45.9-66.6,38.4-228.6,38.4-234.3 M1690.2,1486.4c-52.8-5.7-93.2-73.5-93.2-73.5 M1683.2,1563.4c-18.4,4.6-94.2-88.5-94.2-98.8
	s-2.3-45.9-2.3-45.9 M1547.9,1576.7c5.7-6.9,9-29.5,9-29.5c-5.7-21.8,1.3-43.2,3.4-51.6c4.6-18.4,25.3-27.5,25.3-27.5
	 M1592.9,1644.8c3.4-6.9,2.9-16.1,5.2-26.4c2.3-10.3,7.4-32.7,12.6-37.9c12.6-12.6,14-64.9,14-64.9 M1655.7,1662.5
	c-33.3-18.4-30.1-69.3-31.2-77.4c-1.1-8-2.3-36.7-2.3-36.7 M1178,1819.8c-5.5-15-9.6-62.9,0-60.1c9.6,2.7,46.5,39.6,46.5,39.6"/>
<path  className="st2" d="M1219.1,1209.9c-7.8-17-13.5-37.3-13.5-37.3c-1.2-140.5-10.8-153.1-13.8-162.1c-14-41.9-55.7-49.5-55.7-49.5"/>
<path  className="st0" d="M1263.9,1666.9l7,37.8l27.3-19.6L1263.9,1666.9L1263.9,1666.9z M1250.6,1727.1l9.8,8.4l8.4,15.4l-14.7,8.4
	l-6.3-24.5L1250.6,1727.1z"/>
<path  className="st3" d="M1470.8,1711c-3.9,26.6-89.4,39.3-89.4,39.3"/>
<path  className="st0" d="M1193.7,1686l2.7-4.6l4.9,2.3l0.4,6.5l-6.9,2.7L1193.7,1686L1193.7,1686z M1205.5,1623l1.1-5.3l5.3,1.5l1.9,5.3
	l-3.1,5L1205.5,1623z M1339.5,1729.9l7.6,1.2l-1.5,5.7l-6.1,0.8V1729.9z M1362,1669.6l8.4,1.1l-0.4,5.7l-7.3,0.4L1362,1669.6
	L1362,1669.6z M600,1786c-25.7-0.4-52.7,11.6-80.1,35.7c-20.7,18.2-34.5,37-40.9,55.8c-6.4,18.6-7.7,35.1-4,49.2
	c3.8,14.5,13,30.3,27.5,46.7c11.7,13.4,23.4,22.6,34.8,27.3c11.2,4.7,23.4,6.4,36.2,5c10.5-1.1,21.8-5.1,33.3-10.5l-15.4-36.2
	c-10.6,4.9-20.3,7.4-29.6,7.6c-13.7,0.3-26.1-5.8-36.9-18c-11.1-12.6-15.2-27.3-11.9-42.7c3.1-14.6,15.3-31,37.2-50.3
	c17.8-15.7,33.2-24.4,47-26.7c19.2-3.4,36,2.3,48.6,16.7c5.7,6.5,9.4,13.8,11.1,21.8c1.7,8,1.4,16.4-0.8,24.3
	c-0.9,3.2-2.2,6.4-3.8,9.3l31.9,22.4c8.5-16.4,12.6-32.1,11.7-46.5c-1.1-17.3-9.9-35.5-26.4-54.2
	C648.4,1798.4,625.6,1786.4,600,1786L600,1786z M890.5,1986l-42.9,71.9l-79.2-47.2l42.9-71.9l-37.1-22.2l-111.1,186.3l37.1,22.2
	l49.5-83l79.2,47.2l-49.5,83l37.4,22.3L928,2008.3L890.5,1986L890.5,1986z M988.1,2026.9l-69.6,205.4l43.1,14.6l69.6-205.4
	L988.1,2026.9z M1108.2,2086.4c-19,17.3-30.4,44.6-33.9,80.9c-2.6,27.5,0.2,50.5,8.4,68.6c8.1,17.9,18.5,30.9,30.8,38.6
	c12.7,8,30.2,13.1,52,15.2c17.7,1.7,32.5,0.4,44.1-4c11.4-4.3,21.4-11.4,29.8-21.2c6.9-8,12.4-18.6,17.1-30.5l-36-15.8
	c-4.4,10.8-9.8,19.3-16.3,25.8c-9.8,9.6-23,13.7-39.2,12.2c-16.7-1.6-29.8-9.5-37.9-22.9c-7.8-12.7-10.2-33.1-7.4-62.2
	c2.3-23.6,7.5-40.5,15.9-51.7c11.6-15.6,27.8-23,46.8-21.1c8.3,0.7,16.2,3.5,23.1,8.2c6.7,4.7,12.2,11,16,18.2
	c1.4,2.5,2.6,5.7,3.6,9.4l38.6-5.6c-5.1-17.8-12.8-32-23.4-41.9c-12.6-11.8-31.6-19.1-56.4-21.4
	C1151.9,2062.2,1127.1,2069.1,1108.2,2086.4L1108.2,2086.4z M1386.9,2060.8l-27.7,227.6l44-9.3c0.6-10.7,2.2-41,2.2-41l91.7-19.5
	c0,0,14,27,18.9,36.5l45.7-9.7l-117.8-196.7L1386.9,2060.8L1386.9,2060.8z M1414.3,2194.3l11-89.5l50.4,78.4L1414.3,2194.3z
	 M1603.4,1996.5c-10.9,15.9-16.1,33.1-15.9,52.6c0.3,19.8,6.1,40.7,17.3,62.2c10.7,20.4,24,36.7,39.5,48.4
	c15.2,11.5,30.8,17.5,47.7,18.4c16.9,0.9,36.1-4.3,57.2-15.4c17.5-9.2,31.5-19.4,41.7-30.3c9.5-10.1,19-25.1,28.4-44l-39.6-75.5
	c-13.8,7.3-58.8,30.9-72.6,38.1l12.8,24.3c11.2-5.9,40-21,40-21l18.5,35.2l-2.9,5.2c-5.7,10.2-11.1,18-16.8,24.1
	c-5.9,6.3-12.8,11.5-20.5,15.5c-17.2,9-34.1,10-50.4,2.9c-15.6-6.8-29.7-22.5-43-47.9c-12.6-24.1-17.3-43.9-14.3-60.6
	c3.2-17.5,13-30.7,29.2-39.2c10.9-5.7,21.6-7.8,31.9-6.2c7.1,1.1,13.6,4.5,19.7,8.9l35.2-28.2c-6.9-6.2-13.9-11.5-21.1-14.7
	c-9.7-4.4-20.4-6.1-31-4.9c-11.4,1.2-27.3,7.1-47.3,17.6C1626.6,1972.8,1611.9,1984.4,1603.4,1996.5L1603.4,1996.5z M1810.2,1880.4
	L1810.2,1880.4c-0.1,26.5,12.2,53.4,36.4,80.1c17.5,19.2,35.5,32.2,53.6,38.5c17.7,6.2,34.6,7.4,50.1,3.5
	c15.9-4,32.5-13.8,49.2-29.1c16.3-14.9,27-30.6,31.7-46.8c4.8-16.4,4.6-32.6-0.5-49.7c-5.2-17.3-16.7-35.9-34.3-55.3
	c-23.8-26.2-49.1-40.7-75.1-43c-25.9-2.3-50.6,7.5-75.4,30C1822,1830.4,1810.2,1853.9,1810.2,1880.4L1810.2,1880.4z M1880.3,1930.3
	c-18.3-20.1-27.8-37.7-28.9-53.8c-1.2-16.9,4.6-31.3,17.3-42.9c13.1-11.9,28.2-16.7,44.8-14c15.9,2.5,31.9,12.9,49,31.7
	c19.9,21.9,30.2,40.2,31.5,55.9c1.3,16.6-4.8,31.2-18.2,43.4c-13.1,11.9-28.2,16.5-44.9,13.6
	C1914.9,1961.3,1898.4,1950.3,1880.3,1930.3z M220.3,1206.1l221,25.7l12.5-107.7c0.4-3.1,0.7-10.7,0.2-29.3c-0.3-12.8-2.3-19.6-4-23
	c-4-8.5-10.3-15.7-18.1-21c-8-5.6-17.6-9-28.5-10.3c-13.2-1.5-24.6,0.4-33.8,5.6c-9.1,5.2-16.3,14.6-21.5,27.8l-9.5,24.3l-6.4-25.3
	c-2.3-9.2-6-16.4-11-21.5c-7.8-7.9-17.6-12.4-29.8-13.8c-14.6-1.7-27,1.6-38,10.2c-10.9,8.6-17.3,21.9-19.5,40.7L220.3,1206.1
	L220.3,1206.1z M311.2,1164.9l-53.5-6.2l4.4-38c1.5-12.5,5.1-21.1,11.3-26.2c6.2-5.1,14-7.2,23.3-6.2c9.8,1.1,17.2,5,22.1,11.4
	c4.9,6.4,6.5,15.8,5.1,28.6l-4.4,37.5L311.2,1164.9L311.2,1164.9z M404.4,1175.7l-56.3-6.5l4.9-42.4c1.6-14,5.6-23.6,12-29.3
	c6.6-5.8,14.8-8.2,24.2-7.1c9.9,1.2,17.6,5.4,22.9,12.5c5.3,7.1,7.1,17.3,5.4,31.2l-5,42.6L404.4,1175.7L404.4,1175.7z M282.2,902.7
	L480,991.6L541.9,854l-33.3-15l-43.3,96.4l-164.5-74L282.2,902.7L282.2,902.7z M651.3,452.5c-3,25.5,6.3,53.6,27.5,83.3
	c16,22.5,33.3,38,51.4,46.3c17.8,8.2,34.2,11.2,48.6,8.9c14.9-2.3,31.4-9.9,49.3-22.7c14.5-10.3,24.8-21.1,30.7-31.9
	c5.8-10.7,8.7-22.6,8.6-35.6c-0.1-10.5-2.9-22.2-7.1-34.2l-37.6,11.7c3.8,11.1,5.3,21,4.6,30.2c-1.1,13.7-8.4,25.4-21.6,34.9
	c-13.6,9.7-28.7,12.3-43.7,7.6c-14.2-4.5-29.4-18.3-46.3-42.1c-13.8-19.3-20.9-35.5-21.9-49.4c-1.5-19.4,5.9-35.6,21.5-46.7
	c6.7-4.9,14.6-8,22.8-8.9c8.2-0.8,16.4,0.3,24,3.3c2.7,1,5.7,2.6,8.9,4.7l25.5-29.5c-15.5-10.1-30.6-15.8-45.1-16.3
	c-17.3-0.7-36.3,6.3-56.6,20.8C668.5,405.6,654.3,427,651.3,452.5L651.3,452.5z M1015.6,248.8c-4,9-59.2,115.2-59.2,115.2
	s-24.6-73.1-28.8-89.7c-12.1,3.1-32.4,9.3-44.4,12.3c4.8,18.6,55.3,196.9,60,215.5c12.1-3.1,35.7-6,47.7-9
	c-3.6-14.1-16.5-66.6-16.5-66.6l23-44.4c0,0,79.4,72.7,87.2,82.3c8.6-2.2,39.7-9,59.2-14c-20.7-21.7-123.4-111.9-123.4-111.9
	s40.9-79.2,55.1-106.9C1052.6,237.4,1022.1,247.1,1015.6,248.8L1015.6,248.8z M1463.8,247.5l-12.9,82.8l-95.1-14.9l12.9-82.8
	c-12.3-1.9-32.3-5.1-44.6-7c-3,19-30.5,195.3-33.5,214.3l44.6,7l14.9-95.5l95.1,14.9l-14.9,95.5l45,7l33.5-214.3
	C1496.4,252.6,1476.1,249.4,1463.8,247.5L1463.8,247.5z M2055.6,596.7c-13.3,9.2-112.4,70.5-112.4,70.5l-19.6,11.9
	c0,0,71.7-117.5,79.6-130.5c-7.6-7.8-29.4-34.1-37-41.9c-37.6,21.5-75.3,42.9-113.1,64.2l-25.8,11.9c0,0,78.5-115.9,87.9-129.1
	c-7.2-7.3-26.7-25.8-36.3-35.6c-13,19.3-114.3,187-123.2,200.1l34,34.6c13.3-7.8,147.8-80.5,147.8-80.5s-75.5,133.6-83.5,146.8
	c7.7,7.8,27.4,27,35.4,35.2c13.3-8.7,180.7-109.3,200.2-122C2080.1,622.5,2062.7,604,2055.6,596.7L2055.6,596.7z M444.5,620.1
	L563,816.4l28.9-34.5l-23.5-33.6l60.2-71.9l37.4,17.1l30-35.8c-24.7-9.5-201-77.2-214-82.3L444.5,620.1z M548.4,708.3l-46.5-77.2
	l88,30.7L548.4,708.3L548.4,708.3z M1683.5,317.3l-164.6,161.4c14,7.2,31.4,16.2,40.1,20.6c7.1-8,27.5-30.8,27.5-30.8l83.5,43
	c0,0-6.1,30.1-8.2,40.7l41.6,21.4l32-229.5L1683.5,317.3z M1620.9,439.7l64.7-63.4l-10.1,93.7L1620.9,439.7L1620.9,439.7z
	 M2203.4,848.6c-9.5-2.3-123.8-38.1-123.8-38.1s67.6-37,83.2-44.1c-5.1-11.3-14.8-30.2-20-41.6c-17.5,8-184.1,89.1-201.6,97
	c5.1,11.3,12.1,34,17.3,45.4c13.2-6,62.7-27.9,62.7-27.9l47.8,14.9c0,0-57.7,90.9-65.7,100.3c3.7,8.1,15.9,37.5,24.2,55.8
	c17.7-24.2,88.4-141.1,88.4-141.1s85.1,26.3,115,35.5C2221.1,883,2206.2,854.7,2203.4,848.6L2203.4,848.6z M2257.5,1050.2
	c-6.5-10.5-14.4-17.8-24-22.2c-9.3-4.4-19.7-6.1-29.9-5c-15.6,1.7-27.4,8.2-36.2,19.7c-9.4,12.3-16.1,32.8-19.8,61
	c-2.7,20.9-6.6,34.1-12.3,41.4c-6.1,7.8-14.2,12.4-23.3,13.4c-9.5,1-18.6-1.9-26.4-8.5c-7.7-6.5-12.3-16.2-13.7-28.7
	c-1.8-16.4,3.3-30.5,14.8-40.9c4.9-4.4,11.9-7.7,19.9-10.5c-1.9-10.7-5.3-29.4-7.6-42.2c-16.2,4.8-29.3,12.7-39.5,24.3
	c-11.8,13.4-15.9,37.3-12.2,71c2.1,19.3,6.9,35,14.1,46.7c7.1,11.3,16.2,19.5,28,25c11.7,5.5,24.7,7.6,37.6,6
	c11.2-1.2,20.7-4.7,29.1-10.6c8.1-5.7,14.6-14.4,19.5-25.9c5.3-12.5,9.8-33.5,13.3-62.5c1.7-14.7,4.4-23.7,8.6-29.1
	c5.4-7.4,12.4-9.6,17.2-10.2c8.2-0.9,16.3,1.7,22.4,7.2c6.2,5.4,9.9,13.6,11.1,24.2c1.3,12.3-1,22.7-6.9,30.9
	c-4.2,5.9-10.5,10.6-18.7,14.1l7.2,41.2c15.2-5.2,26.3-13,32.8-23.6c8.4-13.6,11.2-33.3,8.4-58.4
	C2268.8,1077.1,2264.2,1061,2257.5,1050.2L2257.5,1050.2z"/>
</svg>
