 <svg viewBox="0 0 2500 2500">

<g>
	<path  className="st0" d="M0,0h2500v2500H0V0z"/>
	<path  className="st1" d="M1704.1,486.1l-136,192l55-8.2l130.2-183.8H1704.1z"/>
	<path  className="st2" d="M1739.3,436.5h-653.9L974.2,896.4l145-19.6l-36.9,151.3l448.5-60.8l207-314.5l-169.6,25.3L1739.3,436.5
		L1739.3,436.5z"/>
	<path  className="st3" d="M1709.8,451.8h-612.4l-103,426.5l145-20.1l-40.9,167.7l412.2-55.9L1706.2,673L1535,698.5L1709.8,451.8
		L1709.8,451.8z"/>
	<path  className="st1" d="M2343.5,750.2c-28.4,97.7-100.1,346.3-128.1,458c-33.1,132.3-208.6,147.5-208.6,147.5l-752.4,102.2l50.8-77.2
		l-50.9,6.4L883.2,1951l-27.4,112.5l370.4-562.8l815-110.7c0,0,173.6-17.2,208.6-147.5c37.6-140.1,139.9-498.6,139.9-498.6
		L2343.5,750.2L2343.5,750.2z M967.9,1496.8l-844.2,114.7C117,1636.8,113,1652,113,1652l845-114.8L967.9,1496.8L967.9,1496.8z"/>
	<path  className="st2" d="M986.4,1421l-144.6,592.9l412.5-626.7L986.4,1421L986.4,1421z"/>
	<path  className="st3" d="M1002.6,1419l-125.1,512.9l356.9-542.3L1002.6,1419L1002.6,1419z"/>
	<path  className="st1" d="M1751.7,702.4l-51.7,7.7l-169.3,257.2l51.2-7L1751.7,702.4L1751.7,702.4z"/>
	<path  className="st3" d="M956.9,1475.3l-846.6,114.3l139-482.6c29.3-93.5,168.9-112.5,174.9-113.3l665.1-90.5l-0.7,7.8l-663.4,90.3
		c-1.4,0.2-140.7,19.1-168.5,107.9l-135.7,471.3l836.1-112.8V1475.3L956.9,1475.3z M1291.7,1422.4l661.2-89.2
		c-0.6,0.7,202.3-16.9,234.8-128.8l124.4-459.9l-629.5,85.7l1.9-8l637.9-86.8L2195,1206.4c-33.4,117.9-242.8,134.5-241.9,134.5
		l-666,89.9L1291.7,1422.4L1291.7,1422.4z"/>
	<path  className="st1" d="M563.3,1237.6l-139.2,16.3l-18.5,62.9l29.2-3.8l-21.9,81.3l-0.1,0.3l0,0.3c-1.6,10.5-11.2,28.4-36.5,28.4
		c-7.8,0-13.2-2.1-16.1-6.4c-5.9-8.7,0.2-24.2,4.6-35.4c1.2-3.1,2.3-5.7,2.9-7.8c23.7-82.5,47.4-165.1,71.1-247.7
		c1.9-8.5,11.1-23.9,32.8-23.9c7.2,0,12.3,1.9,15.1,5.8c1.3,2.5,2.4,15.5-15,80.6l-2.7,10.1l109.9-15l0.9-3
		c4.3-14.9,18.4-64.2,20.6-73.9c0.9-4.2,4.9-26.2-10.5-43.6c-16.6-18.7-50.9-26.1-99.1-21.4c-96.2,9.5-147.4,40.2-165.8,99.8
		c-15.5,50.1-69.4,251.1-69.9,253.1c0.1-0.3,0,0.1,0,0.1c-0.2,0.4-16.5,39.4,0.8,65.7c10.7,16.3,32,24.5,63.2,24.5
		c93.7,0,173.2-42.3,188.2-50.8l1.7-1L563.3,1237.6L563.3,1237.6z M992.7,1147.6l17.3-65.5l-38.6,3.3l26.9-95.4l-102,52.2
		l-81.3,287.1c-0.4,1.4-10.3,36.4,4.5,55.9c6.4,8.5,16.2,12.7,29.9,12.8h0.3l0.3-0.1l80.3-11.3l15.9-51.5l-27.8,2.4h-0.1
		c-3.2-0.2-6.3-1.7-8.3-4.3c-3.6-4.6-4.1-12.1-1.6-22.3c2.8-11.2,17.6-64.6,44-158.6l0.2-0.6L992.7,1147.6L992.7,1147.6z
		 M1415.2,1110.9l26.2-91.1l-7.5,1.3c-12,2.1-35.1,8.3-54.2,26.6l-1.6,1.5v-16.4l-89.9,12.5l-84.7,303.2l92-13.7l58.3-204.2
		c0.2-0.4,5.7-15.6,24.4-17.2L1415.2,1110.9z M1240.3,1109L1240.3,1109c0.3-0.6,5.6-13.5-2.8-26.2c-10.3-15.6-36-23.4-76.5-23.4
		c-58.1,0-125.7,31.8-136.5,64.2c-11.3,33.8-55.5,195.5-56,197.1v0l-0.1,0.1c-0.4,0.8-8.3,19.5,2.1,35.5c9.8,15,33.4,23,68.2,23
		c94.4,0,142.4-51.3,151.7-85.8L1240.3,1109L1240.3,1109L1240.3,1109z M1961,867.5l-93.3,12.5l-28.1,99.6
		c-21.8-1.6-122.5-4.5-143.5,71.5l-49.7,178.4c-0.3,0.8-8.4,24.8,2.3,41c10,15.2,33.8,13.4,33.8,13.4l0.3-0.1l166.8-21.5L1961,867.5
		L1961,867.5z"/>
	<path  className="st0" d="M1807.7,1012.8c-7,1.6-16.6,7.7-22.3,27.4c-2.5,8.5-18.8,68.2-31.8,116.1l-16,58.4l-0.1,0.2
		c0,0-0.1,0.2-0.1,0.2c-3,16.3,3.9,21,10.1,22.2c18.8,3.5,24.6-10.8,29.3-27.1l48.1-174.6c2.1-7.1,1.9-12.9-0.7-17.2
		C1822,1014.7,1810.8,1012.1,1807.7,1012.8z M1142.1,1104.7c-2.7-1-6.6-1-9.8-0.3c-7,1.6-16.6,7.7-22.3,27.4
		c-2.5,8.5-18.8,68.2-31.8,116.1l-16,58.4l-0.1,0.2l-0.1,0.2c-3,16.3,3.9,21,10.1,22.2c18.8,3.5,24.6-10.8,29.3-27.1l48.1-174.6
		c2.1-7.1,1.9-12.9-0.7-17.2C1147.4,1107.5,1145,1105.6,1142.1,1104.7L1142.1,1104.7z"/>
	<path  className="st1" d="M2173.6,955.6c-10.3-15.6-36-23.4-76.5-23.4c-58.1,0-125.7,31.8-136.5,64.2c-11.3,33.8-55.5,195.5-56,197.1
		c0,0.1,0,0.1,0,0.1c-1,2.5-8,20.2,2.1,35.6c9.8,15,33.4,22.9,68.2,22.9c94.4,0,142.4-51.3,151.7-85.8l14.6-54.3l-95.8,14.3
		c0,0-10.1,36.7-11.1,40.5c-4.2,16.9-10,22.3-23.8,22.3c-3.7,0-6.5-1.2-8.5-3.6c-4.7-5.7-2.7-16.1-2.6-16.6l0-0.1l17-60.3
		l130.9-19.1l28.9-107.5c-0.1,0.2,0.1-0.1,0.1-0.1C2176.7,981.2,2182,968.3,2173.6,955.6L2173.6,955.6z"/>
	<path  className="st0" d="M2075.5,982.5c-14.8-1-26.1,8.6-30.5,25.8c-0.8,3.4-14.8,53.4-14.8,53.4l36.4-2l17.1-61
		C2085,994.1,2078.1,982.6,2075.5,982.5L2075.5,982.5z"/>
	<path  className="st1" d="M827.1,1134c-18.4-22-71.3-18.7-71.8-18.7c-112.2,6.1-137.8,62.8-138.9,65.2l-0.1,0.2l-0.1,0.3l-12.2,40.3
		l92-12.4l0.7-3.2c5.4-23.9,14.4-35,28.1-35c3.3,0,5.8,0.8,7.2,2.5c2.1,2.3,2.2,6.2,2,7.4l-3.3,27.1c-4.5,16-19.3,20.5-24.7,20.8
		c-104.3,11.7-119,53.2-120.4,58.2c-12.4,32.6-22.6,66.1-30.4,100.1c-3.2,13.9-1.2,24.8,5.8,32.4c15.7,17.1,51.4,12.5,52.9,12.3
		l149.6-22.8c0,0,55.8-196.7,68.5-246.1C834.9,1151,833.3,1141.4,827.1,1134L827.1,1134z"/>
	<path  className="st0" d="M668.6,1292.2c-0.1,0.3-17.5,69.7-17.5,69.7c-1.8,6.8,0.9,12.8,7.3,15.9c9.7,4.7,27.8,2.1,32.9-4.7l0.5-0.7
		l27.9-106.5l-6.8,0.7C677.9,1269.9,668.7,1292,668.6,1292.2z"/>
	<path  className="st1" d="M1655.1,1023.4c-18.4-22-71.3-18.7-71.8-18.7c-112.2,6.1-137.9,62.8-138.9,65.2l-0.1,0.2l-0.1,0.3l-12.2,40.3
		l92-12.4c0,0,15.1-38.3,28.8-38.3c3.3,0,9.4,8.7,9.3,9.9l-3.3,27.1c-4.5,16-19.3,20.5-24.7,20.8c-104.3,11.7-119,53.2-120.4,58.2
		c-12.4,32.6-22.6,66.1-30.4,100.1c-3.2,13.9-1.2,24.7,5.7,32.4c15.7,17.1,51.4,12.5,52.9,12.3l149.6-22.8
		c0,0,55.9-196.6,68.5-246.1C1662.9,1040.4,1661.3,1030.8,1655.1,1023.4L1655.1,1023.4z"/>
	<path  className="st0" d="M1496.6,1182.8c-0.1,0.3-17.5,69.7-17.5,69.7c-1.9,6.8,0.9,12.8,7.3,15.9c9.7,4.7,27.8,2.1,32.9-4.7l0.5-0.7
		l27.9-106.5l-6.8,0.7C1505.9,1160.6,1496.7,1182.6,1496.6,1182.8z"/>
	<path  className="st1" d="M516.6,1645.7l4.9-17.1l59.8-7.6l-5,17.1l-17.4,2.2l-27.7,95.7l-25,3.2l27.7-95.7L516.6,1645.7L516.6,1645.7z
		 M561.6,1732.1l32.7-112.7l23.7-3l-9.7,33.4l0.3-0.1c4.7-8.2,11.7-13.4,20.4-14.5c12-1.5,14.1,6.3,10.3,19.4l-20.3,70.2l-23.7,3
		l17.8-61.3c1.4-4.9,2.7-9.8-2.1-9.2c-4.8,0.6-6.4,5.6-7.8,10.4l-17.8,61.3L561.6,1732.1L561.6,1732.1z M639.3,1722.2l26.3-90.6
		l23.7-3l-26.3,90.6L639.3,1722.2L639.3,1722.2z M667.3,1625.4l4.6-16l23.7-3l-4.6,16L667.3,1625.4z M729.9,1634.9l0.5-0.1
		c5.4-8.3,12.2-14.1,20.9-15.2c12-1.5,13.6,6.4,10.9,15.7l-9.4,32.3l-23.7,3l6.4-22c1.1-3.6,1.1-7.3-2.8-6.8
		c-3.9,0.5-6.1,4.4-7.1,8.1l-18.5,63.7l-23.8,3l26.3-90.6l23.7-3L729.9,1634.9L729.9,1634.9z M808.5,1644.2l2.8-9.8
		c1.1-3.8,0.8-6.6-3-6.2c-3.8,0.5-5.8,3.6-6.9,7.4c-4.5,15.5,29.5,8.5,21,37.9c-5.2,17.9-18.2,28.7-38,31.2
		c-15.2,1.9-25.1-2.8-20.4-19.1l4.2-14.4l23.7-3l-3.9,13.6c-1.1,3.8-0.8,6.6,3,6.2c3.7-0.5,5.8-3.6,6.9-7.4
		c6.2-21.5-29.4-10.6-20.8-40.1c5.2-18.1,19.5-26.7,35.1-28.7c18-2.3,27.5,3.7,23,18.9l-3,10.5L808.5,1644.2L808.5,1644.2z
		 M848.7,1624.2l4.8-16.5l8-1l4.7-16.3l23.7-3l-4.7,16.3l10.4-1.3l-4.8,16.5l-10.4,1.3l-14.3,49.4c-1.6,5.4-2.2,8.2,3.3,7.5l4.7-0.6
		l-4.8,16.5l-19.4,2.5c-11.9,1.5-12.7-5.1-9.3-17l16-55.3L848.7,1624.2L848.7,1624.2z M1267.6,1654.4c-18,2.4-24.6,1.4-20.8-14.8
		c-1.4,0.3-2.7,0.5-4.1,0.7c-16.5,2.2-29.5-3-22.1-28.9l14.7-51.4c7.4-25.8,24.5-34.9,41-37.1c16.5-2.2,29.5,3,22.1,28.9l-14.7,51.4
		c-4.4,15.5-12.3,25-21.7,30.5l-0.8,2.9l12-1.6L1267.6,1654.4L1267.6,1654.4z"/>
	<path  className="st0" d="M1243.9,1614.2c-1.3,4.6-1.2,8.7,4.1,8c5.3-0.7,7.8-5.1,9.2-9.7l18.1-63.4c1.3-4.6,1.2-8.7-4-8
		c-5.3,0.7-7.8,5.1-9.2,9.8L1243.9,1614.2L1243.9,1614.2z"/>
	<path  className="st1" d="M1337.9,1614.8l-0.3,0c-4.5,8.2-11.5,13.4-20.8,14.6c-10.7,1.4-13.9-5.7-10.1-18.7l20.3-71l23.7-3.1l-18,62.9
		c-1.1,4-2.1,8.2,2.4,7.6c4.5-0.6,6.3-5,7.5-8.9l18-62.9l23.7-3.1l-26,90.7l-23.7,3.1L1337.9,1614.8L1337.9,1614.8z M1417.5,1574.4
		l-5.3,18.4c-1.5,5.4-0.7,8.5,2.5,8.1c3.7-0.5,5.9-4,7.5-9.4l3.3-11.7l23.7-3.1l-3.8,13.3c-4.9,17.1-18.8,25.2-35.5,27.4
		c-15.2,2-26.6-3.5-21.8-20.3l12.4-43.3c4.7-16.3,17.5-26.8,36-29.3c15.2-2,27,2.3,21.4,21.8l-6.8,23.8L1417.5,1574.4L1417.5,1574.4
		z"/>
	<path  className="st0" d="M1431.7,1558l3.5-12.4c1-3.5-0.1-5.2-3.4-4.7c-3.3,0.4-5.5,2.5-6.5,6l-3.5,12.4L1431.7,1558z"/>
	<path  className="st1" d="M1502.5,1527.7l0.3-0.1c4.5-8.2,11.5-13.4,20.8-14.6c10.7-1.4,13.8,5.7,10.1,18.7l-20.3,71l-23.7,3.1l18-63
		c1.1-4,2-8.2-2.4-7.6c-4.5,0.6-6.3,4.9-7.5,8.9l-18,63l-23.7,3.1l26-90.7l23.7-3.1L1502.5,1527.7L1502.5,1527.7z M1589.9,1526.4
		c1-3.3,0.6-6.2-3.1-5.7c-3.7,0.5-5.8,3.6-6.8,7l-13.5,47.2c-1,3.3-0.6,6.2,3.1,5.7c3.7-0.5,5.8-3.6,6.8-7l4-14.1l23.7-3.1
		l-3.8,13.3c-4.9,17.1-18.8,25.2-35.6,27.4c-17.7,2.3-26.3-4-21.3-21.5l12.1-42.3c4.3-14.9,17.8-26.7,35.8-29.1
		c15.3-2,27.1,2.3,21.6,21.8l-2.2,7.6l-23.7,3.1L1589.9,1526.4z M1614,1589.6l32.3-112.9l23.7-3.1l-9.6,33.5l0.3-0.1
		c4.7-8.2,11.6-13.4,20.4-14.6c12-1.5,14.1,6.3,10.4,19.4l-20.1,70.2l-23.7,3.1l17.6-61.3c1.4-4.9,2.7-9.8-2.1-9.2
		c-4.8,0.6-6.4,5.6-7.8,10.5l-17.6,61.3L1614,1589.6L1614,1589.6z M1730.4,1533.5l-5.2,18.4c-1.5,5.4-0.7,8.5,2.5,8.1
		c3.7-0.5,5.9-4,7.4-9.4l3.3-11.7l23.8-3.1l-3.8,13.3c-4.9,17.1-18.8,25.2-35.5,27.4c-15.2,2-26.6-3.5-21.8-20.4l12.4-43.3
		c4.7-16.3,17.5-26.8,36-29.3c15.2-2,27,2.3,21.4,21.8l-6.8,23.8L1730.4,1533.5L1730.4,1533.5z"/>
	<path  className="st0" d="M1744.7,1517.1l3.5-12.4c1-3.5-0.1-5.2-3.4-4.7s-5.5,2.5-6.5,6l-3.5,12.4L1744.7,1517.1z"/>
	<path  className="st1" d="M1821.3,1486.7l0.5-0.1c5.4-8.3,12.1-14.1,20.8-15.2c12-1.6,13.7,6.3,11,15.7l-9.2,32.3l-23.7,3.1l6.3-22
		c1-3.6,1.1-7.3-2.8-6.8c-3.9,0.5-6,4.5-7.1,8.1l-18.2,63.7l-23.7,3.1l26-90.7l23.7-3.1L1821.3,1486.7z"/>
</g>
</svg>
