 <svg viewBox="0 0 2500 2500">
<g>
	<path  className="st0" d="M0,0h2500v2500H0V0z"/>
	<path  className="st1" d="M508.2,1247.5h-14.9c-26.5,0-48,19.8-48,46.3c0,21.5,6.6,46.3,34.7,46.3c24.8,0,29.8-19.8,29.8-39.7v-49.6
		C509.8,1250.8,511.5,1247.5,508.2,1247.5L508.2,1247.5z M1261.9,1489h-52.1c-37.4-4.5-69.8-18.7-69.8-52.9
		c0-24.8,28.1-43,51.3-46.3c0,0,6.6-1.6,0-1.6c-8.3-1.7-52.9-5-67.8-1.7c0,0-3.3,0-5-3.3c-1.6-3.3-9.9-26.5-11.6-28.1
		c-1.6-3.3,1.6-5,1.6-5c33.1-5,62.9-21.5,76.1-26.5c8.3-1.6,0-3.3,0-3.3c-46.3-8.3-92.6-39.7-92.6-94.3
		c0-77.7,64.5-112.5,125.7-112.5c28.1,0,44.7,5,59.5,6.6c0,0,1.6,1.7,3.3-1.6c0-5,4.9-18.2,4.9-18.2c6.6-19.8,16.5-28.1,46.3-28.1
		c6.6,0,13.2,0,18.2,1.7c0,0,3.3-1.7,3.3,3.3c-1.7,1.6-11.6,41.3-11.6,43c-1.6,5-3.3,1.7-3.3,1.7c-5-3.3-6.6-5-18.2-3.3
		c-6.6,0-9.9,5-9.9,11.6c0,11.6,52.9,28.1,52.9,91c0,84.4-77.7,102.5-145.5,119.1c0,0-6.6,1.6,0,1.6c44.7,5,137.3,16.5,137.3,74.4
		C1355,1465,1300.6,1483.8,1261.9,1489L1261.9,1489z M614,1355h13.2c3.3,0,3.3,3.3,3.3,3.3v26.5c0,5-5,3.3-5,3.3H519.8
		c0,0-1.7,0-1.7-3.3c-1.6-6.6-5-13.2-5-18.2c-1.6-6.6-5,0-5,0c-21.5,16.5-46.3,29.8-76.1,29.8c-49.6,0-87.7-31.4-87.7-82.7
		c0-62.9,39.7-97.6,89.3-97.6l76.1-3.3v-3.3v-8.3c0-21.5-11.6-31.4-36.4-31.4c-31.4,0-46.3,11.6-61.2,29.8c0,0,0,1.6-3.3,1.6
		c-3.3-1.6-29.8-11.6-29.8-11.6s-3.3,0-1.6-3.3c1.7-3.3,34.7-82.7,34.7-82.7s0-3.3,1.6-1.6c5,1.6,24.8,8.3,29.8,8.3
		c3.3,1.6,1.6,5,1.6,5l-3.3,6.6c-1.6,6.6,1.6,3.3,1.6,3.3c21.5-8.3,43-11.6,64.5-11.6c62.9,0,104.2,26.5,104.2,91v145.6
		C612.4,1350.1,612.4,1355,614,1355L614,1355z M620.6,1133.4c43-11.6,79.4-39.7,97.6-79.4c0,0,0-1.6,3.3-1.6s24.8,5,28.1,5
		c3.3,1.6,1.6,3.3,1.6,3.3c-1.6,13.2-3.3,28.1-3.3,39.7v19.8c0,3.3,3.3,1.7,3.3,1.7H796c3.3,0,1.6,3.3,1.6,3.3s-6.6,33.1-6.6,36.4
		c-1.6,3.3-3.3,3.3-3.3,3.3h-36.4c-3.3,0-3.3,1.7-3.3,1.7v153.8c0,18.2,14.9,21.5,23.2,21.5c8.3,0,9.9,0,16.5-3.3c0,0,3.3-3.3,3.3,0
		c1.6,3.3,9.9,24.8,11.6,28.1c1.6,1.6-1.7,3.3-1.7,3.3c-34.7,24.8-38,26.5-84.4,26.5c-51.3,0-69.5-24.8-69.5-71.1v-158.8
		c0,0,0-1.7-3.3-1.7h-23.2c0,0-1.7,0-1.7-3.3v-24.8C619,1135,620.6,1133.4,620.6,1133.4L620.6,1133.4z M1374.9,1254.1
		c0-86,67.8-140.6,157.2-140.6c89.3,0,158.8,54.6,158.8,140.6c0,89.3-69.5,142.2-158.8,142.2
		C1442.7,1396.4,1374.9,1343.5,1374.9,1254.1z M1477.4,1216.1c0,39.7,16.5,138.9,72.8,138.9c29.8,0,38-31.4,38-61.2
		c0-39.7-16.5-138.9-74.4-138.9C1477.4,1154.9,1477.4,1196.2,1477.4,1216.1z M2005.1,1388.1h-138.9c0,0-1.6,0-1.6-1.7v-28.1
		c0-3.3,3.3-3.3,3.3-3.3h16.5c1.7,0,1.7-1.6,1.7-1.6v-150.5c0-16.5-14.9-23.2-29.8-23.2c-18.2,0-31.4,8.3-44.7,19.8
		c0,0-1.6,1.6-1.6,3.3v150.5c0,0,0,1.6,1.6,1.6h18.2c0,0,1.6,0,1.6,3.3v28.1c0,1.7-1.6,1.7-1.6,1.7h-138.9c0,0-1.6,1.6-1.6-3.3
		v-26.5c0-3.3,1.6-3.3,1.6-3.3h14.9c3.3,0,1.7-1.6,1.7-1.6v-177c0,0,1.6-3.3-1.7-3.3l-14.9,5c0,0-1.6,1.6-1.6-1.6v-28.1
		c0-3.3,1.6-1.6,1.6-1.6l117.4-31.4c0,0,3.3-1.6,3.3,1.6v38.1c0,5,1.7,1.6,1.7,1.6c28.1-21.5,56.2-43,94.3-43
		c71.1,0,81.1,48,81.1,77.7v162.1c0,0-1.6,1.6,1.6,1.6h14.9c0,0,1.6,0,1.6,3.3v26.5C2006.7,1389.8,2005.1,1388.1,2005.1,1388.1
		L2005.1,1388.1z M2145.7,1115.2l-117.4,31.4c0,0-1.6,0-1.6,3.3v26.5c0,3.3,3.3,1.6,3.3,1.6s8.3-1.6,14.9-3.3c3.3,0,1.6,3.3,1.6,5
		v173.7c0,0,1.7,1.6-1.6,1.6h-16.5c0,0-3.3,0-3.3,3.3v28.1c0,3.3,3.3,1.7,3.3,1.7h137.3c3.3,0,1.6-3.3,1.6-3.3v-26.5
		c0-3.3-3.3-3.3-3.3-3.3h-13.2c-3.3,0-1.6-1.6-1.6-1.6v-236.5C2149,1113.5,2145.7,1115.2,2145.7,1115.2L2145.7,1115.2z
		 M2104.3,1032.5c23.2,0,49.6,6.6,49.6,34.7c0,33.1-44.6,46.3-72.7,46.3c-23.2,0-38.1-11.6-38.1-34.7
		C2043.1,1052.3,2079.5,1032.5,2104.3,1032.5z M968,1247.5h-13.2c-28.1,0-48,19.8-48,46.3c0,21.5,6.6,46.3,33.1,46.3
		s31.4-19.8,31.4-39.7v-49.6C971.3,1250.8,971.3,1247.5,968,1247.5L968,1247.5z M1075.5,1355h11.6c5,0,5,3.3,5,3.3v26.5
		c0,5-5,3.3-5,3.3H981.2c0,0-1.7,0-3.3-3.3c-1.6-6.6-3.3-13.2-3.3-18.2c-1.6-6.6-5,0-5,0c-23.2,16.5-46.3,29.8-76.1,29.8
		c-51.3,0-89.3-31.4-89.3-82.7c0-62.9,41.3-99.2,91-99.2l74.4-1.7c0,0,1.6,0,1.6-3.3v-8.3c0-21.5-11.6-31.4-36.4-31.4
		c-31.4,0-46.3,11.6-61.2,29.8c0,0-1.6,1.6-3.3,0c-3.3,0-31.4-9.9-31.4-9.9s-1.6,0,0-3.3s33.1-82.7,33.1-82.7s0-3.3,3.3-1.6
		c3.3,1.6,24.8,8.3,28.1,8.3c3.3,1.6,1.6,5,1.6,5s0,3.3-1.6,6.6c-3.3,6.6,1.6,3.3,1.6,3.3c21.5-8.3,43-11.6,64.5-11.6
		c62.9,0,104.2,26.5,104.2,91v145.6C1073.8,1350.1,1072.2,1355,1075.5,1355L1075.5,1355z M1184.7,1184.7
		c0,29.8,16.5,110.8,57.9,110.8c21.5,0,29.8-9.9,29.8-36.4c0-29.8-18.2-110.8-59.5-110.8C1192.9,1148.3,1184.7,1158.2,1184.7,1184.7
		L1184.7,1184.7z M1227.7,1401.3c-5,5-8.3,23.2-8.3,34.7c0,13.2,6.6,28.1,23.2,28.1c13.2,0,21.5-6.6,21.5-19.8
		c0-24.8-14.9-33.1-33.1-44.7C1231,1399.7,1229.3,1399.7,1227.7,1401.3z M2330.9,1247.5h-13.2c-28.1,0-48,19.8-48,46.3
		c0,21.5,6.6,46.3,33.1,46.3s31.4-19.8,31.4-39.7v-49.6C2334.2,1250.8,2334.2,1247.5,2330.9,1247.5L2330.9,1247.5z M2438.4,1355
		h13.2c3.3,0,3.3,3.3,3.3,3.3v26.5c0,5-5,3.3-5,3.3h-105.9c0,0-1.6,0-3.3-3.3c-1.6-6.6-3.3-13.2-3.3-18.2c-1.6-6.6-5,0-5,0
		c-23.2,16.5-46.3,29.8-76.1,29.8c-51.3,0-89.3-31.4-89.3-82.7c0-62.9,41.3-99.2,91-99.2l74.4-1.7c0,0,1.7,0,1.7-3.3v-8.3
		c0-21.5-11.6-31.4-36.4-31.4c-31.4,0-46.3,11.6-61.2,29.8c0,0-1.6,1.6-3.3,0c-3.3,0-29.8-9.9-29.8-9.9s-3.3,0-1.6-3.3
		c1.6-3.3,33.1-82.7,33.1-82.7s0-3.3,3.3-1.6c3.3,1.6,24.8,8.3,28.1,8.3c3.3,1.6,3.3,4.9,3.3,4.9l-3.3,6.6c-3.3,6.6,1.6,3.3,1.6,3.3
		c21.5-8.3,43-11.6,64.5-11.6c62.9,0,104.2,26.5,104.2,91v145.6C2436.8,1350.1,2436.8,1355,2438.4,1355L2438.4,1355z M159.2,1178.1
		v134c0,23.2,8.3,43,34.7,43c33.1,0,48-19.9,48-81.1c0-97.6-49.6-102.5-66.2-102.5l-13.2,1.6
		C162.5,1173.1,159.2,1174.7,159.2,1178.1L159.2,1178.1z M160.8,1138.4c24.8-14.9,43-24.8,67.8-24.8c64.5,0,115.8,52.9,115.8,130.7
		c0,76.1-48,152.2-130.7,152.2c-16.5,0-38-1.6-52.9-9.9c0,0-1.6,0-1.6,1.7v47.9c0,0,0,3.3,3.3,3.3h29.8c0,0,3.3,0,3.3,3.3v26.4
		c0,1.7-3.3,3.3-3.3,3.3H41.7c0,0-5,0-5-3.3v-0.3v-0.3v-0.3v-0.3v-0.3v-0.3v-0.3v-0.3v-0.4v-0.4v-0.4v-0.4v-0.4v-0.4v-0.4v-0.4v-0.5
		v-0.5v-0.5v-0.5v-0.5v-0.5v-0.5v-0.5v-0.5v-0.5v-0.5v-0.5v-0.5v-0.5v-0.5v-0.5v-0.5v-0.5v-0.5v-0.5v-0.5v-0.5v-0.5v-0.5v-0.5v-0.5
		v-0.5v-0.5v-0.5v-0.5v-0.5v-0.4v-0.5v-0.4v-0.4v-0.4v-0.4v-0.4v-0.4v-0.4v-0.4v-0.3v-0.3v-0.3v-0.3v-0.3v-0.3v-0.2
		c0-3.3,3.3-3.3,3.3-3.3h13.2c3.3,0,3.3-3.3,3.3-3.3v-259.7c0-3.3-3.3-1.6-3.3-1.6l-13.2,3.3c0,0-3.3,0-3.3-3.3v-0.2v-0.2v-0.2v-0.2
		v-0.3v-0.3v-0.3v-0.3v-0.4v-0.3v-0.4v-0.4v-0.4v-0.4v-0.4v-0.4v-0.5v-0.5v-0.5v-0.5v-0.5v-0.5v-0.5v-0.5v-0.5v-0.5v-0.5v-0.5v-0.5
		v-0.5v-0.5v-0.5v-0.5v-0.5v-0.5v-0.5v-0.5v-0.5v-0.5v-0.5v-0.5v-0.5v-0.5v-0.5v-0.5v-0.5v-0.5v-0.4v-0.5v-0.4v-0.4v-0.4v-0.4v-0.4
		v-0.4v-0.3v-0.3v-0.3v-0.3v-0.3v-0.2v-0.2v-0.2v-0.2c0-3.3,3.3-3.3,3.3-3.3l115.8-29.8c0,0,3.3-1.6,3.3,1.6v19.8
		C159.2,1140,160.8,1138.4,160.8,1138.4L160.8,1138.4z M2390.5,1047.4c0-19.9,16.5-36.4,36.4-36.4c19.9,0,36.4,16.5,36.4,36.4
		c0,21.5-16.5,38-36.4,38C2407,1085.4,2390.5,1068.9,2390.5,1047.4z M2458.3,1047.4c0-16.5-13.2-31.4-31.4-31.4
		s-33.1,14.9-33.1,31.4c0,18.2,14.9,33.1,33.1,33.1S2458.3,1065.6,2458.3,1047.4z M2445,1068.9h-6.6l-11.6-19.8h-8.3v19.8h-5v-41.3
		h16.5c3.3,0,8.3,0,9.9,1.7c3.3,1.6,4.9,6.6,4.9,9.9c0,6.6-4.9,9.9-13.2,9.9L2445,1068.9L2445,1068.9z M2425.2,1045.7
		c6.6,0,14.9,1.6,14.9-6.6c0-6.6-5-8.3-9.9-8.3h-11.6v14.9H2425.2L2425.2,1045.7z"/>
</g>
</svg>
