 <svg viewBox="0 0 2500 2500">
<g>
	<path  className="st0" d="M0,0h2500v2500H0V0z"/>
	<path  className="st1" d="M987.9,1252.8c12.9,0,22.7,0,32.4,6.5c6.5,3.2,12.9,9.7,12.9,19.4c0,9.7-9.7,16.2-22.6,19.4
		c19.4,0,32.4,12.9,32.4,25.9c0,9.7-6.5,16.2-16.2,22.6c-12.9,9.7-25.9,9.7-38.8,9.7l-64.7,6.5c9.7-6.5,9.7-16.2,9.7-22.6v-58.2
		c0-9.7,0-16.2-9.7-22.6L987.9,1252.8L987.9,1252.8z M971.8,1291.6h6.5c9.7,0,16.2-6.5,16.2-12.9c0-3.2-6.5-9.7-16.2-9.7h-6.5
		V1291.6z M971.8,1340.2c3.2,3.2,9.7,0,12.9,0c12.9,0,19.4-6.5,19.4-16.2c0-12.9-9.7-16.2-25.9-16.2l-6.5-3.2V1340.2z M1097.9,1324
		c-3.2,9.7-3.2,19.4,6.5,22.6v3.2h-58.2c12.9-3.2,9.7-12.9,9.7-22.6v-55c0-9.7,3.2-19.4-9.7-22.6l64.7-3.2c9.7,0,19.4-3.2,29.1,0
		c12.9,6.5,19.4,12.9,19.4,22.6c0,12.9-9.7,22.6-25.9,25.9l25.9,32.3l19.4,19.4h-29.1c-16.2,0-22.6,0-29.1-9.7l-22.6-32.3
		L1097.9,1324L1097.9,1324L1097.9,1324z M1097.9,1262.5v35.6c12.9-3.2,22.6-12.9,22.6-22.6c0-3.2-3.2-9.7-9.7-12.9H1097.9z"/>
	<path  className="st1" d="M1211.2,1314.3l-3.2,9.7c-3.2,3.2-6.5,9.7-6.5,12.9s6.5,6.5,9.7,6.5v3.2h-45.3c6.5-6.5,9.7-9.7,16.2-19.4
		l29.1-61.5c0-3.2,6.5-9.7,6.5-12.9s-6.5-6.5-9.7-9.7h55l38.8,80.9c6.5,9.7,6.5,12.9,19.4,19.4v3.2l-64.7-3.2
		c3.2-3.2,6.5-3.2,6.5-6.5v-6.5l-6.5-16.2H1211.2L1211.2,1314.3z M1233.8,1269l-16.2,32.3h29.1L1233.8,1269z"/>
	<path  className="st1" d="M1450.6,1353.1c-6.5,0-19.4-3.2-25.9-6.5c-16.2-6.5-19.4-12.9-29.1-22.6l-42-42h-3.2v42c0,9.7,0,16.2,9.7,22.6
		h-42v-3.2c9.7-3.2,9.7-12.9,9.7-19.4v-55c0-12.9,0-16.2-9.7-25.9h45.3l64.7,67.9v-42c0-9.7,0-16.2-9.7-22.6l42,3.2
		c-6.5,6.5-6.5,9.7-6.5,19.4L1450.6,1353.1L1450.6,1353.1z M1479.7,1281.9v-22.6c0-3.2-3.2-9.7-9.7-9.7l48.5,3.2
		c22.6,3.2,45.3,3.2,64.7,12.9c19.4,12.9,29.1,29.1,29.1,45.3c0,16.2-9.7,29.1-25.9,38.8c-19.4,9.7-38.8,9.7-67.9,6.5l-48.5-6.5
		c9.7-3.2,9.7-12.9,9.7-19.4V1281.9z M1521.8,1340.2c3.2,0,6.5,3.2,9.7,3.2c12.9,3.2,22.6-3.2,32.3-12.9c3.2-6.5,6.5-12.9,6.5-22.6
		c0-16.2-6.5-35.6-35.6-35.6h-12.9V1340.2L1521.8,1340.2z M2317.6,1259.3c-22.6,0-42,19.4-42,42c0,25.9,19.4,45.3,45.3,45.3
		c25.9,0,45.3-19.4,45.3-45.3c0-22.6-19.4-42-45.3-42H2317.6z M2317.6,1262.5h3.2c22.6,0,38.8,19.4,38.8,38.8
		c0,22.6-16.2,42.1-38.8,42.1c-22.6,0-38.8-19.4-38.8-42.1C2282.1,1281.9,2298.2,1265.7,2317.6,1262.5z M2304.7,1275.5v51.7h6.5
		v-22.6h12.9c6.5,0,9.7,3.2,9.7,6.5v6.5l3.2,6.5v3.2h6.5c-3.2-3.2-3.2-6.5-3.2-16.2c0-3.2,0-6.5-3.2-9.7c3.2-3.2,6.5-6.5,6.5-12.9
		c0-3.2-3.2-6.5-6.5-9.7c-3.2-3.2-6.5-3.2-19.4-3.2L2304.7,1275.5L2304.7,1275.5z M2311.2,1298.1v-16.2h16.2c6.5,0,6.5,3.2,6.5,9.7
		c0,6.5,0,6.5-12.9,6.5L2311.2,1298.1L2311.2,1298.1z M1253.2,702.8c158.5,0,313.8,90.6,313.8,249.1
		c0,158.5-148.8,252.4-326.8,252.4c-177.9,0-317.1-97.1-317.1-252.4S1075.3,706,1253.2,702.8L1253.2,702.8z M1250,1107.2
		c90.6-6.5,103.5-116.5,103.5-145.6c0-71.2-25.9-155.3-113.3-155.3c-64.7,0-103.5,77.6-103.5,142.4
		C1136.8,1071.6,1211.2,1110.5,1250,1107.2z"/>
	<path  className="st1" d="M1589.7,1091c0,0-3.2,80.9-29.1,113.2c142.9,9.2,284.7,30.9,423.9,64.7v-174.7
		c-38.8,38.8-103.5,29.1-152.1,16.2c-6.5,0-29.1-9.7-38.8-12.9V761c3.2-19.4,22.6-29.1,35.6-38.8h-275l25.9,25.9
		C1599.4,790.2,1586.5,1042.5,1589.7,1091L1589.7,1091z M117.6,777.2c51.8,132.6,90.6,281.5,139.1,414.1
		c12.9,51.8,48.5,110,29.1,168.2c74.4-32.3,158.5-58.2,249.1-80.9c-29.1-35.6-6.5-116.5-3.2-155.3l19.4-71.2l29.1,106.8
		c9.7,29.1,16.2,74.4,9.7,106.8c77.6-19.4,158.5-32.3,242.6-45.3c-22.6-22.6-9.7-67.9-3.2-93.8l74.4-236.2
		c12.9-38.8,29.1-90.6,48.5-129.4c9.7-16.2,22.6-29.1,35.6-38.8H751.8c45.3,48.5,0,126.2-6.5,177.9l-22.6,58.2
		c-12.9-58.2-45.3-165-45.3-197.4c0-16.2,12.9-38.8,12.9-38.8H447.7c12.9,6.5,22.6,22.6,22.6,35.6c3.2,64.7-25.9,187.6-38.8,249.1
		C366.8,777.2,370,761,370,761c0-16.2,9.7-25.9,16.2-38.8H65.9C88.5,735.2,104.7,754.6,117.6,777.2L117.6,777.2z M2026.5,783.7
		c9.7,22.6,3.2,359.1,3.2,375.3c0,0-3.2,90.6-29.1,113.2c90.6,22.6,174.7,48.5,252.4,80.9c-9.7-22.6-12.9-51.8-16.2-74.4l-3.2-187.6
		c0,0,129.4-9.7,158.5,29.1V929.3c-22.6,42.1-155.3,32.3-155.3,32.3s-3.2-77.6-3.2-116.5h174.7c22.6,3.2,38.8,19.4,55,35.6V722.2
		h-482.1C2000.6,738.4,2020,757.8,2026.5,783.7z"/>
	<path  className="st2" d="M1220.9,676.9c158.5-3.2,313.8,87.4,313.8,249.1c0,158.5-148.8,252.4-323.5,252.4
		c-177.9,0-320.3-100.3-320.3-252.4C890.9,770.8,1046.2,680.2,1220.9,676.9z M1217.6,1078.1c93.8-6.5,106.8-113.2,106.8-145.6
		c0-67.9-25.9-155.3-113.2-155.3c-67.9,0-103.5,80.9-103.5,142.4C1107.6,1042.5,1182.1,1081.3,1217.6,1078.1L1217.6,1078.1z
		 M1997.3,754.6c9.7,32.4,3.2,333.2,3.2,359.1c0,0-6.5,106.8-32.3,119.7c90.6,19.4,174.7,45.3,255.6,71.2
		c-9.7-19.4-16.2-38.8-19.4-64.7v-174.7c0,0,126.2-9.7,155.3,25.9V903.4c-22.6,42.1-155.3,29.1-155.3,29.1V819.3h171.5
		c22.6,3.2,38.8,19.4,55,35.6V696.3h-482.1C1971.5,709.3,1994.1,738.4,1997.3,754.6z"/>
	<path  className="st2" d="M1955.3,1065.2c-35.6,42.1-106.8,32.4-152.1,19.4c-9.7,0-32.3-9.7-42-12.9V761l3.2-29.1
		c3.2-16.2,19.4-25.9,32.3-35.6H1525l25.9,25.9c16.2,42.1,6.5,278.2,9.7,326.8c0,0-3.2,87.4-29.1,119.7
		c148.8,9.7,291.2,32.4,423.8,61.5V1065.2z M85.3,751.3c55,132.7,90.6,278.2,139.1,414.1c12.9,51.8,42.1,116.5,22.6,174.7
		c77.6-32.3,161.8-61.5,252.4-84.1c-25.9-38.8-3.2-119.7,3.2-158.5l19.4-71.2l25.9,106.8c9.7,29.1,19.4,74.4,12.9,106.8
		c77.6-19.4,158.5-35.6,242.6-48.5c-25.9-19.4-12.9-64.7-3.2-93.8l71.2-232.9c16.2-42.1,29.1-93.8,48.5-132.6
		c9.7-12.9,25.9-25.9,38.8-35.6H719.4c48.5,48.5,3.2,122.9-6.5,177.9l-19.4,58.2C677.3,874.3,645,764.3,645,735.2
		c0-16.2,12.9-38.8,12.9-38.8H418.5c9.7,6.5,19.4,19.4,22.7,35.6c3.2,64.7-25.9,187.6-42.1,249.1c-61.5-229.7-61.5-249.1-61.5-249.1
		c0-12.9,9.7-25.9,19.4-35.6H36.8C56.2,709.3,75.6,728.7,85.3,751.3L85.3,751.3z M975,1243.1c9.7,0,19.4,0,29.1,3.2
		c9.7,6.5,16.2,12.9,16.2,19.4c0,9.7-9.7,16.2-22.6,19.4c16.2,3.2,29.1,12.9,29.1,25.9c0,9.7-3.2,19.4-16.2,25.9
		c-9.7,6.5-22.7,6.5-38.8,6.5l-61.5,6.5c9.7-3.2,6.5-12.9,6.5-22.6V1269c0-6.5,3.2-16.2-6.5-19.4L975,1243.1L975,1243.1z
		 M958.8,1281.9h3.2c12.9,0,16.2-6.5,16.2-12.9c0-6.5-3.2-12.9-12.9-12.9h-6.5V1281.9z M958.8,1330.5h12.9
		c9.7-3.2,16.2-9.7,16.2-19.4c0-9.7-6.5-16.2-22.6-16.2h-6.5V1330.5z M1081.8,1314.3c0,6.5,0,16.2,9.7,19.4v3.2l-58.2,3.2
		c9.7-6.5,9.7-16.2,9.7-22.6v-58.2c0-6.5,0-16.2-9.7-22.7l64.7-3.2c9.7,0,19.4,0,29.1,3.2c12.9,3.2,19.4,13,19.4,22.7
		s-12.9,19.4-25.9,25.9l25.9,32.3c3.2,6.5,9.7,12.9,19.4,16.2h-32.3c-12.9,3.2-22.6,3.2-29.1-6.5l-22.6-32.3L1081.8,1314.3
		L1081.8,1314.3L1081.8,1314.3z M1081.8,1249.6v35.6c12.9-3.2,22.6-9.7,22.6-22.6c0-3.2-3.2-9.7-6.5-9.7c-3.2-3.2-9.7-3.2-12.9-3.2
		H1081.8z"/>
	<path  className="st2" d="M1198.2,1301.3l-6.5,12.9c0,3.2-3.2,6.5-3.2,9.7c0,6.5,3.2,6.5,6.5,9.7h-45.3c9.7-6.5,12.9-9.7,16.2-16.2
		l32.4-64.7c0-3.2,3.2-9.7,3.2-12.9c0-3.2-3.2-6.5-6.5-6.5v-3.2l51.8,3.2l42.1,77.6c3.2,9.7,6.5,12.9,19.4,22.6h-68
		c6.5-3.2,9.7-3.2,9.7-9.7c0-3.2,0-3.2-3.2-6.5l-6.5-16.2H1198.2L1198.2,1301.3z M1217.6,1259.3l-12.9,29.1h29.1L1217.6,1259.3z"/>
	<path  className="st2" d="M1437.6,1340.2c-6.5,0-19.4-3.2-25.9-3.2c-16.2-6.5-22.6-16.2-32.3-25.9l-42-38.8v38.8c0,9.7,0,16.2,9.7,22.6
		h-42c9.7-6.5,9.7-12.9,9.7-22.6v-51.7c0-12.9,0-16.2-12.9-25.9h45.3l67.9,64.7V1256c0-9.7,0-12.9-9.7-19.4h42
		c-9.7,6.5-9.7,9.7-9.7,19.4L1437.6,1340.2L1437.6,1340.2z M1466.8,1272.2c0-6.5,0-19.4-3.2-25.9c0-3.2-3.2-6.5-6.5-9.7l45.3,6.5
		c25.9,0,48.5,0,67.9,12.9c19.4,9.7,29.1,25.9,29.1,42.1c0,16.2-9.7,32.3-25.9,38.8c-22.6,9.7-42,9.7-67.9,6.5l-48.5-3.2
		c9.7-6.5,9.7-12.9,9.7-22.6V1272.2z M1505.6,1330.5c3.2,0,9.7,0,12.9,3.2c12.9,0,22.6-6.5,29.1-12.9c6.5-6.5,9.7-16.2,9.7-25.9
		c0-12.9-9.7-32.3-35.6-35.6h-16.2V1330.5L1505.6,1330.5z"/>
	<path  className="st1" d="M641.8,1362.8v3.2h3.2l3.2,3.2h19.4l3.2-3.2h3.2v-3.2v-9.7c0-3.2-3.2-3.2-6.5-6.5l-3.2-3.2
		c-3.2,0-6.5-3.2-9.7-3.2l-3.2-3.2h-3.2v-3.2l-3.2-3.2v-9.7h3.2v-3.2l3.2-3.2l3.2-3.2c3.2-3.2,6.5-6.5,9.7-6.5l3.2-3.2h16.2v3.2
		c0,3.2-3.2,3.2-3.2,6.5v3.2v-3.2h-3.2v-3.2h-6.5l-6.5,3.2H658c0,0-3.2,3.2-3.2,6.5v6.5c0,3.2,3.2,3.2,3.2,3.2l3.2,3.2h3.2l3.2,3.2
		h3.2l3.2,3.2l3.2,3.2h3.2v3.2h3.2v12.9l-3.2,3.2v3.2l-6.5,6.5l-3.2,3.2l-3.2,3.2h-6.5v3.2H645c-3.2,0-3.2,0-3.2-3.2h-3.2
		L641.8,1362.8z M690.3,1327.2l3.2-3.2h3.2l3.2-3.2v-3.2h6.5v12.9l-3.2,6.5v25.9l3.2-3.2v-3.2c3.2,0,3.2,0,3.2,3.2l-3.2,3.2
		l-6.5,6.5h-6.5v-16.2l3.2-12.9v-9.7v-3.2H690.3z M696.8,1304.6v-3.2l6.5-6.5c3.2,0,3.2,0,3.2,3.2v3.2c0,3.2-3.2,3.2-3.2,3.2v3.2
		l-3.2,3.2h-3.2v3.2L696.8,1304.6z M716.2,1353.1l3.2-3.2v-22.6c0-3.2,0-3.2-3.2-3.2h-3.2h3.2l3.2-6.5h3.2c0,0,0-3.2,3.2-3.2v3.2
		h3.2v9.7l9.7-9.7c3.2-3.2,9.7-6.5,12.9-6.5c0,0,3.2,0,3.2,3.2v19.4l-3.2,6.5v12.9h3.2l3.2-3.2v3.2l-6.5,3.2l-3.2,3.2
		c0,3.2-3.2,3.2-3.2,3.2l-3.2-3.2v-6.5l3.2-6.5v-9.7v-3.2v-6.5h3.2v-3.2v-3.2c-3.2,0-3.2-3.2-6.5-3.2l-3.2,3.2l-3.2,3.2l-3.2,3.2
		v3.2l-3.2,3.2v9.7l-3.2,9.7v9.7l-3.2,3.2h-6.5L716.2,1353.1z M800.3,1304.6c-3.2,0-3.2,0-3.2,3.2l-3.2,3.2v3.2h-3.2v-3.2h-9.7h-3.2
		v6.5c-3.2,0-3.2,3.2-3.2,3.2v25.9c3.2,3.2,6.5,3.2,6.5,3.2c3.2,0,9.7-6.5,12.9-9.7c0,3.2,0,3.2-3.2,3.2c0,3.2,0,3.2-3.2,6.5
		l-3.2,3.2l-3.2,3.2h-9.7c-3.2,0-6.5-6.5-6.5-9.7v-6.5v-9.7l3.2-3.2v-6.5l3.2-3.2l3.2-3.2l3.2-3.2l3.2-3.2l3.2-3.2h3.2l3.2-3.2h6.5
		L800.3,1304.6z M829.4,1301.3v3.2l-3.2,3.2v3.2l-3.2,3.2l-3.2,3.2c0,0,0,3.2-3.2,3.2c0,3.2-3.2,3.2-3.2,3.2v3.2
		c-3.2,0-3.2,0-3.2,3.2h-3.2v3.2l3.2,3.2v3.2h3.2v3.2h3.2c3.2,0,6.5,0,6.5-3.2c0,0,3.2,0,3.2-3.2v3.2l-3.2,3.2l-6.5,3.2
		c0,3.2-3.2,3.2-6.5,6.5l-3.2-3.2h-3.2v-3.2h-3.2v-3.2v-3.2v-6.5v-6.5l3.2-6.5v-9.7c3.2,0,3.2,0,6.5-6.5c3.2,0,3.2-3.2,3.2-3.2
		l6.5-3.2h3.2C826.2,1298.1,826.2,1298.1,829.4,1301.3z M816.5,1320.8c0-3.2,0-3.2,3.2-6.5v-6.5c0-3.2-3.2-3.2-3.2-3.2
		c-3.2,0-3.2,0-3.2,3.2v3.2H810v9.7c-3.2,0-3.2,3.2-3.2,3.2v3.2C813.2,1324,813.2,1324,816.5,1320.8z M1693.2,1294.9v48.5
		c0,3.2,0,6.5,3.2,6.5h-16.2v-3.2v-19.4c3.2,0,3.2-3.2,3.2-3.2v-29.1h-3.2h-3.2l-3.2,3.2c-3.2,0-3.2,0-6.5,3.2h-3.2v-6.5l22.6-6.5
		h6.5v-3.2V1294.9z M1725.6,1320.8c-3.2,0-3.2-3.2-6.5-3.2v-3.2h-3.2v-3.2l-3.2-3.2v-3.2c3.2-3.2,3.2-6.5,3.2-6.5l6.5-3.2l3.2-3.2
		h12.9l3.2,3.2c3.2,0,3.2,0,3.2,3.2h3.2v6.5c0,3.2,0,6.5-3.2,9.7h-3.2v3.2h-3.2c0,0-3.2,3.2,0,3.2l3.2,6.5h3.2l3.2,3.2l3.2,3.2v3.2
		l3.2,3.2v3.2c0,3.2,0,3.2-3.2,3.2c0,3.2,0,3.2-3.2,3.2c0,3.2-3.2,3.2-3.2,3.2l-3.2,3.2l-6.5,3.2h-6.5l-3.2-3.2h-3.2
		c-3.2-3.2-3.2-3.2-6.5-3.2c-3.2-3.2-6.5-6.5-6.5-9.7v-9.7l3.2-3.2l3.2-3.2h3.2l6.5-3.2V1320.8z M1732.1,1349.9h3.2v3.2h6.5
		c0,0,3.2,0,3.2-3.2v-3.2v-3.2h-3.2v-3.2l-3.2-3.2l-3.2-3.2l-3.2-3.2v-3.2l-3.2-3.2c0,0-3.2,0,0,0l-6.5,3.2l-3.2,3.2v3.2h-3.2
		c0,3.2,0,3.2,3.2,3.2c0,3.2,3.2,6.5,3.2,9.7h3.2c3.2,0,3.2,0,3.2,3.2H1732.1z M1735.3,1317.5l3.2-3.2v-9.7c0-3.2-3.2-3.2-6.5-6.5
		c0,0-3.2,0-6.5-3.2c0,0-3.2,0-3.2,3.2v6.5c3.2,0,3.2,3.2,3.2,3.2l3.2,3.2l3.2,3.2v3.2H1735.3z M1770.9,1349.9v3.2
		c0,3.2,0,3.2,3.2,3.2l6.5,3.2h9.7c3.2,0,3.2-3.2,3.2-3.2l3.2-3.2v-3.2l3.2-3.2v-6.5v-6.5v3.2h-3.2l-3.2,3.2l-3.2,3.2h-12.9v-3.2
		h-3.2l-3.2-3.2l-3.2-3.2v-3.2l-3.2-3.2v-9.7v-3.2c0-6.5,3.2-9.7,9.7-12.9h3.2l3.2-3.2h9.7l3.2,3.2l3.2,3.2l3.2,3.2l3.2,3.2v3.2
		c0,0,3.2,0,3.2,3.2v3.2c0,3.2,0,3.2,3.2,3.2v9.7c0,0,0,3.2-3.2,6.5v3.2c0,3.2,0,3.2-3.2,6.5v3.2l-3.2,3.2h-3.2v3.2h-3.2l-6.5,3.2
		c-3.2,3.2-9.7,3.2-9.7,3.2h-3.2l-3.2-3.2h-6.5l-3.2-3.2v-3.2l3.2-3.2c3.2,0,3.2,0,3.2-3.2H1770.9z M1777.4,1304.6
		c0,0-3.2,0-3.2,3.2v19.4l3.2,3.2l3.2,3.2c0,0,0,3.2,3.2,3.2h9.7c3.2,0,3.2-3.2,3.2-6.5c3.2,0,3.2,0,3.2-3.2v-3.2
		c-3.2,0-3.2-3.2-3.2-3.2v-3.2l-3.2-3.2c0-3.2-3.2-3.2-3.2-3.2l-3.2-3.2l-6.5-3.2H1777.4z M1825.9,1362.8l3.2,3.2l3.2,3.2h3.2
		l3.2,3.2h3.2l3.2,3.2l3.2-3.2l3.2-3.2v-3.2v-9.7c-3.2-3.2-3.2-6.5-6.5-6.5l-6.5-6.5c-3.2,0-6.5-3.2-9.7-3.2h-6.5V1324v-3.2v-3.2
		l-3.2-3.2v-3.2v-3.2l19.4,3.2l3.2,3.2h3.2l9.7,3.2l-3.2,3.2h-12.9l-6.5-3.2h-3.2v6.5h3.2v12.9h6.5c3.2,0,6.5,3.2,6.5,3.2l3.2,3.2
		h3.2c3.2,3.2,9.7,9.7,9.7,12.9v12.9h-3.2v3.2h-3.2l-3.2,3.2h-6.5l-6.5,3.2l-6.5-3.2h-6.5v-3.2h-3.2l-3.2-3.2l-3.2-3.2
		c0,0,3.2-3.2,6.5-3.2h6.5H1825.9z M874.7,1683.1l-19.4,3.2V1654l-126.2,29.1v55c0,9.7,0,19.4-3.2,25.9v-165c0-9.7,0-22.6,3.2-35.6
		v42.1l38.8-9.7v16.2l106.8-25.9v-103.5c-6.5-3.2-12.9-6.5-19.4-9.7v-16.2h-6.5c-35.6-19.4-80.9-25.9-126.2-16.2
		c-48.5,6.5-87.4,29.1-113.2,55c-25.9,32.4-32.4,67.9-32.4,103.5V1751c0,42,0,84.1,35.6,110c9.7,6.5,22.6,12.9,38.8,12.9
		c25.9,12.9,64.7,12.9,103.5,3.2c45.3-9.7,90.6-35.6,119.7-67.9L874.7,1683.1L874.7,1683.1L874.7,1683.1z M748.5,1550.5
		c16.2-3.2,19.4,12.9,19.4,29.1c-9.7,0-16.2,3.2-19.4,3.2v-16.2v-6.5V1550.5z M1217.6,1721.9v-174.7c0-12.9-3.2-29.1,12.9-35.6
		v-71.2h-19.4v-32.3h-9.7l-142.4,3.2v87.3l3.2,3.2c6.5,3.2,6.5,9.7,6.5,22.6v38.8h-25.9v-6.5c0-16.2,0-29.1,12.9-38.8v-71.2h-19.4
		v-32.4l-152.1,12.9v80.9l3.2,3.2c9.7,3.2,9.7,12.9,9.7,25.9v181.2c0,12.9,0,19.4-9.7,25.9l-3.2,3.2v84.1l38.8-3.2v12.9l132.7-9.7
		v-64.7c-12.9-9.7-12.9-22.6-12.9-38.8v-55l25.9-3.2v38.8c0,12.9,0,19.4-6.5,25.9l-3.2,3.2v77.6h35.6v16.2
		c51.8-6.5,135.9-3.2,135.9-3.2v-71.2C1214.4,1751,1217.6,1734.9,1217.6,1721.9L1217.6,1721.9z M1408.5,1514.9v-67.9h-19.4v-35.6
		l-152-3.2v84.1l6.5,3.2c6.5,3.2,6.5,12.9,6.5,25.9v181.2c0,12.9,0,19.4-6.5,25.9l-6.5,3.2v80.9h38.8v16.2
		c29.1-3.2,132.7,3.2,132.7,3.2v-71.2c-12.9-6.5-9.7-22.6-9.7-35.6v-174.7C1398.8,1537.5,1395.6,1521.3,1408.5,1514.9L1408.5,1514.9
		z M1693.2,1670.2v-32.3l-113.2-12.9v97.1v-155.3c0-16.2-3.2-29.1,9.7-38.8c0,0,3.2-51.8,3.2-71.2h-19.4v-32.3h-9.7
		c-45.3-6.5-132.6-12.9-132.6-12.9h-9.7v80.9l3.2,3.2c9.7,6.5,9.7,16.2,9.7,29.1v181.2c0,16.2,0,22.6-9.7,25.9l-3.2,3.2v84.1h35.6
		v16.2c87.3,3.2,255.6,25.9,255.6,25.9v-187.6L1693.2,1670.2z M1890.6,1579.6v-67.9c-3.2,0-9.7-3.2-19.4-6.5v-29.1l-6.5-3.2
		c-19.4-6.5-129.4-25.9-135.9-25.9l-9.7-3.2v84.1h3.2c6.5,9.7,9.7,16.2,9.7,29.1v184.4c0,12.9-3.2,16.2-6.5,19.4l-6.5,3.2v84.1
		l38.8,6.5v12.9c0,0,93.8,19.4,132.7,29.1v-71.2c-12.9-9.7-9.7-25.9-9.7-38.8v-171.5C1880.9,1599,1877.6,1586,1890.6,1579.6
		L1890.6,1579.6z"/>
	<path  className="st2" d="M738.8,1569.9c0-16.2,3.2-42-19.4-35.6c-25.9,3.2-22.6,29.1-22.6,45.3v161.8c0,16.2,0,42,22.6,38.8
		c22.6-6.5,19.4-32.4,19.4-48.5v-42.1l106.8-25.9v129.4c-29.1,32.4-74.4,55-119.7,67.9c-45.3,9.7-87.4,9.7-110-9.7
		c-29.1-22.6-29.1-64.7-29.1-103.5V1599c0-35.6,3.2-67.9,29.1-97c25.9-25.9,64.7-45.3,106.8-51.8c42.1-9.7,87.4-3.2,122.9,12.9
		v106.8l-106.8,22.6L738.8,1569.9L738.8,1569.9L738.8,1569.9z M1201.5,1802.8l-135.9,6.5v-67.9c12.9-9.7,12.9-22.6,12.9-38.8v-55
		l-61.5,3.2v58.2c0,12.9-3.2,25.9,9.7,35.6v64.7l-132.6,12.9V1751c12.9-9.7,12.9-22.6,12.9-38.8v-171.5c0-12.9,0-29.1-12.9-38.8
		V1434l132.6-9.7v71.2c-12.9,9.7-9.7,22.6-9.7,38.8v42l61.5-3.2V1531c0-16.2,0-29.1-12.9-38.8v-71.2l135.9-3.2v67.9
		c-12.9,9.7-12.9,25.9-12.9,38.8v174.7c0,12.9,0,29.1,12.9,35.6L1201.5,1802.8L1201.5,1802.8z M1259.7,1524.6c0-12.9,0-29.1-13-38.8
		v-67.9l135.9,3.2v67.9c-12.9,9.7-12.9,22.6-12.9,38.8v171.5c0,16.2,0,29.1,12.9,38.8v71.2c-55-6.5-135.9-6.5-135.9-6.5v-68
		c13-6.5,13-22.6,13-35.6V1524.6z M1431.2,1809.3v-67.9c12.9-9.7,9.7-22.6,9.7-38.8l3.2-174.7c0-12.9,0-29.1-12.9-38.8v-67.9
		c0,0,84.1,3.2,132.6,9.7v71.2c-12.9,6.5-12.9,22.6-12.9,35.6v200.6l9.7,3.2c29.1,0,29.1-16.2,29.1-42v-64.7l93.8,9.7v190.9
		C1583.2,1819,1431.2,1809.3,1431.2,1809.3L1431.2,1809.3z M1738.5,1563.4c0-16.2,3.2-29.1-9.7-42v-67.9c0,0,113.2,22.6,132.6,29.1
		v68c-12.9,6.5-9.7,19.4-9.7,35.6v171.5c0,12.9-3.2,29.1,9.7,38.8v71.2l-132.6-29.1v-67.9c12.9-6.5,9.7-22.6,9.7-35.6V1563.4
		L1738.5,1563.4z"/>
</g>
</svg>
