 <svg viewBox="0 0 190 187" style="enable-background:new 0 0 190 187;"  >
<style type="text/css">
	.st0{fill:#EA6D07;}
</style>
<path  className="st0" d="M84.1,113.1h29.3h9.2c14.6,0,26.4-11.8,26.4-26.4v-6.6V36V9.5h-26.4l0.2,26.2v13v21.7v3.2c0,7.2-5.8,13-13,13
	h-4.5H84.1V113.1z M84.1,86.8v26.2h30.3 M84.1,86.8v26.2h29.3 M71.7,86.8v-13V54.6v-5.8c0-7.2,5.8-13,13-13h1.4h23.9V9.5H74.8h-2.9
	C57.3,9.5,45.5,21.4,45.5,36v11.7v38.9v26.4h26.4L71.7,86.8z"/>
<g>
	<g>
		<path d="M12.4,158c-0.6-0.5-0.8-1.1-0.8-1.6c0-3.5,0-6.5,0.1-9c0.1-2.5,0.1-4.5,0.2-6.1c0.1-1.6,0.2-2.9,0.3-3.8
			c0.1-0.9,0.2-1.6,0.4-2c0.2-0.5,0.3-0.7,0.5-0.8c0.2-0.1,0.3-0.2,0.5-0.2c0.6,0,1,0.2,1.3,0.4c0.3,0.3,0.6,0.6,0.7,1
			c0.2,0.5,0.3,0.9,0.3,1.5c0.1,0.6,0.1,1.1,0.1,1.6v0.9c0,0.5,0,1.2,0,2c0,0.8,0,1.7,0,2.8c-0.1,1.2-0.1,2.5-0.1,4.2
			c1-2.6,1.9-4.8,2.8-6.5c0.9-1.7,1.8-3.1,2.6-4.2c0.8-1.1,1.6-1.8,2.4-2.2c0.8-0.5,1.4-0.7,2-0.7c0.7,0,1.2,0.2,1.7,0.5
			c0.5,0.4,0.8,0.8,1.2,1.3c0.3,0.6,0.6,1.2,0.7,1.8c0.2,0.7,0.2,1.4,0.3,2c0,0.2-0.1,0.5-0.2,0.9c-0.2,0.4-0.6,0.6-1.3,0.6
			c-0.8,0-1.4-0.3-1.8-0.9c-0.4-0.6-0.6-1.1-0.6-1.7c0-0.5-0.2-0.8-0.6-0.8s-0.9,0.3-1.6,1c-0.8,0.7-1.5,1.7-2.4,3.1
			s-1.8,3.2-2.7,5.4c-1,2.2-1.8,4.8-2.6,7.8c-0.1,0.9-0.2,1.5-0.5,1.9c-0.3,0.4-0.7,0.6-1,0.6C13.4,158.8,12.9,158.5,12.4,158z"/>
		<path d="M35.2,157.3c-0.7-0.3-1.3-0.7-1.8-1.2c-0.6-0.6-1-1.4-1.4-2.3c-0.4-1-0.6-2.2-0.6-3.6c0-1.7,0.1-3.4,0.3-5
			c0.2-1.6,0.5-2.9,0.7-4.1c0.3-1.4,0.7-2.7,1-4c0.1-0.3,0.3-0.5,0.5-0.7c0.2-0.2,0.5-0.2,0.7-0.2c0.5,0,0.9,0.2,1.3,0.5
			c0.4,0.4,0.6,0.8,0.7,1.4c0,0.9-0.1,1.8-0.2,2.7c-0.2,1-0.3,2-0.4,3.1c-0.2,1.1-0.3,2.3-0.5,3.7c-0.2,1.4-0.2,2.9-0.2,4.6
			c0,0.7,0.1,1.2,0.4,1.7c0.2,0.5,0.5,1,0.7,1.4c0.3,0.4,0.5,0.8,0.7,1.1c0.2,0.4,0.3,0.6,0.3,0.9c0,0.3-0.1,0.4-0.4,0.6
			C36.4,157.7,35.8,157.5,35.2,157.3z M34,131.9c-0.4-0.2-0.6-0.4-0.8-0.6c-0.2-0.3-0.4-0.5-0.5-0.7c-0.1-0.3-0.2-0.4-0.2-0.6
			c0-0.8,0.2-1.4,0.5-1.8c0.4-0.4,0.7-0.5,1.2-0.5c0.6,0,1.1,0.3,1.6,0.7c0.4,0.5,0.6,1.2,0.7,2c0,0.1,0,0.3,0,0.5
			c-0.1,0.2-0.1,0.4-0.2,0.6c-0.1,0.2-0.3,0.4-0.4,0.5c-0.2,0.2-0.5,0.2-0.8,0.2C34.7,132.1,34.3,132,34,131.9z"/>
		<path d="M44.9,156.8c-1-0.6-1.9-1.5-2.6-2.5c-0.8-1.1-1.3-2.3-1.7-3.7c-0.5-1.5-0.7-3-0.7-4.7c0-1.6,0.2-3.1,0.6-4.6
			c0.4-1.5,0.9-2.7,1.6-3.8c0.7-1.1,1.6-1.9,2.6-2.6c1-0.7,2.1-1,3.3-1s2.3,0.3,3.1,0.8c0.8,0.5,1.5,1.1,2,1.7
			c0.5,0.7,0.8,1.2,1,1.8c0.2,0.6,0.3,0.9,0.3,1c0,0.2-0.1,0.4-0.2,0.6c-0.2,0.3-0.3,0.4-0.4,0.4c-0.2-0.4-0.5-0.8-0.8-1.3
			c-0.4-0.5-0.7-0.9-1.1-1.3c-0.5-0.4-0.9-0.8-1.4-1.1c-0.5-0.3-1-0.4-1.5-0.4c-0.9,0-1.7,0.4-2.3,1.2c-0.7,0.9-1.2,1.8-1.6,3
			c-0.4,1.2-0.7,2.4-0.9,3.6c-0.2,1.3-0.3,2.3-0.3,3c0,1.2,0.2,2.2,0.4,3.3c0.3,1.1,0.6,2,1,2.7c0.5,0.8,1,1.4,1.6,1.8
			c0.6,0.5,1.3,0.7,2,0.7c0.7,0,1.5-0.3,2.2-0.7c0.8-0.5,1.6-1.2,2.4-2.2c0.2-0.2,0.3-0.3,0.5-0.3c0.3,0,0.6,0.1,0.8,0.3
			c0.3,0.3,0.4,0.5,0.4,0.7c0,0.1-0.2,0.4-0.6,0.9c-0.4,0.5-0.9,1-1.5,1.5c-0.7,0.6-1.4,1-2.3,1.4c-0.9,0.5-1.8,0.7-2.8,0.7
			C47,157.7,45.9,157.4,44.9,156.8z"/>
		<path d="M60,157.7c-0.4-0.2-0.7-0.5-1-1c-0.1-0.1-0.1-0.1-0.2-0.3c-0.1-0.2-0.2-0.6-0.3-1.4c-0.1-0.8-0.2-2-0.3-3.7
			c-0.1-1.7-0.2-4.1-0.2-7.2c0-1.7,0.1-3.5,0.2-5.5c0.1-2,0.2-4,0.4-6.1c0.2-2.1,0.3-4,0.6-6c0.3-1.9,0.5-3.6,0.8-5.2
			c0.3-1.5,0.6-2.7,1-3.6c0.4-0.9,0.8-1.4,1.2-1.4c0.1,0,0.2,0,0.3,0.1c0.2,0.1,0.3,0.2,0.5,0.3c0.2,0.2,0.3,0.4,0.5,0.8
			c0.1,0.4,0.2,0.9,0.2,1.6c0,0.5-0.1,1.5-0.2,3.1c-0.2,1.7-0.4,3.6-0.6,6c-0.2,2.4-0.4,5.1-0.5,8c-0.2,3-0.3,6-0.3,9.2l0.1,3.2
			c0.8-3,1.6-5.5,2.6-7.5c0.9-2,1.9-3.6,2.9-4.9c1-1.2,1.9-2.1,2.9-2.6s1.8-0.8,2.6-0.8c1,0,1.7,0.3,2.3,1c0.6,0.7,0.9,1.5,0.9,2.5
			c0,0.6-0.2,1.4-0.6,2.4c-0.4,1.1-1,2.3-1.8,3.5c-0.9,1.3-2,2.5-3.3,3.6c-1.4,1.2-3.1,2.1-5.1,2.8c1.9,1.9,3.4,3.2,4.5,4.2
			c1.1,1,1.9,1.6,2.5,2.1c0.6,0.5,0.9,0.8,1.1,1c0.2,0.2,0.2,0.5,0.2,0.8c0,0.2-0.1,0.4-0.2,0.6c-0.2,0.3-0.5,0.5-0.9,0.5
			c-0.4,0-0.9-0.3-1.6-0.9c-0.8-0.6-1.6-1.2-2.5-2c-0.9-0.8-1.8-1.7-2.7-2.7c-0.9-1-1.7-1.8-2.2-2.6c-0.3,1-0.5,1.9-0.7,2.8
			c-0.2,1-0.4,1.7-0.5,2.3c0.1,0.7,0.1,1,0.1,1.2c0,0.2,0,0.3,0,0.5c0,0.1,0,0.2,0,0.3c-0.1,0.2-0.1,0.4-0.2,0.6
			c-0.1,0.2-0.3,0.4-0.5,0.5c-0.2,0.2-0.5,0.3-0.8,0.3S60.3,157.9,60,157.7z M68.5,144c1.1-1,2.1-2,2.8-3.1c0.8-1.1,1.3-2,1.7-3
			c0.4-1,0.6-1.6,0.6-2.1c0-0.7-0.3-1.1-0.8-1.1c-0.5,0-1,0.3-1.7,0.7c-0.7,0.5-1.4,1.2-2.1,2.1c-0.8,1-1.6,2.2-2.3,3.6
			c-0.8,1.5-1.5,3.2-2.2,5.2C66,145.8,67.4,145,68.5,144z"/>
	</g>
	<g>
		<path d="M76.1,182.1c-0.5-0.1-1-0.1-1.5-0.3s-1-0.4-1.3-0.6c-0.4-0.3-0.6-0.6-0.6-1c0-0.3,0.1-0.5,0.3-0.7
			c0.2-0.2,0.3-0.2,0.5-0.2c0.5,0.1,0.9,0.1,1.3,0.2c0.4,0.1,0.7,0.1,1.1,0.1c1.9,0,3.4-0.6,4.7-1.6c1.2-1.1,2.2-2.6,3-4.5
			c0.8-1.9,1.3-4.1,1.7-6.6s0.7-5.3,0.9-8.1c0.2-2.9,0.3-5.9,0.4-9.1c0.1-3.1,0.3-6.2,0.4-9.3c0.1-0.2,0.1-0.4,0.1-0.7
			c0.1-0.3,0.1-0.6,0.2-0.9c0.1-0.3,0.3-0.5,0.5-0.7c0.2-0.2,0.5-0.3,0.9-0.3c0.5,0,0.8,0.2,1.1,0.4c0.3,0.3,0.4,0.6,0.6,1
			c0.2,0.4,0.2,0.9,0.3,1.3c0.1,0.5,0.1,0.9,0.1,1.3v4.5c0,2.4-0.1,5-0.1,7.7c-0.1,2.7-0.3,5.4-0.5,8c-0.3,2.7-0.7,5.2-1.3,7.6
			c-0.6,2.4-1.4,4.6-2.3,6.4c-1,1.9-2.3,3.3-3.7,4.4c-1.5,1.1-3.3,1.7-5.4,1.7C76.9,182.2,76.6,182.2,76.1,182.1z M87,135.1
			c-0.5-0.6-0.7-1.2-0.7-1.7c0-0.4,0.1-0.7,0.3-1c0.2-0.3,0.5-0.4,0.9-0.4c0.4,0,0.7,0.1,1.1,0.2c0.5,0.3,0.9,0.6,1.2,1
			c0.3,0.5,0.5,0.9,0.5,1.3c0,0.7-0.4,1.1-1,1.3l-0.6,0.1C88,135.9,87.4,135.6,87,135.1z"/>
		<path d="M105.3,157.9c-0.3-0.3-0.6-0.5-0.7-0.9c-0.2-0.3-0.4-0.6-0.4-0.9c-0.1-0.3-0.2-0.4-0.2-0.5c-1.2,1.6-2.5,2.4-4.1,2.4
			c-1.2,0-2.2-0.6-3.2-1.7c-1-1.1-1.4-2.8-1.4-5.2c0-0.8,0.1-1.7,0.3-2.7c0.2-1,0.4-2,0.8-2.9c0.4-1,0.9-1.7,1.6-2.4
			c0.7-0.7,1.6-1,2.6-1c0.9,0,1.7,0.3,2.4,0.9c0.8,0.6,1.4,1.3,1.9,1.9c0.2-0.7,0.3-1.3,0.4-2c0.1-0.7,0.1-1.4,0.1-2.1
			c0-0.7-0.1-1.4-0.2-2c-0.1-0.6-0.3-1.2-0.5-1.7c-0.3-0.5-0.6-0.9-1-1.2c-0.4-0.3-0.9-0.4-1.5-0.4c-1.3,0.1-2.3,0.5-3,1.4
			c-0.7,0.9-1.3,1.8-1.6,2.8c-0.4,1.1-0.7,2-0.8,2.8c-0.2,0.9-0.5,1.3-0.9,1.3c-0.3,0-0.5-0.1-0.8-0.4c-0.3-0.2-0.4-0.5-0.4-0.7
			c0-1.6,0.3-2.9,0.7-4.1c0.5-1.2,1-2.2,1.8-3c0.8-0.8,1.6-1.4,2.5-1.9c1-0.4,1.9-0.6,2.8-0.6c0.9,0,1.7,0.2,2.5,0.5
			c0.8,0.4,1.5,0.9,2.1,1.6c0.6,0.7,1.1,1.6,1.5,2.7s0.6,2.3,0.6,3.8c0,1.1-0.1,2.1-0.3,3.1c-0.2,1-0.4,2-0.6,3
			c-0.3,1-0.5,1.9-0.6,2.9c-0.2,1-0.3,1.9-0.3,2.9c0,1.1,0.1,1.8,0.3,2.2c0.2,0.5,0.3,0.8,0.3,1.1c0,0.4-0.2,0.7-0.5,1
			c-0.4,0.3-0.7,0.4-1.1,0.4C106,158.3,105.6,158.2,105.3,157.9z M101.9,154.8c0.5-0.7,1.1-1.8,1.8-3.4c0.1-0.7,0.2-1.3,0.3-2
			c0.1-0.7,0.2-1.3,0.4-2c-0.5-1-0.9-1.7-1.3-2.1c-0.4-0.4-0.8-0.6-1.2-0.6c-0.4,0-0.8,0.3-1.1,0.7c-0.4,0.5-0.6,1.1-0.8,1.8
			c-0.3,0.8-0.4,1.6-0.5,2.4c-0.2,0.9-0.2,1.7-0.2,2.5c0,1.1,0.1,1.9,0.3,2.6c0.2,0.7,0.5,1.1,0.9,1.1
			C100.9,155.8,101.4,155.4,101.9,154.8z"/>
		<path d="M121.9,159.4c-0.4-0.8-0.6-1.8-0.6-3c0-1.3,0.2-2.6,0.5-4.1c0.3-1.5,0.6-2.9,0.9-4.3c0.4-1.3,0.7-2.5,1-3.4
			c0.3-1,0.5-1.6,0.5-1.8c0.2-1,0.3-1.9,0.3-2.5c0-1.1-0.3-1.7-0.8-1.7c-0.4,0-0.9,0.4-1.5,1.1c-0.6,0.7-1.2,1.7-1.9,3.1
			c-0.7,1.4-1.3,3-2,5c-0.7,2-1.2,4.3-1.7,6.8c-0.1,0.6-0.1,1.1-0.1,1.6c0,0.5-0.1,0.9-0.1,1.2c-0.1,0.4-0.3,0.6-0.5,0.8
			c-0.2,0.2-0.6,0.3-1,0.3c-0.6,0-1.1-0.2-1.5-0.6c-0.5-0.4-0.7-0.8-0.8-1.2c-0.1-0.1-0.1-0.3-0.1-0.6c0-0.3,0-0.6,0-1
			c0-1.1,0.1-2.6,0.1-4.5c0.1-1.8,0.2-3.6,0.4-5.5c0.2-1.8,0.3-3.5,0.5-5c0.2-1.5,0.4-2.3,0.7-2.6c0.2-0.2,0.5-0.3,0.7-0.3
			c0.8,0,1.3,0.4,1.6,1.3c0.3,0.9,0.4,2,0.4,3.4c0,0.7,0,1.4-0.1,2.1c-0.1,0.8-0.1,1.6-0.1,2.4c0.3-0.9,0.7-2,1.2-3.2
			c0.5-1.2,1.1-2.3,1.8-3.4c0.7-1.1,1.4-1.9,2.1-2.7c0.8-0.8,1.6-1.1,2.4-1.1c0.1,0,0.4,0.1,0.8,0.1c0.4,0.1,0.9,0.3,1.3,0.7
			c0.5,0.4,0.9,0.9,1.2,1.5c0.4,0.7,0.6,1.6,0.6,2.8c0,1.3-0.2,2.6-0.6,4c-0.4,1.4-0.8,2.8-1.2,4.4c-0.5,1.5-0.9,3.1-1.2,4.8
			c-0.4,1.7-0.6,3.5-0.6,5.5c0,0.3-0.1,0.5-0.3,0.7c-0.2,0.2-0.4,0.2-0.7,0.2C122.9,160.6,122.2,160.2,121.9,159.4z"/>
		<path d="M144,158c-0.4-0.3-0.6-0.7-0.8-1.2c-0.2-0.5-0.4-1-0.4-1.6c-0.1-0.6-0.1-1.1-0.1-1.7v-0.4c-0.9,1.6-1.8,2.9-2.8,3.7
			c-1,0.9-2.1,1.4-3.2,1.4c-0.7,0-1.3-0.2-2-0.5c-0.7-0.4-1.4-0.9-1.9-1.6c-0.6-0.7-1.1-1.6-1.4-2.6s-0.6-2.3-0.6-3.7
			c0-0.3,0.1-0.8,0.1-1.5c0.1-0.7,0.2-1.5,0.3-2.5c0.1-0.9,0.3-1.9,0.5-2.9c0.2-1,0.5-1.9,0.7-2.8c0.3-0.9,0.5-1.5,0.9-2.1
			c0.3-0.6,0.7-0.8,1.1-0.8c0.1,0,0.2,0,0.4,0.1c0.2,0.1,0.4,0.2,0.6,0.3c0.2,0.2,0.4,0.4,0.5,0.7c0.2,0.3,0.2,0.7,0.2,1.2
			c0,0.4-0.1,0.9-0.2,1.8c-0.2,0.9-0.4,1.8-0.6,2.8c-0.2,1.1-0.4,2.2-0.5,3.4c-0.2,1.2-0.3,2.3-0.3,3.3c0,2,0.2,3.2,0.5,3.9
			c0.4,0.7,0.7,1,1.1,1c0.4,0,0.8-0.2,1.2-0.5c0.4-0.3,0.6-0.5,0.7-0.5c0.7-0.7,1.4-1.5,2-2.5c0.6-1,1.2-2,1.7-3c0.5-1,1-2,1.4-3
			c0.5-1,0.8-1.9,1.1-2.6c0.2-0.7,0.3-1.4,0.4-2c0.1-0.6,0.3-1.2,0.4-1.6c0.2-0.5,0.4-0.9,0.6-1.1c0.3-0.3,0.6-0.4,0.9-0.4
			c0.5,0,1,0.2,1.5,0.6c0.5,0.4,0.7,1.1,0.7,2c0,0.4-0.1,1.1-0.3,2.1c-0.3,1.1-0.5,2.2-0.7,3.5c-0.3,1.3-0.5,2.6-0.7,4
			c-0.3,1.4-0.4,2.6-0.4,3.6c0,0.4,0,0.7,0.1,1c0,0.4,0,0.7,0.1,0.9c0.1,0.3,0.1,0.6,0.1,0.9c0,0.7-0.2,1-0.6,1.2
			c-0.4,0.2-0.7,0.3-0.9,0.3C144.7,158.4,144.3,158.3,144,158z"/>
		<path d="M154.9,158.6c-0.8-0.2-1.4-0.5-2-0.9c-0.6-0.4-1.2-0.8-1.6-1.3c-0.5-0.5-1-1-1.5-1.6c-0.2-0.2-0.3-0.5-0.3-0.8
			c0-0.6,0.3-0.8,0.8-0.8c0.2,0,0.5,0.2,0.9,0.4c0.4,0.3,0.9,0.6,1.5,1s1.2,0.7,2,1c0.7,0.3,1.5,0.5,2.3,0.5c0.7,0,1.3-0.1,1.9-0.3
			c2-1,2.9-2.3,2.9-4.1c0-0.7-0.2-1.4-0.5-2.1c-0.4-0.7-0.9-1.4-1.6-2.1c-1.3-1.2-2.3-2.2-3.3-2.9c-1-0.8-1.8-1.4-2.4-2.1
			c-0.7-0.7-1.2-1.3-1.5-1.9c-0.4-0.7-0.5-1.4-0.5-2.4c0-0.7,0.2-1.4,0.4-2.1c0.3-0.7,0.6-1.2,1.1-1.8c0.5-0.6,1.1-1,1.7-1.3
			c0.7-0.3,1.4-0.5,2.3-0.5c0.6,0,1.1,0.1,1.6,0.3c0.5,0.2,0.8,0.4,1.1,0.6c0.3,0.3,0.5,0.5,0.6,0.8c0.2,0.3,0.2,0.5,0.2,0.7
			c0,0.3-0.1,0.5-0.3,0.8c-0.2,0.3-0.6,0.4-1,0.4c-1.3,0-2.2,0.3-2.8,0.8c-0.6,0.6-0.9,1.2-0.9,2.1c0,0.7,0.3,1.5,0.7,2.4
			c0.5,0.9,1.1,1.8,2,2.6c0.7,0.6,1.3,1.2,2.1,1.8c0.7,0.7,1.4,1.3,2,2c0.6,0.8,1.1,1.5,1.5,2.3c0.4,0.9,0.6,1.8,0.6,2.7
			c0,1.1-0.3,2.1-0.7,2.8c-0.5,0.8-1.1,1.5-1.8,1.9c-0.7,0.5-1.5,0.9-2.3,1.1c-0.9,0.3-1.7,0.4-2.5,0.4
			C156.6,158.9,155.7,158.8,154.9,158.6z"/>
		<path d="M166.4,157.9c-0.6-0.4-0.8-1-0.8-1.6c0-0.3,0.4-1.1,1.3-2.4c0.9-1.3,1.9-2.7,3.1-4.4c1.3-1.7,2.6-3.4,4-5.3
			c1.4-1.8,2.7-3.4,3.8-4.9l-6.7,0.2c-0.3,0-0.6,0-0.9-0.1c-0.4,0-0.8-0.1-1.1-0.2c-0.4-0.1-0.7-0.2-0.9-0.4
			c-0.3-0.2-0.4-0.3-0.4-0.6c0-0.3,0.2-0.4,0.7-0.6c0.4-0.2,1.1-0.3,2-0.3c1-0.1,2.2-0.2,3.7-0.2c1.6-0.1,3.4-0.2,5.7-0.2
			c0.2-0.1,0.4-0.2,0.5-0.2s0.4-0.1,0.5-0.1c0.1,0,0.3,0,0.5,0.1c0.2,0.1,0.4,0.2,0.7,0.3c0.3,0.2,0.5,0.3,0.6,0.6
			c0.2,0.3,0.3,0.6,0.3,1c0,0.5-0.2,1.1-0.6,1.7c-0.5,0.6-1.1,1.5-2.1,2.7c-1,1.2-2.2,2.8-3.7,4.8c-1.5,2-3.4,4.6-5.6,7.7
			c0.4-0.1,1-0.1,2.1-0.1c1.1-0.1,2.2-0.1,3.3-0.1c1.4,0,2.6,0.1,3.8,0.1c1.2,0.1,1.9,0.3,2.3,0.6c0.4,0.4,0.6,0.7,0.6,1.1
			c0,0.3-0.1,0.5-0.3,0.7c-0.3,0.3-0.6,0.4-1,0.4c-0.1,0-0.4,0-0.8-0.1c-0.5-0.1-1-0.1-1.7-0.2c-0.8-0.1-1.6-0.1-2.5-0.1
			c-1-0.1-2-0.1-3-0.1c-1.5,0-3,0.1-4.6,0.2c-0.3,0.3-0.6,0.4-1.1,0.4C167.4,158.5,166.9,158.3,166.4,157.9z"/>
	</g>
</g>
</svg>
