<?xml version="1.0" encoding="utf-8"?>
<!-- Generator: Adobe Illustrator 23.0.6, SVG Export Plug-In . SVG Version: 6.00 Build 0)  -->
<svg version="1.1" id="Layer_1" xmlns="http://www.w3.org/2000/svg" xmlns:xlink="http://www.w3.org/1999/xlink" x="0px" y="0px"
	 viewBox="0 0 131 134" style="enable-background:new 0 0 131 134;" xml:space="preserve">
<style type="text/css">
	.st0{fill:#EA6D07;}
</style>
<path class="st0" d="M53.5,117.4h29.3H92c14.6,0,26.4-11.8,26.4-26.4v-6.6V40.3V13.9H92l0.2,26.2v13v21.7v3.2c0,7.2-5.8,13-13,13
	h-4.5H53.5V117.4z M53.5,91.2v26.2h30.3 M53.5,91.2v26.2h29.3 M41.1,91.2v-13V59v-5.8c0-7.2,5.8-13,13-13h1.4h23.9V13.9H44.2h-2.9
	c-14.6,0-26.4,11.8-26.4,26.4v11.7V91v26.4h26.4L41.1,91.2z"/>
</svg>
