<svg viewBox="0 0 676.1 3963.2" id="svg">
  <g id="Layer_2" data-name="Layer 2">
    <g id="Layer_1-2" data-name="Layer 1">
      <path id="theLine" d="M338,0V3963.2" fill="none" stroke="#000" stroke-miterlimit="10" stroke-width="2"/>
      <path id="line01" d="M0,129.3H676.1" fill="none" stroke="#000" stroke-miterlimit="10" stroke-width="2"/>
      <path id="line02" d="M0,662.1H676.1" fill="none" stroke="#000" stroke-miterlimit="10" stroke-width="2"/>
      <path id="line03" d="M0,1195.9H676.1" fill="none" stroke="#000" stroke-miterlimit="10" stroke-width="2"/>
      <path id="line04" d="M0,1729.1H676.1" fill="none" stroke="#000" stroke-miterlimit="10" stroke-width="2"/>
      <path id="line05" d="M0,2261.3H676.1" fill="none" stroke="#000" stroke-miterlimit="10" stroke-width="2"/>
      <path id="line06" d="M0,2793.8H676.1" fill="none" stroke="#000" stroke-miterlimit="10" stroke-width="2"/>
      <path id="line07" d="M0,3326.6H676.1" fill="none" stroke="#000" stroke-miterlimit="10" stroke-width="2"/>
      <path id="line08" d="M0,3881.6H676.1" fill="none" stroke="#000" stroke-miterlimit="10" stroke-width="2"/>
      <circle id="ball01" cx="100" cy="129.3" r="47.5" stroke="#000" stroke-miterlimit="10" stroke-width="2"/>
      <circle id="ball02" cx="337.9" cy="662.1" r="47.5" stroke="#000" stroke-miterlimit="10" stroke-width="2"/>
      <circle id="ball03" cx="337.9" cy="1195.9" r="47.5" stroke="#000" stroke-miterlimit="10" stroke-width="2"/>
      <circle id="ball04" cx="337.9" cy="1729.1" r="47.5" stroke="#000" stroke-miterlimit="10" stroke-width="2"/>
      <circle id="ball05" cx="337.9" cy="2261.3" r="47.5" stroke="#000" stroke-miterlimit="10" stroke-width="2"/>
      <circle id="ball06" cx="337.9" cy="2793.8" r="47.5" stroke="#000" stroke-miterlimit="10" stroke-width="2"/>
      <circle id="ball07" cx="337.9" cy="3326.6" r="47.5" stroke="#000" stroke-miterlimit="10" stroke-width="2"/>
      <circle id="ball08" cx="338.2" cy="3881.6" r="47.5" stroke="#000" stroke-miterlimit="10" stroke-width="2"/>
      <path id="text01" d="M325.1,126.6l-10.4,7.3h7.1v-.8h3.3v4H310.6l-.7-3.8,11.7-8.2a3.7,3.7,0,0,0-.2-1.2,1.3,1.3,0,0,0-.9-.4h-6.9c-.1,0-.3.2-.4.4s-.1.6-.1,1.1v.2h-3.3v-1.8a3,3,0,0,1,.9-2.5,4,4,0,0,1,2.4-.7h8.6a3.2,3.2,0,0,1,1.6.4,3.7,3.7,0,0,1,1.3,1.2,3.5,3.5,0,0,1,.5,1.8Zm15.8-5.6a2.8,2.8,0,0,1,1,2.5v10.4a2.8,2.8,0,0,1-1,2.5,4.2,4.2,0,0,1-2.3.7h-8.2a3.3,3.3,0,0,1-1.7-.4,4.2,4.2,0,0,1-1.5-1.1,2.7,2.7,0,0,1-.6-1.7H338c.2,0,.3-.2.4-.4a6.4,6.4,0,0,0,.2-.9v-7.6a8.7,8.7,0,0,0-.2-1c-.1-.2-.2-.3-.4-.3h-6.8a1,1,0,0,0-.8.3,1.3,1.3,0,0,0-.3,1v7.5h-3.5v-8.6a2.8,2.8,0,0,1,.6-1.8,3.3,3.3,0,0,1,1.4-1.2,3.9,3.9,0,0,1,1.8-.4h8.2A3.5,3.5,0,0,1,340.9,121Zm17.8,5.6-10.5,7.3h7.2v-.8h3.3v4H344.2l-.7-3.8,11.7-8.2a3.7,3.7,0,0,0-.2-1.2,1.3,1.3,0,0,0-.9-.4h-6.9c-.1,0-.3.2-.4.4s-.1.6-.1,1.1v.2h-3.3v-1.8a3,3,0,0,1,.9-2.5,4,4,0,0,1,2.4-.7h8.6a3.2,3.2,0,0,1,1.6.4,3.7,3.7,0,0,1,1.3,1.2,3.5,3.5,0,0,1,.5,1.8Zm5.4-5.8a4.5,4.5,0,0,1,2,3.5v12.8h-3.5V125.3a2.5,2.5,0,0,0-.3-1.3c-.2-.4-.6-.5-1.2-.5h-.9v-3.2h1.9A4.6,4.6,0,0,1,364.1,120.8Z" fill="#fff"/>
      <path id="text02" d="M320.4,659.5l-10.5,7.3H317v-.9h3.4v4H305.8l-.6-3.8,11.7-8.1a3.7,3.7,0,0,0-.2-1.2,1.1,1.1,0,0,0-.9-.5h-6.9l-.4.4a4.1,4.1,0,0,0-.1,1.2H305v-1.8a3.1,3.1,0,0,1,1-2.5,4.8,4.8,0,0,1,2.4-.7h8.5a4.7,4.7,0,0,1,1.7.4,4.9,4.9,0,0,1,1.3,1.2,3.5,3.5,0,0,1,.5,1.8Zm15.8-5.7a2.8,2.8,0,0,1,1,2.5v10.5a2.7,2.7,0,0,1-1,2.4,3.8,3.8,0,0,1-2.4.7h-8.2a3.8,3.8,0,0,1-1.7-.4,3.6,3.6,0,0,1-1.4-1.1,3.3,3.3,0,0,1-.7-1.7h11.5a.5.5,0,0,0,.4-.3,2.8,2.8,0,0,0,.1-1v-7.5a2.5,2.5,0,0,0-.1-1c-.1-.2-.3-.3-.4-.4h-6.8c-.4,0-.7.1-.8.3a1.3,1.3,0,0,0-.3,1V665h-3.5v-8.6a2.8,2.8,0,0,1,.6-1.8,4.4,4.4,0,0,1,1.5-1.2,4.7,4.7,0,0,1,1.7-.4h8.2A4.5,4.5,0,0,1,336.2,653.8Zm17.8,5.7-10.5,7.3h7.1v-.9H354v4H339.4l-.6-3.8,11.7-8.1a3.7,3.7,0,0,0-.2-1.2,1.1,1.1,0,0,0-.9-.5h-6.9a.8.8,0,0,0-.4.4,4.1,4.1,0,0,0-.1,1.2h-3.4v-1.8a3.1,3.1,0,0,1,1-2.5,4.8,4.8,0,0,1,2.4-.7h8.5a4.7,4.7,0,0,1,1.7.4,4.9,4.9,0,0,1,1.3,1.2,3.5,3.5,0,0,1,.5,1.8Zm15.8-5.7a2.8,2.8,0,0,1,1,2.5v10.5a2.7,2.7,0,0,1-1,2.4,3.8,3.8,0,0,1-2.4.7h-8.2a3.8,3.8,0,0,1-1.7-.4,3.6,3.6,0,0,1-1.4-1.1,3.3,3.3,0,0,1-.7-1.7h11.5a.5.5,0,0,0,.4-.3,2.8,2.8,0,0,0,.1-1v-7.5a2.5,2.5,0,0,0-.1-1l-.4-.4h-6.8c-.4,0-.7.1-.8.3a1.3,1.3,0,0,0-.3,1V665h-3.5v-8.6a2.8,2.8,0,0,1,.6-1.8,4.4,4.4,0,0,1,1.5-1.2,4.7,4.7,0,0,1,1.7-.4h8.2A4.5,4.5,0,0,1,369.8,653.8Z" fill="#fff"/>
      <path id="text03" d="M325.1,1193.3l-10.4,7.3h7.1v-.9h3.3v4H310.6l-.7-3.8,11.7-8.1a3.7,3.7,0,0,0-.2-1.2,1.3,1.3,0,0,0-.9-.5h-6.9l-.4.4c0,.3-.1.7-.1,1.2h-3.3v-1.8a3,3,0,0,1,.9-2.5,4.8,4.8,0,0,1,2.4-.7h8.6a4.7,4.7,0,0,1,1.6.4,3.7,3.7,0,0,1,1.3,1.2,3.5,3.5,0,0,1,.5,1.8Zm15.8-5.7a2.8,2.8,0,0,1,1,2.5v10.5a2.7,2.7,0,0,1-1,2.4,3.5,3.5,0,0,1-2.3.7h-8.2a4.5,4.5,0,0,1-3.2-1.5,2.5,2.5,0,0,1-.6-1.7H338a.8.8,0,0,0,.4-.4,8.7,8.7,0,0,0,.2-1v-7.5a5.6,5.6,0,0,0-.2-1,.8.8,0,0,0-.4-.4h-6.8l-.8.3a1.3,1.3,0,0,0-.3,1v7.4h-3.5v-8.6a2.8,2.8,0,0,1,.6-1.8,3.3,3.3,0,0,1,1.4-1.2,5.8,5.8,0,0,1,1.8-.4h8.2A4.2,4.2,0,0,1,340.9,1187.6Zm6.4-.1a3.2,3.2,0,0,1,1.4,1.4,3.6,3.6,0,0,1,.6,2v12.8h-3.5V1192a2.9,2.9,0,0,0-.3-1.4,1.4,1.4,0,0,0-1.2-.5h-.9v-3.2h1.9A3.6,3.6,0,0,1,347.3,1187.5Zm16.8,0a3.2,3.2,0,0,1,1.4,1.4,3.7,3.7,0,0,1,.6,2.1v9.3a2.8,2.8,0,0,1-.6,1.8,3.5,3.5,0,0,1-1.5,1.2,3.9,3.9,0,0,1-1.8.4H351v-3.2h10.2a1.1,1.1,0,0,0,1-.4,1.6,1.6,0,0,0,.4-1.1v-7a2.5,2.5,0,0,0-.3-1.3,1.2,1.2,0,0,0-1.2-.6h-5.5a1.1,1.1,0,0,0-1.1.6,2.5,2.5,0,0,0-.3,1.3,2.8,2.8,0,0,0,.3,1.5c.2.4.5.5,1,.5h5.4v3.2h-6.4a3.9,3.9,0,0,1-1.8-.4,4.1,4.1,0,0,1-1.4-1.2,2.8,2.8,0,0,1-.6-1.8V1191a4.6,4.6,0,0,1,.5-2.1,3.8,3.8,0,0,1,1.4-1.4,3.6,3.6,0,0,1,2.1-.5h7.4A3.5,3.5,0,0,1,364.1,1187.5Z" fill="#fff"/>
      <path id="text04" d="M325.1,1726.5l-10.4,7.3h7.1v-.9h3.3v4H310.6l-.7-3.8,11.7-8.1a3.7,3.7,0,0,0-.2-1.2,1.1,1.1,0,0,0-.9-.5h-6.9c-.1.1-.3.2-.4.4s-.1.7-.1,1.2h-3.3v-1.8a3,3,0,0,1,.9-2.5,4.8,4.8,0,0,1,2.4-.7h8.6a4.7,4.7,0,0,1,1.6.4,3.7,3.7,0,0,1,1.3,1.2,3.5,3.5,0,0,1,.5,1.8Zm15.8-5.7a2.8,2.8,0,0,1,1,2.5v10.5a2.7,2.7,0,0,1-1,2.4,3.5,3.5,0,0,1-2.3.7h-8.2a4.5,4.5,0,0,1-3.2-1.5,2.5,2.5,0,0,1-.6-1.7H338c.2,0,.3-.1.4-.3a8.7,8.7,0,0,0,.2-1v-7.5a5.6,5.6,0,0,0-.2-1,.8.8,0,0,0-.4-.4h-6.8a1,1,0,0,0-.8.3,1.3,1.3,0,0,0-.3,1v7.4h-3.5v-8.6a2.8,2.8,0,0,1,.6-1.8,3.3,3.3,0,0,1,1.4-1.2,5.8,5.8,0,0,1,1.8-.4h8.2A4.2,4.2,0,0,1,340.9,1720.8Zm6.4-.2a4,4,0,0,1,1.4,1.5,3.6,3.6,0,0,1,.6,2v12.8h-3.5v-11.7a2.9,2.9,0,0,0-.3-1.4,1.4,1.4,0,0,0-1.2-.5h-.9v-3.2h1.9A4.6,4.6,0,0,1,347.3,1720.6Zm18.2,7.7a2.7,2.7,0,0,1,.6,1.7v2.9a3.9,3.9,0,0,1-.6,2.1,3.8,3.8,0,0,1-1.4,1.4,4.6,4.6,0,0,1-2,.5h-7.4a3.8,3.8,0,0,1-3.5-1.9,5,5,0,0,1-.5-2.1V1730a3.4,3.4,0,0,1,.5-1.7,5.3,5.3,0,0,1,1.4-1.2,3,3,0,0,1-.5-1.6v-1.4a4.6,4.6,0,0,1,.5-2,4.3,4.3,0,0,1,1.5-1.5,4.2,4.2,0,0,1,2-.5h4.6a4.6,4.6,0,0,1,2,.5,4,4,0,0,1,1.4,1.5,3.5,3.5,0,0,1,.5,2v1.4a2.4,2.4,0,0,1-.5,1.6A4.1,4.1,0,0,1,365.5,1728.3Zm-3.2,4.9a2.8,2.8,0,0,0,.3-1.3,2.8,2.8,0,0,0-.3-1.5,1.1,1.1,0,0,0-1.1-.6h-5.7a1,1,0,0,0-1,.6,2.8,2.8,0,0,0-.3,1.5,2.8,2.8,0,0,0,.3,1.3,1.3,1.3,0,0,0,1.1.5h5.5A1.4,1.4,0,0,0,362.3,1733.2Zm-6.5-9.5a2.7,2.7,0,0,0-.2,1.1,3.1,3.1,0,0,0,.1,1.1.9.9,0,0,0,.3.6h4.7a.9.9,0,0,0,.4-.6v-1.1c0-.5,0-.9-.2-1.1s-.4-.4-.9-.4h-3.3A1,1,0,0,0,355.8,1723.7Z" fill="#fff"/>
      <path id="text05" d="M325.1,2258.6l-10.4,7.3h7.1v-.8h3.3v4H310.6l-.7-3.8,11.7-8.2a3.7,3.7,0,0,0-.2-1.2,1.3,1.3,0,0,0-.9-.4h-6.9l-.4.4c0,.2-.1.6-.1,1.1v.2h-3.3v-1.8a3,3,0,0,1,.9-2.5,4,4,0,0,1,2.4-.7h8.6a3.2,3.2,0,0,1,1.6.4,3.7,3.7,0,0,1,1.3,1.2,3.5,3.5,0,0,1,.5,1.8Zm15.8-5.6a2.8,2.8,0,0,1,1,2.5v10.4a2.8,2.8,0,0,1-1,2.5,4.2,4.2,0,0,1-2.3.7h-8.2a3.3,3.3,0,0,1-1.7-.4,4.2,4.2,0,0,1-1.5-1.1,2.7,2.7,0,0,1-.6-1.7H338c.2,0,.3-.2.4-.4a6.4,6.4,0,0,0,.2-.9v-7.6a8.7,8.7,0,0,0-.2-1c-.1-.2-.2-.3-.4-.3h-6.8a1,1,0,0,0-.8.3,1.3,1.3,0,0,0-.3,1v7.5h-3.5v-8.6a2.8,2.8,0,0,1,.6-1.8,3.3,3.3,0,0,1,1.4-1.2,3.9,3.9,0,0,1,1.8-.4h8.2A3.5,3.5,0,0,1,340.9,2253Zm6.4-.2a4.5,4.5,0,0,1,2,3.5v12.8h-3.5v-11.8a2.5,2.5,0,0,0-.3-1.3c-.2-.4-.6-.5-1.2-.5h-.9v-3.2h1.9A4.6,4.6,0,0,1,347.3,2252.8Zm18.1-.5.7,3.8-10.5,13h-4.1l11-13.7h-8.3v.9h-3.3v-4Z" fill="#fff"/>
      <path id="text06" d="M325.1,2791.1l-10.4,7.3h7.1v-.8h3.3v4H310.6l-.7-3.8,11.7-8.2a3.7,3.7,0,0,0-.2-1.2,1.3,1.3,0,0,0-.9-.4h-6.9l-.4.4c0,.2-.1.6-.1,1.1v.2h-3.3V2788a3,3,0,0,1,.9-2.5,4,4,0,0,1,2.4-.7h8.6a3.2,3.2,0,0,1,1.6.4,3.7,3.7,0,0,1,1.3,1.2,3.5,3.5,0,0,1,.5,1.8Zm15.8-5.6a2.8,2.8,0,0,1,1,2.5v10.4a2.8,2.8,0,0,1-1,2.5,4.2,4.2,0,0,1-2.3.7h-8.2a3.3,3.3,0,0,1-1.7-.4,4.2,4.2,0,0,1-1.5-1.1,2.7,2.7,0,0,1-.6-1.7H338c.2,0,.3-.2.4-.4a6.4,6.4,0,0,0,.2-.9v-7.6a8.7,8.7,0,0,0-.2-1c-.1-.2-.2-.3-.4-.3h-6.8a1,1,0,0,0-.8.3,1.3,1.3,0,0,0-.3,1v7.5h-3.5v-8.6a2.8,2.8,0,0,1,.6-1.8,3.3,3.3,0,0,1,1.4-1.2,3.9,3.9,0,0,1,1.8-.4h8.2A3.5,3.5,0,0,1,340.9,2785.5Zm6.4-.2a4.5,4.5,0,0,1,2,3.5v12.8h-3.5v-11.8a2.5,2.5,0,0,0-.3-1.3c-.2-.4-.6-.5-1.2-.5h-.9v-3.2h1.9A4.6,4.6,0,0,1,347.3,2785.3Zm16.7,6.4a4.4,4.4,0,0,1,1.5,1.2,2.8,2.8,0,0,1,.6,1.8v2.9a3.6,3.6,0,0,1-.6,2,4,4,0,0,1-1.4,1.5,4.6,4.6,0,0,1-2,.5h-7.4a4.6,4.6,0,0,1-2.1-.5,5,5,0,0,1-1.4-1.5,4.6,4.6,0,0,1-.5-2v-9.4a2.8,2.8,0,0,1,.6-1.8,4.1,4.1,0,0,1,1.4-1.2,3.9,3.9,0,0,1,1.8-.4h3v3.2h-2a1.2,1.2,0,0,0-1,.4,1.8,1.8,0,0,0-.3,1.1v7a2.9,2.9,0,0,0,.3,1.4,1.3,1.3,0,0,0,1.1.5h5.5a1.4,1.4,0,0,0,1.2-.5,2.9,2.9,0,0,0,.3-1.4,3.3,3.3,0,0,0-.3-1.5,1.3,1.3,0,0,0-1.1-.5h-5.4v-3.2h6.4A3.9,3.9,0,0,1,364,2791.7Z" fill="#fff"/>
      <path id="text07" d="M325.1,3324l-10.4,7.3h7.1v-.9h3.3v4H310.6l-.7-3.8,11.7-8.1a3.7,3.7,0,0,0-.2-1.2,1.1,1.1,0,0,0-.9-.5h-6.9c-.1.1-.3.2-.4.4s-.1.7-.1,1.2h-3.3v-1.8a3,3,0,0,1,.9-2.5,4.8,4.8,0,0,1,2.4-.7h8.6a4.7,4.7,0,0,1,1.6.4,3.7,3.7,0,0,1,1.3,1.2,3.5,3.5,0,0,1,.5,1.8Zm15.8-5.7a2.8,2.8,0,0,1,1,2.5v10.4a2.8,2.8,0,0,1-1,2.5,3.5,3.5,0,0,1-2.3.7h-8.2a4.5,4.5,0,0,1-3.2-1.5,2.5,2.5,0,0,1-.6-1.7H338c.2,0,.3-.1.4-.3a8.7,8.7,0,0,0,.2-1v-7.6a6.4,6.4,0,0,0-.2-.9.8.8,0,0,0-.4-.4h-6.8a1,1,0,0,0-.8.3,1.3,1.3,0,0,0-.3,1v7.4h-3.5V3321a2.8,2.8,0,0,1,.6-1.8,3.3,3.3,0,0,1,1.4-1.2,5.8,5.8,0,0,1,1.8-.4h8.2A4.2,4.2,0,0,1,340.9,3318.3Zm6.4-.2a4,4,0,0,1,1.4,1.5,3.6,3.6,0,0,1,.6,2v12.8h-3.5v-11.7a2.9,2.9,0,0,0-.3-1.4,1.4,1.4,0,0,0-1.2-.5h-.9v-3.2h1.9A4.6,4.6,0,0,1,347.3,3318.1Zm16.7,6.5a3.3,3.3,0,0,1,1.5,1.1,3.2,3.2,0,0,1,.6,1.8v2.9a3.9,3.9,0,0,1-.6,2.1,3.8,3.8,0,0,1-1.4,1.4,4.6,4.6,0,0,1-2,.5H350.7v-4.1h3.4v.9h7a1.4,1.4,0,0,0,1.2-.5,2.8,2.8,0,0,0,.3-1.3,2.8,2.8,0,0,0-.3-1.5,1.1,1.1,0,0,0-1.1-.6H350.8l1.8-9.7h12.3v4h-3.3v-.8h-6l-.6,3.3h7.2A4.1,4.1,0,0,1,364,3324.6Z" fill="#fff"/>
      <path id="text08" d="M325.4,3879l-10.5,7.3H322v-.9h3.4v4H310.8l-.6-3.8,11.7-8.1a3.7,3.7,0,0,0-.2-1.2,1.1,1.1,0,0,0-1-.5h-6.8a.8.8,0,0,0-.4.4,4.1,4.1,0,0,0-.1,1.2H310v-1.8a2.8,2.8,0,0,1,1-2.5,4.8,4.8,0,0,1,2.4-.7h8.5a4.7,4.7,0,0,1,1.7.4,4.9,4.9,0,0,1,1.3,1.2,3.5,3.5,0,0,1,.5,1.8Zm15.8-5.7a3.1,3.1,0,0,1,1,2.5v10.4a3.1,3.1,0,0,1-1,2.5,4,4,0,0,1-2.4.7h-8.2a3.8,3.8,0,0,1-1.7-.4,3,3,0,0,1-1.4-1.1,3.3,3.3,0,0,1-.7-1.7h11.5a.3.3,0,0,0,.3-.3,2.5,2.5,0,0,0,.2-1v-7.6a2,2,0,0,0-.2-.9c0-.2-.2-.3-.3-.4h-6.9a.8.8,0,0,0-.7.3,1.9,1.9,0,0,0-.4,1v7.4h-3.5V3876a2.8,2.8,0,0,1,.6-1.8,4.4,4.4,0,0,1,1.5-1.2,4.7,4.7,0,0,1,1.7-.4h8.2A4.8,4.8,0,0,1,341.2,3873.3Zm6.4-.2a4,4,0,0,1,1.4,1.5,4.6,4.6,0,0,1,.5,2v12.8H346v-11.7a2.9,2.9,0,0,0-.3-1.4,1.3,1.3,0,0,0-1.1-.5h-1v-3.2h1.9A4.6,4.6,0,0,1,347.6,3873.1Zm18.2,9.7v3.5h-1.2v3.1h-3.5v-3.1H351v-3.5h0l10.1-10.2h3.5v8.6h-3.5v-4.1l-5.4,5.7Z" fill="#fff"/>
    </g>
  </g>
</svg>
